<svg width="659" height="664" version="1.1" viewBox="0 0 174.36 175.683" xmlns="http://www.w3.org/2000/svg"><g transform="translate(-138.88 -164.647)" stroke-width="0"><rect x="138.88" y="164.647" width="174.36" height="175.683" ry="0" fill="#202225"/><path d="m207.671 166.154c-2.58683 0-6.19627 2.20915-7.21608 6.01513 0 0-2.00488 15.81-3.27318 16.6418-.0225.0147-.05123.03869-.07493.05529a69.9412 69.9412 0 00-11.667 6.73549c-.0262.0122-.06127.02511-.08527.03721-1.35449.6825-16.0491-5.48647-16.0491-5.48647-3.80599-1.01981-7.5236 1.0019-8.81702 3.24217l-9.19528 15.9261-9.19477 15.9272c-1.29341 2.24027-1.18524 6.47061 1.60093 9.25678 0 0 12.6897 9.64163 12.7759 11.1559.002.0267.00804.06328.01034.09198a69.9412 69.9412 0 00-.36587 6.73601 69.9412 69.9412 0 00.36587 6.73446c-.003.0292-.00896.06643-.01086.09353-.0862 1.51427-12.7754 11.1559-12.7754 11.1559-2.78617 2.78617-2.89486 7.01651-1.60145 9.25677l9.19529 15.9266 9.19477 15.9261c1.29342 2.24026 5.01154 4.26199 8.81753 3.24217 0 0 14.6946-6.16897 16.0491-5.48647.0239.012.05865.02501.08475.03721a69.9412 69.9412 0 0011.667 6.73549c.0238.0166.05243.04049.07493.05529 1.2683.83177 3.27317 16.6424 3.27317 16.6424.99213 3.70266 4.43256 5.8875 7.0006 6.00376-2.48212-7.99297-4.64501-16.8886-6.13502-26.0185.002.002.00314.00523.00414.00723 16.0294 1.9774 33.5231-7.03108 28.437-7.03108-5.2113 0-15.2186-.05017-29.9139-4.35786-.00102.002-.00142.00471-.00207.00671-.42776-4.48756-.67156-8.96301-.67179-13.3459 0-5.29572.19943-10.0211.57412-14.2689.0039.0138.00789.02744.01189.04134 16.0595 2.02746 33.6357-7.01758 28.532-7.01558-4.8659 0-13.9044-.03751-27.0278-3.53931-.0131.0134-.02525.02691-.03825.04031 1.66563-8.00347 4.31274-13.4687 7.82897-17.0568-1.77368-2.7716-3.83251-6.81455-6.33397-13.07-7.08109-17.699 10.618-7.07861 14.1572-3.53931-3.2374-12.9429 8.31494-28.8428 10.3244-28.777l-.00052.00051c.18894.00617.29353.15317.29352.45734 0-3.5393 13.3284 14.16 9.79163 28.3197 3.5393-3.53929 20.823-14.1601 13.7444 3.54138-3.04375 7.60949-5.31817 11.9456-7.20368 14.6993 4.86255 6.14179 7.76287 16.6536 8.33384 33.7054-13.9889 3.93694-23.5274 3.95434-28.591 3.95634-5.1112-.005 12.5327 9.06861 28.6121 7.00111.001-2e-4.00157-.00076.00207-.00104-.37147 10.6882-2.01513 21.7478-4.37957 32.0843-7e-5-.001 6e-5-.00104 0-.00155-12.9607 3.42414-21.9065 3.46903-26.7373 3.46903-4.61809-.002 9.34387 7.41169 23.9391 7.32409.00031-.00026.00066-.00071.00103-.00104-.33215 1.14542-.67351 2.26913-1.01906 3.38119h.46199c2.58683 0 6.19679-2.20914 7.2166-6.01513 0 0 2.00487-15.8106 3.27318-16.6424.0225-.0148.05123-.03869.07493-.05529a69.9412 69.9412 0 0011.6664-6.73549c.0263-.0123.06127-.02511.08527-.03721 1.35449-.6825 16.0491 5.48647 16.0491 5.48647 3.80598 1.01981 7.52359-1.00191 8.81701-3.24217l9.19528-15.9261 9.19477-15.9261c1.29342-2.24027 1.18525-6.47062-1.60093-9.25678 0 0-12.6897-9.64162-12.7759-11.1559-.002-.0318-.00578-.0681-.00878-.10284a69.9412 69.9412 0 00.36432-6.72567 69.9412 69.9412 0 00-.3421-6.87657c.31321-1.64711 12.763-11.1068 12.763-11.1068 2.78617-2.78618 2.89435-7.01703 1.60093-9.2573l-9.19529-15.9266-9.19476-15.9261c-1.29341-2.24026-5.01155-4.26199-8.81753-3.24217 0 0-14.4123 6.04982-15.9995 5.49991a69.9412 69.9412 0 00-11.9062-6.87191c-1.26964-1.05374-3.24321-16.6119-3.24321-16.6119-1.01981-3.80598-4.62925-6.01513-7.21608-6.01513h-18.3901-18.39z" fill="#fc6d00"/></g></svg>
