<svg viewBox="0 0 604 850" xmlns="http://www.w3.org/2000/svg"><rect width="604" height="850" fill="#d67503"/><path d="m143.81 236c5.4-.06 10.9-.12 16.399-.18-.06 12.903-.119 25.804.023 38.803 10.574-11.716 21.146-23.432 31.62-35.247 1.585-1.316 2.658-3.729 4.958-3.755 5.898-.265 11.901-.13 17.9-.195-12.746 14.34-25.487 28.681-38.435 42.922 13.561 14.552 27.319 29.004 40.582 43.76-7.101.077-14.198.354-21.301.134-3.117-1.466-4.951-4.647-7.277-7.021-9.51-9.997-18.725-20.397-28.432-30.091-.164 12.401-.129 24.703-.194 37.103-5.5.061-10.999.12-16.597.182.485-28.809.268-57.608.754-86.415z" fill="#fff" stroke="#fff" stroke-width=".093"/><path d="m231.309 235.444c19.397-.412 38.905.074 58.402-.237.045 4.199-.209 8.301-.265 12.404-13.998.252-28 .105-41.899.257-.12 7.401.06 14.801.041 22.201 14.002-.054 27.901-.205 41.902-.259.047 4.301-.008 8.602.038 12.801-13.999.053-27.998.205-41.998.259.195 8.598.088 17.201.08 25.801 14.001-.054 28.002-.205 42.101-.259-.052 4.4-.003 8.899-.054 13.301-19.399.312-38.9.225-58.4.438.383-28.907.067-57.805.052-86.707z" fill="#fff" stroke="#fff" stroke-width=".093"/><path d="m314.31 235.238c19.303.089 38.598-.422 58.008.166-.059 4.001-.014 8.1.031 12.201-13.998.151-28.002.005-41.896.157.078 7.398.059 14.801.139 22.199 13.998-.153 27.9-.104 41.9-.157-.053 4.201-.01 8.4.037 12.6-13.898.053-27.898.405-41.799.057.094 8.6.086 17.2.182 25.801 13.994-.354 27.9.095 41.898.043.049 4.498.1 8.897.049 13.4-19.402.01-38.701.022-58.1.135-.216-28.902-.433-57.8-.449-86.602z" fill="#fff" stroke="#fff" stroke-width=".093"/><path d="m404.199 235.291c-2.59.006-5.183.022-7.783.05.414 28.797.428 57.599.843 86.294 5.903.036 11.704.37 17.503.208 0-9.3-.003-18.499-.306-27.798 7.497-.281 15.312.832 22.482-1.746 4.682-1.651 9.059-4.099 12.623-7.537 10.983-10.719 10.467-30.416-.546-40.896-5.763-5.438-13.596-8.551-21.496-8.464-7.803-.064-15.548-.13-23.32-.111zm15.078 12.095c5.49.02 11.03.56 15.419 4.037 9.276 6.898 7.055 23.624-3.798 27.843-5.283 1.758-11.095.619-16.589.978-.119-10.897-.139-21.796-.46-32.794 1.774-.019 3.599-.071 5.429-.064z" fill="#fff"/><path d="m136.362 377.989c11.689-10.326 28.445-14.312 43.486-10.675 10.224 2.188 19.386 7.789 26.269 15.514-3.958 3.742-8.018 7.388-11.976 11.332-6.671-6.529-15.428-11.733-25.027-11.43-13.304-.354-26.506 8.592-30.064 21.631-2.891 10.031.635 21.496 8.508 28.309 9.9 9.091 25.717 10.621 37.245 3.694 3.975-2.245 7.239-5.481 10.203-8.911 3.844 3.957 7.29 8.22 11.033 12.278-9.498 9.202-21.618 16.639-35.114 17.185-15.089.965-30.561-5.468-40.09-17.263-6.588-8.028-10.203-18.39-9.916-28.793-.038-12.601 5.831-24.864 15.443-32.871z" fill="#fff" stroke="#fff" stroke-width=".093"/><path d="m263.257 367.902c-4.398.049-8.8-.002-13.197.144-13.484 29.049-27.471 57.803-40.955 86.947 6.401.032 12.7-.033 19-.005 3.036-5.831 5.971-11.765 8.708-17.695 13.997-.253 27.904.195 41.902.042 2.965 5.866 6.028 11.635 9.291 17.3 5.898-.066 11.798.07 17.693-.193-14.012-28.948-28.229-57.795-42.443-86.541zm-6.023 25.267c4.905 9.745 9.416 19.696 14.224 29.445-9.3.203-18.702.105-28.001.205 4.491-9.95 9.187-19.699 13.777-29.65z" fill="#fff"/><path d="m318.656 367.497c5.998-.165 12.006.271 18.006.304.055 23.501.414 47 .365 70.401 13.701-.25 27.307.203 41.002.054-.037 5.399.02 10.699.078 16.098-19.693.416-39.303.027-59.002.144-.215-29.001-.234-58.001-.449-87.001z" fill="#fff" stroke="#fff" stroke-width=".093"/><path d="m395.66 367.558c6.301.03 12.598-.239 18.902.191 7.855 13.915 15.805 27.829 23.658 41.746 7.748-13.986 15.9-27.878 23.846-41.764 6.102-.067 12.203-.034 18.404-.101.312 28.698.428 57.396.637 86.096-5.297.161-10.701.021-15.998.177-.102-18.402-.004-36.805-.404-55.1-9.043 14.3-17.381 28.992-26.227 43.389-9.055-14-17.113-28.616-25.77-42.919.096 18.297.299 36.597.396 54.797-5.598.161-11.295.224-16.896.184-.114-28.9-.429-57.797-.548-86.696z" fill="#fff" stroke="#fff" stroke-width=".093"/><path d="m257.818 492.468c-1.024.011-2.047.071-3.095.232-1.872 2.622-2.938 5.732-4.406 8.65-4.986 10.654-9.971 21.213-14.955 31.867 2.999-.034 6.101.032 9.099-.103 1.372-2.61 2.742-5.327 4.113-8.044 6.399.032 12.7-.035 19.099-.107 1.429 2.688 2.959 5.368 4.386 8.052 2.902-.032 5.7-.062 8.5-.093-6.448-13.528-13.192-26.955-19.64-40.384-1.05-.04-2.076-.079-3.101-.068zm-.064 12.4c2.347 4.278 4.397 8.753 6.746 13.128-4.301.046-8.602-.007-12.9.037 2.151-4.318 4.203-8.741 6.154-13.166z" fill="#fff"/><path d="m285.921 492.363c2.899-.032 5.8-.065 8.798.004 5.19 8.343 10.88 16.384 16.371 24.72.012-8.098-.277-16.196-.062-24.201 2.383-1.225 5.395-.455 7.992-.784.045 13.599.094 27.2.146 40.9-2.402.028-4.9.054-7.4.082-5.799-8.839-11.796-17.674-17.592-26.61-.103 8.9-.006 17.799-.009 26.701-2.699.03-5.398.059-8.1.087-.149-13.598-.198-27.297-.144-40.899z" fill="#fff" stroke="#fff" stroke-width=".093"/><path d="m348.419 491.978c-6.001-.032-11.902.129-17.902.097.25 13.698-.301 27.306-.05 40.906 6.393-.272 12.898.357 19.191-.511 9.982-1.611 18.583-10.905 17.771-21.294.588-10.308-9.009-19.204-19.009-19.197zm-2.814 7.666c3.184.018 6.314.436 8.527 2.974 5.857 5.035 4.669 15.347-1.787 19.32-3.571 2.637-8.178 2.187-12.277 2.234.011-8.202-.078-16.3-.068-24.5 1.764.093 3.694-.04 5.605-.029z" fill="#fff"/><path d="m68.74 587.039c11.061-12.821 29.189-19.321 45.928-15.801 12.622 1.864 23.109 9.848 31.412 19.056-3.959 3.743-8.122 7.189-12.284 10.836-6.886-7.925-16.355-14.224-27.055-14.407-14.713-.938-29.088 10.621-31.03 25.242-1.19 9.915 3.022 20.27 10.693 26.684 10.296 8.589 26.104 9.418 37.429 2.391 3.08-1.832 5.55-4.459 8.124-6.986 3.051 4.767 6.503 9.327 9.653 13.995-7.524 7.081-16.968 12.185-27.151 13.796-14.977 2.162-30.929-2.561-42.144-12.841-16.77-15.615-18.386-44.503-3.575-61.965z" fill="#fff" stroke="#fff" stroke-width=".093"/><path d="m190.943 572.88c-2.425.002-4.85.028-7.25.105-13.078 29.537-26.257 58.987-39.333 88.529 6.297-.269 12.605.463 18.796-.406 3.037-5.729 5.37-11.756 8.105-17.685 13.3-.046 26.602-.091 39.902-.14 2.464 5.975 5.228 11.845 7.794 17.917 6.401-.073 12.798-.141 19.298-.212-13.12-29.455-26.644-58.811-40.064-88.064-2.4-.023-4.825-.044-7.25-.042zm-.984 24.533c4.813 10.349 9.428 20.898 14.144 31.351-9.001.095-17.999.294-27.101-.105 4.385-10.449 8.772-20.8 12.957-31.246z" fill="#fff"/><path d="m278.398 572.33c-.302.003-.605.013-.908.029-10.797.216-21.598.034-32.398.253.023 29.596.445 59.097.167 88.701 5.499-.062 10.9-.12 16.398-.179-.026-11.597.045-23.197-.179-34.794 3.499.057 6.896-.177 10.398.08 3.704.262 6.533 3.032 8.765 5.806 5.79 8.438 6.908 19.027 11.207 28.179 6.015 1.033 12.204.065 18.306.199-4.817-10.546-7.642-21.916-12.757-32.458-1.636-3.182-4.75-5.048-7.771-6.917 4.969-2.852 9.525-6.906 11.761-12.33 3.024-7.232 3.83-15.841-.148-22.894-4.544-7.992-13.472-13.779-22.841-13.673zm-6.429 14.027c3.55.098 6.981.735 9.906 3.052 7.261 5.32 5.402 18.243-2.964 21.33-5.578 1.964-11.688 1.031-17.486 1.294.008-8.5.014-16.999-.078-25.5 3.402.163 7.072-.276 10.623-.177z" fill="#fff"/><path d="m353.425 571.83c-.311-.003-.623 1e-5-.935.009-10.8.017-21.6.037-32.5.353.223 29.4-.155 58.906.066 88.404 5.401-.056 10.699-.015 16.097-.173.176-11.499.549-23.106.123-34.601 2.998-.035 5.898-.162 8.9-.097 4.996-.156 8.943 3.798 11.382 7.771 4.493 8.456 6.297 17.836 9.693 26.695 6.097-.166 12.296-.033 18.501-.302-5.123-10.641-7.746-22.212-13.062-32.753-1.633-3.083-4.751-4.748-7.669-6.515 12.136-5.735 17.661-21.598 12.429-33.841-4.065-8.674-13.364-14.853-23.027-14.947zm-9.371 13.947c4.455-.059 8.869.383 12.525 3.216 7.253 5.221 5.096 18.348-3.271 21.236-5.481 1.961-11.39.928-17.087 1.189.009-8.497.01-16.898-.08-25.398 2.55.009 5.24-.208 7.914-.244z" fill="#fff"/><path d="m435.357 568.279c-3.02-.032-6.043.188-9.013.646-17.97 2.894-33.515 17.065-37.82 34.808-4.132 15.448.558 32.901 11.783 44.277 9.104 9.599 22.458 14.658 35.658 14.412 12.498-.436 24.94-5.772 33.439-15.068 8.602-8.892 13.467-21.343 12.832-33.74.033-15.201-8.625-29.609-21.214-37.769-7.555-5.09-16.601-7.468-25.664-7.566zm-1.49 16.988c7.763-.157 15.575 2.361 21.242 7.742 10.498 9.083 12.981 25.86 5.308 37.546-6.873 11.572-22.11 17.135-34.861 12.779-9.835-3.191-17.83-11.808-19.939-21.884-1.784-7.679-.376-16.097 3.949-22.746 4.228-6.646 11.277-11.219 18.96-12.904 1.759-.319 3.548-.496 5.339-.533z" fill="#fff"/><path d="m514.627 570.589c-7.15.022-14.302.047-21.461.049-3.07.03-6.142.072-9.216.135-.041 5.625-.057 11.251-.088 16.876 7.16-.073 14.299.004 21.438.067-.051 9.512-.094 19.024-.133 28.536-3e-5.006 2e-5.012 0 .018.061 15.188.122 30.375.235 45.564 2.143-.012 4.282-0 6.424-.004 3.991-.093 7.983-.274 11.972-.296.035-15.1.185-30.198.288-45.273-.064-9.507-.138-19.024-.2-28.544 7.162-.063 14.322-.141 21.506-.067-.03-5.625-.046-11.251-.088-16.876-3.073-.063-6.145-.104-9.216-.135-7.158-.002-14.313-.026-21.463-.049z" fill="#fff" stroke-width="1.047"/><path d="m258.066 705.535c-3.02-.032-6.043.187-9.013.644-17.97 2.893-33.517 17.067-37.822 34.81-4.132 15.448.56 32.899 11.785 44.275 9.105 9.6 22.458 14.658 35.658 14.412 12.498-.436 24.938-5.77 33.437-15.066 8.602-8.892 13.467-21.345 12.832-33.742.033-15.201-8.623-29.609-21.212-37.769-7.555-5.09-16.601-7.466-25.664-7.564zm-1.49 16.986c7.763-.157 15.575 2.362 21.242 7.744 10.498 9.084 12.981 25.858 5.308 37.544-6.873 11.572-22.11 17.137-34.861 12.781-9.835-3.191-17.83-11.808-19.939-21.884-1.784-7.679-.376-16.097 3.949-22.746 4.229-6.646 11.277-11.219 18.96-12.904 1.759-.319 3.548-.498 5.339-.535z" fill="#fff"/><path d="m321.263 706.893c6.1-.069 12.199-.136 18.299-.201 12.502 18.262 24.703 36.731 37.102 54.995.256-13.201-.186-26.399.068-39.602.342-5.302.188-10.504.127-15.8 5.701.136 11.4.073 17.1-.09-.275 29.701-.051 59.305.074 89.005-5.199.256-10.4.113-15.6.271-13.416-19.758-26.434-39.713-39.85-59.47-.186 20.005.434 39.897-.051 59.803-5.797.164-11.494.227-17.195.29-.025-29.803.149-59.504-.074-89.201z" fill="#fff" stroke="#fff" stroke-width=".093"/><path d="m332.488 48.197v.001c-2.187-.052-4.737 2.351-7.568 8.957-3.371 7.866-5.152 13.343-6.048 17.425-6.381.063-13.672 2.603-22.359 8.298.026-.002.052-.008.078-.011 8.640 14.929 16.725 23.081 21.095 27.451 4.584 4.581-19.323-3.080-31.925-19.324.004-.012.009-.023.013-.035-4.147 3.475-8.565 7.536-13.316 12.287-3.934 3.935-7.720 8.187-11.365 12.599 9.324 17.055 18.261 26.085 22.941 30.763 4.564 4.564-19.204-3.044-31.830-19.197-22.913 31.858-36.866 68.123-30.607 74.382 4.643 4.643 25.833-1.866 49.462-14.867-11.937-11.806-17.881-28.660-15.808-28.632h.001c.214.002.513.187.902.576 4.337 4.337 12.412 12.330 27.125 20.894 11.409-7.161 22.821-15.612 32.755-24.880-.002 7e-4-.006.003-.009.003-15.023-11.599-22.738-32.897-20.259-32.554.21.029.493.211.851.570 4.547 4.543 13.128 13.093 29.220 22.119 14.787-15.816 21.647-27.871 22.794-37.75 4.166-.779 10.100-2.626 19.671-6.728 22.253-9.539-2.804-15.525-9.162-15.525 15.891-9.539 19.815-37.403 16.636-34.224 3.177-3.177-25.431-.001-34.966 15.894 0-4.468-3.143-18.370-8.324-18.494z" fill="#fff"/></svg>