<svg version="1.1" viewBox="0 0 36 36" xmlns="http://www.w3.org/2000/svg"><circle cx="10" cy="31" r="4" fill="#292F33"/><circle cx="10" cy="31" r="2" fill="#CCD6DD"/><circle cx="27" cy="31" r="4" fill="#292F33"/><circle cx="27" cy="31" r="2" fill="#CCD6DD"/><path transform="matrix(.410372 0 0 1 18.6984 0)" d="m31.1916 30.8851c.672538.550277 1.60206 1.19098 2.9353 1.97037 4.40131 2.57222 1.7605-3.70803.880489-4.99414 3.52068 1.2852 7.91917-3.55859 7.03916-3.55859.880014 0-3.51848-5.14639-7.03916-3.85938.770011-1.12534 2.88755-6.19003.456903-5.71484-.347234.06788-.787306.248671-1.33739.570312-4.40131 2.57222-4.40292 3.85842-5.28294 5.14453s.880489 3.85938.880489 3.85938-1.76112 2.3458-.880489 3.63281c.09864.144154.186253.285487.270277.426443 1.25803.712302 2.01988 1.58181 2.07736 2.52311z" fill="#77b255" stroke-width="1.06402"/><path d="m5.83373 29.2962c.671587-1.64052 2.28396-2.79622 4.16627-2.79622 2.48528 0 4.5 2.01472 4.5 4.5 0 .528404-.09107 1.03554-.258382 1.50656 2.07408.501171 4.19751.800084 6.2408.800084.931104 0 1.79394-.03484 2.59293-.103385-.366374-.651219-.575353-1.40283-.575353-2.20326 0-2.48528 2.01472-4.5 4.5-4.5 1.87432 0 3.481 1.14591 4.15767 2.77536.882224-1.5049 1.20734-3.39686 1.20756-5.61716-.000623-6.03853-2.40431-9.64844-11.8828-9.64844-9.47788.00091-20.6816 6.43226-20.6816 9.64844 0 1.50473 2.4523 3.71344 6.03295 5.63802z" fill="#f4900c" stroke-width="1.06402"/><path d="m9.01333 26.6085c.317526-.07103.647721-.108504.98667-.108504.238644 0 .47295.01858.701549.05436-.172114-2.03262-.176158-3.56407-.176158-4.58757 7.8e-5-.209766-.02782-.314657-.07813-.326172-.245177-.05612-1.00278 2.0916-1.43394 4.96788zm15.0062-12.3858c-.50411 5.8357 1.74672 12.2237 1.74609 10.3691 0-1.76817.0082-5.05347.878906-9.82227-.774835-.237393-1.64666-.421357-2.625-.546875zm-6.85352.0332c-.945361.131885-1.89352.311407-2.83203.535157-.491662 5.82478 1.74805 12.1822 1.74805 10.334 0-1.89369.01291-5.52915 1.08398-10.8691zm3.84375 8.29492c-.423981.06282-2.09434 5.61005-1.64453 10.7227.374036.0191 2.21116.01677 2.72461-.0078-.978968-5.0835-.983753-8.54864-.984375-10.3887.00015-.232163-.03514-.335146-.0957-.326172z" fill="#d67503" stroke-width="1.06402"/><path d="m17.6029 15.7439h-2c-2 0-8 6-8 6s4.997-.263 10-.519zm10 3c-1-1-5-3-7-3h-1v5.379c4.011-.204 7.582-.379 8-.379 1 0 1-1 0-2z" fill="#bbddf5"/></svg>
