<svg version="1.1" viewBox="0 0 36 36" xmlns="http://www.w3.org/2000/svg"><circle cx="18" cy="18" r="18" fill="#99AAB5"/><circle cx="18" cy="18" r="14" fill="#E1E8ED"/><path d="m19.9319 17.9175c1.40544.351049 3.16218-.971907 2.81088-.971907.351298 0-1.40544-1.40544-2.81088-1.05389.351298-.351297 1.40544-2.10803-.351297-1.40519-1.75698.702595-1.75698 1.05389-2.10828 1.40519-.351298.351298.351546 1.05414.351546 1.05414s-.702844.640733-.351298.992279c.351298.351298.351298.640982 2.10779 1.34358 1.75698.702595.702844-1.0129.351546-1.3642z" fill="#77b255" stroke-width=".351351"/><path d="m15.3648 13.2565c0-3.78378 1.75674-8.25649 2.63523-8.25649.878492 0 2.63498 4.47296 2.63523 8.25649 0 3.78378-.98582 4.74326-2.63523 4.74351-1.64941-.000248-2.63523-.959733-2.63523-4.74351z" fill="#f4900c" stroke-width=".351351"/><path d="m17.7451 15.365c.482972 0 1.3801.0037 2.68268.351297.06484-.309311.115029-.65713.149314-1.04768-1.59401-.201238-3.33857.696633-2.832.696385zm-.145836-3.86502c.517257 0 1.51053.005 2.96914.432539-.03602-.377385-.08546-.755762-.146581-1.13041-1.59102-.196269-3.32739.697875-2.82256.697875zm-2.22356 2.39797c1.38854-.3908 2.33536-.392539 2.83796-.392788.50732.000497-1.24395-.900107-2.83994-.694893-.0052.149314-.0047.882716.002 1.08768zm.710297-5.34325c-.100122.34459-.193536.702844-.277758 1.07128 1.28644-.339869 2.17437-.344341 2.65386-.344341.458376.0002485-.927436-.735638-2.3761-.726943z" fill="#d67503" stroke-width=".351351"/></svg>
