<svg version="1.1" viewBox="0 0 36 36" xmlns="http://www.w3.org/2000/svg"><path d="m31.096 8.933c3.535-2.122 4.408-8.32 3.701-7.613.707-.707-5.657 0-7.778 3.536 0-1.414-1.414-7.071-3.535-2.121-2.122 4.95-1.415 5.657-1.415 7.071s2.829 1.414 2.829 1.414-.125 2.704 1.29 2.704c1.414 0 1.997.583 6.946-1.538 4.95-2.122-.624-3.453-2.038-3.453z" fill="#7cac8e" filter="url(#patha)"/><path d="m22.422 23.594c-7.615 7.615-20.152 13.081-21.92 11.313s3.699-14.305 11.313-21.92c7.615-7.615 11.53-7.562 14.85-4.243 3.319 3.32 3.372 7.235-4.243 14.85z" fill="#ef844b" filter="url(#pathc)"/><path d="m18.4925 16.2892c.335934-.170072.474618-.226465.703346-.385667.207439-.149768.34684-.281276.472852-.426077s-.196973-.562468-.435714-.352379c-.238829.209936-.98989.692546-1.25364.815838.287438.149998.513154.348285.513154.348285z" fill="#f4abba" stroke-width=".176758"/><path d="m18.2668 16.0909c-.352834-.232865-.869307-.371254-1.36038-.08773-1.33712.771989-.953414 2.14857-.713629 3.32006.239695 1.17133.393093 1.2387.828533 1.41632.421996-.02525 2.12945-1.14494 2.5007-2.01425.267733-.626868-.450767-2.10325-1.25523-2.6344z" fill="#be1931" stroke-width=".176758"/><path d="m18.2668 16.0909c-.352834-.232865-.869307-.371254-1.36038-.08773-1.33712.771989-1.21017 2.70502-1.02648 3.31801.327105 1.09189.719384 1.44362 1.14129 1.41822-.327953-.17457-.729347-1.48033-.537597-2.40601.201239-.970761 1.03038-1.83461 1.77551-1.71557.164863-.08069.232504-.15832.359405-.231586-.113205-.115476-.231452-.215998-.351753-.295333z" fill="#a0041e" stroke-width=".176758"/><path d="m18.2592 16.618c.202551-.405339.735568-.864725 1.43725-.697541.663125.158015 1.12175.938232.754641 1.65105-.312069.60593-1.44658.931317-1.44658.931317s.337749-1.17551-.146691-1.19054c-.484417-.01464-.6305-.630366-.598621-.694286z" fill="#ea596e" stroke-width=".176758"/><path d="m18.8368 18.5531c.351986.03272.740188-.191406.740188-.191406s.256478-.08215.409446.518988c.01493.05874.344739.07426.325469-.04361-.06989-.428265-.300028-.6289-.300028-.6289s.227598.09903.403114.333033c.06972.09282.220585-.102251.161326-.200295-.06401-.105917-.146329-.188402-.26357-.27481-.05477-.04043-.04695-.119848-.03856-.151632.126629-.478864-.114678-.795714-.327991-.950953-.227631-.165545-.561383-.09633-.672099.150258-.110716.246594-.332252.194479-.53309.196952-.324769.0038-.369193 1.19917.09579 1.24237z" fill="#f4abba" stroke-width=".176758"/><path d="m19.7376 16.2576c.195701-.26484.238036-.461952.302727-.72463.06469-.262678.431307-.09574.360923.188191-.07038.283926-.304072.644174-.369559.71811-.06549.07393-.410682-.02373-.294091-.181671z" fill="#ea596e" stroke-width=".176758"/><path d="m20.1974 16.1895c.190996.12118.475224.03301.564132-.000363.08891-.03337.240054.212868.04868.287232-.191375.07437-.292605.171589-.292605.171589s.303902.0021.496901.0709c.192998.06879.09975.329385-.0502.316767-.149952-.01262-.354263.08636-.403368.161448-.04911.07509-.354589-.252874-.446308-.520973-.0917-.267703.08277-.486605.08277-.486605z" fill="#ea596e" stroke-width=".176758"/><path d="m18.8873 16.2313-.0026-.0048c-.02179-.04375-.004-.09669.03977-.11848.436291-.217196.934898-.132376 1.26996.216065.42641.444086.306898.935985.301488.956662-.01213.04721-.06015.07575-.107519.06371-.04688-.01192-.07566-.06-.06368-.107123.0041-.01688.09865-.419851-.257711-.790693-.284799-.296025-.692351-.365245-1.06382-.180369-.04207.02082-.09274.0052-.115894-.03494zm1.16158-.155485c-.01529-.02648-.01651-.06006-8.8e-5-.08853.0012-.0019.112558-.197447.121711-.391934.0023-.04868.04359-.0864.09228-.0841.04883.0022.08655.04351.08418.09243-.01128.23817-.13979.462787-.145251.472063-.02439.04225-.07832.05665-.120572.03226-.01378-.008-.02475-.01918-.03226-.0322zm.36295.377652c-.0045-.0078-.0079-.01623-.0098-.02554-.01039-.04768.0199-.09456.0675-.105098.000854-.000289.100335-.02241.256174-.09116.04475-.01971.09739.0011.11651.04519.01971.04475-.000446.0968-.04519.11651-.174043.07681-.285661.101247-.290195.102231-.03846.0083-.0763-.0098-.09494-.04213zm.188815.389609c-.008-.01393-.01235-.03022-.01172-.04752.0019-.04866.04278-.08675.09144-.08484.0073.000274.178629.0075.351055.08449.04435.01991.06452.07215.0447.116657-.01982.04451-.07206.06467-.116569.04485-.140288-.06269-.284579-.0694-.285916-.06923-.03145-.0014-.05832-.01899-.07299-.0444z" fill="#f4abba" stroke-width=".176758"/><path d="m19.3456 18.291c-.0025-.0043-.0047-.0089-.0065-.01378-.01676-.04564.0066-.09645.05227-.11345l.04432-.0162c.341967-.124978.637442-.232912.576802-.744487-.0058-.04851.0289-.09241.07742-.09817.04843-.0059.09256.02881.09808.07726.0772.650193-.34915.806132-.691664.931222l-.04362.016c-.04089.01544-.08595-.0018-.107074-.0384zm.811664-.122049c-.01246-.02158-.01206-.04917.003-.07089.02091-.03024.06212-.0377.0922-.0167.0079.0055.194964.13583.275727.267586.01394.0344.0092.07207-.02185.09119-.03125.01906-.07198.0093-.09119-.02185-.0661-.107771-.236367-.226631-.238104-.227873-.0084-.006-.01506-.01335-.01974-.02146zm-.0725.641915c-.0048-.0083-.0083-.01724-.0101-.02703-.0417-.211866-.190321-.368533-.191753-.369952-.03405-.03565-.03263-.09117.0025-.124717.03519-.03379.09084-.03285.124692.0021.0076.0079.185797.194189.237925.458408.0095.04797-.02166.09435-.06963.103881-.03805.0073-.07525-.01085-.09363-.04269zm-1.64078-2.69449c-.02439-.04225-.0099-.09634.03235-.120728.0066-.0038.664781-.385649.940342-.692106.03266-.03641.08855-.03929.12472-.0067.03623.03235.0392.0884.0065.124808-.294499.327391-.9553.710742-.983466.727004-.04201.02446-.09609.01-.120486-.03228z" fill="#f7dae2" stroke-width=".176758"/><path d="m16.1976 16.7906c-.02033-.03521-.01422-.08119.01718-.109522.01419-.01289.352075-.316752.668586-.348658.283287-.02865.45588.07091.607965.158634.181121.10443.311885.179969.605925.04021.04404-.02094.09611-.0018.117746.04203.02094.04404.0022.09672-.04203.117745-.377811.179554-.577308.06451-.77008-.04667-.141665-.08169-.275221-.158888-.50175-.135867-.258415.02612-.564307.300902-.567539.303789-.0362.03274-.09204.03007-.124777-.0061-.0044-.0052-.0081-.0102-.01123-.01556zm.598999 2.18748c-.01538-.02664-.01638-.06055.000195-.0891.02448-.04209.07874-.05628.120925-.03165.0035.0021.331911.191675.590326.165553.268802-.02722.336478-.126708.439027-.277149.09453-.138873.212439-.311854.513109-.454626.04395-.02109.09719-.001.117657.04188.02094.04404.0022.09672-.04203.117745-.257306.122431-.351557.260733-.442823.394658-.111502.16357-.216577.318121-.567164.353577-.316269.03197-.682099-.179921-.697441-.188819-.01372-.0082-.02444-.01936-.03178-.03207z" fill="#d84864" stroke-width=".176758"/><path d="m17.403 18.4011c-.01264-.02189-.0157-.04911-.0064-.07469.03702-.100973.148052-.182631.270207-.19907.113281-.01519.21399.02667.276957.115229.08631.121208.270812.16327.345586.126631.04393-.02148.09799-.0035.118351.04025.0214.04378.0034.0968-.04025.118351-.166369.08197-.442222-.007-.567754-.182667-.02449-.03464-.0613-.0489-.109307-.04262-.06293.0084-.115271.05063-.127791.0848-.01681.04583-.06759.06923-.113334.05258-.0204-.0074-.03621-.02135-.04628-.0388zm.0529 1.54104c-.0033-.0057-.006-.01183-.0079-.01829-.01437-.04681.01196-.0963.0587-.110431.02816-.0085.07328-.05088.101755-.112224.0246-.05319.03002-.106729.01447-.142857-.08367-.194775.12079-.584075.255154-.704511.03645-.03268.0923-.02961.124888.0067.03239.03702.02977.09221-.0067.124888-.118116.106158-.248367.416484-.210776.503159.03609.08407.03025.186024-.01674.287041-.04738.102466-.12815.181753-.210341.206959-.04038.01208-.08246-.0057-.102523-.04041zm-1.01845-.0141c-.01087-.01883-.01494-.04179-.0094-.06477.01126-.04732.05899-.07671.106458-.06555.170159.04055.300318-.118282.349265-.283085.04512-.151983.214824-.475289.451167-.504996.04843-.0059.09223.02859.09876.07667.0061.04834-.02818.0926-.07667.09876-.120889.0151-.260686.235005-.303627.379809-.08781.295821-.317685.46222-.559657.404759-.02473-.0057-.04451-.02124-.05627-.0416zm.38643-2.33556c-.0049-.0086-.0085-.01818-.0105-.02843-.0086-.04811.02326-.09405.07137-.102639.127629-.02287.167266-.131677.157319-.430658-.0057-.167936.06469-.316765.192716-.408233.11087-.07911.248716-.101959.359666-.05968.04588.0176.06849.06843.05111.113976-.01738.04555-.06843.06849-.113976.05111-.05552-.02122-.13166-.006-.193924.03849-.04655.0332-.123773.110853-.118644.258314.0063.193323.01838.552915-.302687.610515-.03792.0068-.07442-.01153-.09245-.04276zm-.789296.241394c-.0036-.0063-.0064-.01284-.0085-.02-.05632-.196893.07585-.414444.288315-.475266.116708-.0333.21362-.337028.191532-.42796-.06078-.247386.09898-.488212.280136-.54953.04626-.01568.09615.0082.112126.05528.01568.04626-.0091.09629-.05536.111973-.08025.02715-.20738.167899-.165044.340211.04016.164999-.08277.573557-.314702.639902-.130875.03739-.19303.165533-.166796.256928.01343.04695-.0138.09594-.06068.109125-.04009.01151-.08124-.0064-.101033-.04066zm1.7074-.732683c-.04914-.08511-.05409-.196552-.01204-.306141.04727-.122811.140171-.209716.242723-.226879.04837-.0081.09381.02462.101767.07269.008.04822-.02447.09373-.07269.101767-.03858.0064-.08348.05514-.106848.115776-.01944.05082-.02768.120685.0086.166893.03019.03992.02416.09382-.014.12422-.03817.0304-.09382.02416-.124219-.01401-.0086-.01097-.01639-.02238-.02328-.03432z" fill="#d84864" stroke-width=".176758"/><path d="m17.0724 17.1332c-.01688-.02924-.0279-.06247-.03018-.100345-.0028-.04877.03424-.09059.08292-.09359.04862-.0028.09066.03399.09359.08292.002.04375.07291.08669.141304.128439.100139.06138.214301.130789.230478.263096.0061.04834-.02818.0926-.07652.09867-.04864.0062-.0926-.02818-.09891-.07658-.0057-.04773-.07789-.09178-.147689-.13455-.06947-.04255-.151515-.09275-.194997-.168058zm-.190593 3.14034c-.01052-.01822-.01469-.0403-.0099-.06268.0102-.04773.05692-.07817.10489-.06791.01644.0034.05126-.0102.08303-.04284.03714-.03818.07105-.103887.05458-.173774-.01435-.06091-.05846-.105853-.104955-.153507-.0577-.05894-.123225-.125406-.129205-.227679-.003-.04868.03424-.09059.08292-.09359.04877-.0028.09072.03375.09359.08292.0023.03399.03118.06568.07902.114597.05552.05693.125339.127655.150489.236616.02811.118683-.0092.244936-.100004.33797-.0732.07472-.165372.109152-.246458.09208-.02559-.0054-.04603-.02139-.05805-.04221zm2.01509-.928697c-.01732-.03-.01609-.06888.0066-.09812.09528-.123792.136403-.243463.107268-.311956-.02438-.05532-.0944-.07265-.150204-.07881-.223758-.0245-.389055-.307268-.445109-.453495-.01746-.04544.0052-.09669.05079-.114233.04559-.01754.09726.0055.114233.0508.0594.154499.19098.329373.29947.341233.1859.02044.261392.110541.293515.185269.05585.131034.0085.309204-.130071.488811-.02975.03861-.08539.04583-.123757.01614-.0098-.007-.01719-.01599-.02276-.02564z" fill="#d84864" stroke-width=".176758"/><path d="m26.8188 12.101c-.04081.04169-.105381.08498-.160915.118355-.390044.23525-1.08457.242392-1.53642-.273294-.409575-.467295-.556206-1.03487-.26105-1.33003.295157-.295157.890718-.17826 1.33003.26105.439309.43931.920743.92599.628355 1.22392z" fill="#ea596e" stroke-width=".206131"/><path d="m26.1409 10.9267c-.235979-.23598-.839848-.709251-.963449-.832852-.218343-.218343-.532449-.258426-.701526-.08935-.08133.08133-.113107.19648-.101155.318041 0 0-.000437.293699.33422.487263.146485.08469.563931.04329.931383.337864.18307.146631.364391.583025.904127 1.12888.07346-.02682.113107-.05684.113107-.05684.295448-.295448-.0774-.853695-.516707-1.293z" fill="#dd2e44" stroke-width=".206131"/><path d="m26.6579 12.2194s.382902.253761.841161.191378c.534342-.07288.828916-.428087.828916-.428087.671063-.203476.774404-.92016.774404-.92016.431147-.492074.336989-.968697.336989-.968697.255073-.625586-.03644-1.15381-.03644-1.15381.05466-.698319-.528367-1.25715-.528367-1.25715s-.338884-.730968-1.29359-1.24491c-.157854-.0849759-.649781-.406952-1.12961-.522391-1.51237-.363808-2.47888.460736-2.61137.619465-.741026.88649-.315854 1.60317-.03644 2.05254-.145757.315708-.258135 1.05367.461465 1.45756.813758.570928 1.31181.655904 1.4819.826002s.46161.826001.910978 1.34825z" fill="#f4abba" stroke-width=".206131"/><path d="m26.2154 9.15994c.522245.156397.689136.357395.836787.534489.04693.056262.09212.108734.141821.157854.29574.282621.651823.394999.873373.380715.05684-.0038.0997-.05276.0962-.109608-.0035-.05655-.05218-.0997-.109463-.09635-.170827.01108-.46817-.085414-.717705-.323871-.04504-.042415-.08454-.090661-.125787-.140363-.158-.190358-.35448-.426483-.936194-.600371-.149254-.044602-.30157-.158146-.460153-.287577.141967-.78242.737236-.99231.88824-1.03312.0051.00568.0086.012681.01414.018219.0583.058303.131181.102612.214262.125642.0548.015159.111649-.016908.126808-.071712.01516-.054804-.01691-.111649-.07171-.126808-.146048-.04052-.238312-.19371-.205954-.34209.01224-.055679-.02288-.110629-.07856-.122581-.05553-.012098-.110484.023029-.122582.078563-.01953.08862-.01151.177969.01618.260175-.230149.078271-.779796.339612-.958931 1.06737-.21193-.174033-.432459-.34005-.681265-.393834-.160624-.03469-.352585-.042415-.534781-.012681-.07594-.107422-.328972-.525743-.01501-.956891.06472.00816.131473.0002915.195751-.027548.05233-.022592.07623-.083227.05364-.135554-.02259-.052326-.08323-.076231-.135554-.053638-.04577.019823-.09314.02026-.133367.00102-.03994-.018948-.06982-.055825-.08352-.103924-.01574-.055096-.07288-.086288-.127391-.070838-.05466.015596-.08643.072733-.07084.127391.01836.064424.05101.120395.09503.164413.0054.00539.01297.00802.01866.013118-.28233.42109-.158875.85355-.009 1.09696-.08221.0309-.157854.071858-.221987.125496-.04343.036439-.04941.101592-.01283.145173l.0063.00685c.03731.037314.09766.040812.139052.00612.192544-.161061.545857-.177094.792623-.124184.231024.049994.45578.236563.673394.417155.210764.175491.410159.34107.630397.406806zm2.09452 1.65608c-.05437.01618-.08556.07361-.06953.127828.005.0172.01414.03221.02594.04402.02565.02565.06413.03702.101592.02609.0077-.0022.771198-.23423.608242-1.06621-.01108-.055388-.06501-.092118-.120978-.081332-.05583.010932-.09226.065153-.08133.120978.126225.644535-.439747.821337-.463943.828625zm-1.84426-4.19793c.02274.022738.05553.034544.08949.02886.505338-.082644.697444.310607.70517.32766.02405.051452.08483.073753.136428.05014.05174-.023758.07434-.08483.05058-.136574-.088036-.191816-.394853-.531282-.925552-.444557-.05597.00904-.09416.062092-.08498.118208.0036.022301.01414.041541.02886.056262zm2.18052 1.63014c.35069.297926.263091.680537.258718.698319-.0093.036731.002.073753.02697.098677.01253.012535.02857.022155.04693.026819.0551.014284.111357-.018657.125787-.073607.0054-.021135.127974-.518601-.324453-.906896-.04314-.037022-.108152-.031775-.14532.011515-.03688.04329-.03105.110046.01137.145173zm-.795975 3.46332c-.03382-.0379-.101738-.04897-.145174-.01195-.0029.0023-.274022.227089-.61276.05597-.05072-.02565-.112669-.0054-.138322.04562-.0207.04052-.01151.08877.01909.119375.0076.0076.01632.01399.02638.01909.459132.232336.823523-.06967.838828-.08264.04329-.03717.04883-.102175.01195-.145465z" fill="#ea596e" stroke-width=".206131"/><path d="m24.9508 7.39571c-.04941.028423-.06632.091389-.0379.140801.0045.00802.0102.015159.01647.021426.03221.032212.08294.040083.124185.016325.131326-.075939.305214-.034982.388586.092993.03148.047517.09489.061072.142696.02988.04766-.031046.06107-.094887.02988-.142696-.04897-.07521-.11748-.131472-.194439-.169369.120686-.46059.44033-.714061.443828-.716684.04504-.034544.05364-.099114.01939-.144445-.03484-.044456-.09882-.05393-.144153-.019677-.01603.012243-.378384.29676-.517581.827459-.09256-.00481-.18686.01545-.270962.063986zm1.98943 1.26939c.114274.00437.208432.100572.20989.214262.000583.027985.01195.053055.03032.071421.01909.019094.04548.030609.07434.030026.05685-.0008745.102467-.047662.101592-.104507-.001-.066028-.01939-.127828-.04839-.183945.191232-.104945.239915-.187734.322996-.350981.01443-.028423.03061-.060052.0497-.095471l.0102-.018948c.123018-.229129.204059-.380424.468898-.443537.05539-.013118.08949-.068797.07638-.124184-.01268-.054659-.06836-.08964-.124185-.076376-.355062.084539-.469918.298801-.602848.546878l-.0102.018948c-.01968.036876-.03658.069526-.0516.099114-.07492.146922-.101155.195022-.279269.2851-.06384-.043727-.139635-.070838-.220675-.073753-.05685-.00204-.104654.042561-.106694.099406-.0019.056991.04285.104653.09955.106548zm1.36282.492657c.04241.042415.09416.076376.153044.097365.05364.01924.11267-.0086.13191-.062238.01938-.053493-.0095-.11267-.06209-.131764-.107568-.038771-.167911-.158874-.135116-.268338.01647-.054659-.01501-.112087-.0688-.128557-.05437-.01647-.112087.01443-.128411.068943-.02274.07521-.0223.152898-.0036.225194-.268483.111941-.426046.358415-.496884.501839-.02026.040666-.01093.088183.01953.118646.0077.00773.01662.014284.02711.019531.05102.025362.112816.00437.137886-.046642.0481-.097074.183944-.327952.411616-.412199.0052.00583.0085.012827.01385.01822zm-.675144 2.07353c.03731-.04285.03425-.109172-.0093-.145465-.158292-.137303-.172139-.375323-.03557-.532011.03717-.043.03134-.108588-.0099-.145465-.04285-.03731-.108006-.0328-.145465.0099-.08002.09197-.124768.20231-.138031.315271-.255074.0207-.447764-.09358-.54338-.169078-.08468-.06661-.143133-.140509-.210618-.226068-.06209-.07813-.132201-.166599-.233211-.261778l-.000874-.000583c.03877-.0446.08964-.115294.108588-.1975.01268-.055242-.02201-.110629-.0774-.123456-.05524-.012681-.110775.021863-.123456.077397-.01181.050869-.05816.104507-.0825.128849-.09984-.047079-.202164-.071858-.297052-.091826-.169396-.035845-.303055-.063976-.397359-.213085-.084976-.135408-.190213-.250847-.296906-.331304.02201-.05116.04271-.117917.04081-.187151-.0016-.056991-.04883-.101884-.105965-.100135-.0567.0016-.101738.048974-.100135.105965.000729.024341-.0066.051452-.01574.076668-.226942-.094596-.418175-.06457-.427357-.062967-.05597.00933-.09329.062092-.08439.117917.0036.022009.01399.041395.02886.056262.02259.022592.05524.034544.08906.029297.0019-.0004373.189046-.027548.390189.087017.10407.059177.219218.178114.307401.318186.02463.039209.05174.071275.08002.100426-.01822.04533-.05072.088328-.06399.10305-.03644.041104-.0344.103195.0039.141529l.0041.0038c.04227.0379.106986.03469.145174-.0073.0069-.0077.04708-.05378.08104-.118937.09154.042852.188026.063258.278687.082498.137739.029.268046.05641.374448.156105.08935.08323.152169.162664.212804.239332.06107.0771.123747.150275.203039.220821-.02361.05014-.0739.09839-.09241.112815-.0446.03498-.05291.09955-.01822.144736.0026.0035.0055.0067.0086.0098.036.036.09401.04067.135554.0087.0102-.0079.08323-.06603.134387-.151586.132784.07652.323579.145173.556207.127391.02434.101301.07506.197208.153044.275188.009.009.01851.01793.02813.02638.04271.03746.107568.03323.145173-.0096z" fill="#ea596e" stroke-width=".206131"/><ellipse transform="rotate(45)" cx="20.7572" cy="-9.26657" rx=".961268" ry="1.60526" fill="#f5f8fa" stroke-width=".120869"/><path d="m20.0308 9.32429c-.417079-.417079-.217086-1.27055.455368-1.94301.672455-.672454 1.52593-.872447 1.94301-.455368s.217086 1.27055-.455368 1.94301c-.672454.672454-1.52593.872447-1.94301.455368zm2.27018-2.27017c-.339475-.339475-1.09603-.135209-1.68661.455368-.590577.590577-.794843 1.34713-.455369 1.68661.339475.339475 1.09603.135209 1.68661-.455368.590577-.590577.794844-1.34713.455369-1.68661z" fill="#e1e8ed" stroke-width=".120869"/><circle transform="rotate(45)" cx="20.4872" cy="-9.26657" r=".599508" fill="#8899a6" stroke-width=".120869"/><circle transform="rotate(45)" cx="20.4872" cy="-9.26657" r=".430897" fill="#292f33" stroke-width=".120869"/><circle transform="rotate(45)" cx="20.6464" cy="-9.57563" r=".172359" fill="#f5f8fa" stroke-width=".120869"/><ellipse transform="rotate(45)" cx="22.9819" cy="-9.26657" rx=".961268" ry="1.60526" fill="#f5f8fa" stroke-width=".120869"/><path d="m21.6039 10.8974c-.417079-.417079-.217086-1.27055.455368-1.94301.672454-.672454 1.52593-.872447 1.94301-.455368s.217172 1.27064-.455283 1.94309c-.672454.672455-1.52601.872362-1.94309.455283zm2.27017-2.27017c-.339474-.339475-1.09611-.135123-1.68661.455368-.590577.590577-.794843 1.34713-.455368 1.68661s1.09612.135295 1.68669-.455282c.590577-.590578.794757-1.34722.455282-1.68669z" fill="#e1e8ed" stroke-width=".120869"/><circle transform="rotate(45)" cx="22.7119" cy="-9.26657" r=".599508" fill="#8899a6" stroke-width=".120869"/><circle transform="rotate(45)" cx="22.7119" cy="-9.26657" r=".430897" fill="#292f33" stroke-width=".120869"/><circle transform="rotate(45)" cx="22.8711" cy="-9.57563" r=".172359" fill="#f5f8fa" stroke-width=".120869"/><path d="m18.5825 19.4099.06298-2.18896 2.60174-2.60174c.253739-.253739.253739-.665605 0-.919344s-.665605-.253739-.919344 0l-2.60174 2.60174-2.18919.0632c-.178583-.02-.339008.108713-.359004.287295-.01103.102047.0262.198119.09354.265461.05033.05033.117446.08481.193752.09308.00023.00023 1.64494-.09308 2.10461.366589.459672.459672.366359 2.10438.366359 2.10438.0085.07654.04275.143417.09308.193752.06757.06757.163873.104575.26592.09354.178583-.02.307061-.180651.287295-.359004z" fill="#f4abba" stroke-width=".325037"/><path d="m18.525 19.5391c-.102047.01103-.198348-.02597-.26592-.09354-.05033-.05033-.08458-.117217-.09308-.193752 0 0 .09331-1.64471-.366359-2.10438-.459672-.459672-2.10438-.366359-2.10438-.366359-.07654-.0085-.143418-.04275-.193982-.09331-.06734-.06734-.104805-.163644-.09331-.265691.0021-.01724.0108-.03103.01517-.04735-.128019.03195-.229606.138131-.245005.277182-.01126.102277.02597.198349.09331.265691.05033.05033.117446.08481.193752.09308.00023.00023 1.64494-.09308 2.10461.366589.459672.459672.366359 2.10438.366359 2.10438.0085.07654.04275.143417.09308.193752.06757.06757.163873.104575.26592.09354.138821-.01563.245005-.117217.277183-.245005-.01632.0044-.03034.01333-.04735.01517z" fill="#ea596e" stroke-width=".325037"/><path d="m18.3368 14.4774c.424047-.796841-.104346-1.67964-2.34846-1.36523-.984618.137902-2.33261.698472-3.27194 1.66355-.906014.930836-1.88902 1.23123-2.4489 2.41902-.259485.550457.737314 2.07542 2.23906 2.43028.628602.148704 1.16044.122963 1.48819-.341306.537587-.761447.999327-1.22686 1.93867-1.99337 1.18802-.969678 1.89936-1.86627 2.4034-2.81296z" fill="#dd2e44" stroke-width=".325037"/><path d="m18.3368 14.4774c.424047-.796841-.104346-1.67964-2.34846-1.36523-.984618.137902-2.33261.698472-3.27194 1.66355-.906014.930836-1.88902 1.23123-2.4489 2.41902.914977-.204784 1.3381 1.41993 2.84008 1.77502.628602.148704 1.34224-.29419 1.59391-.563328.325218-.347742.702838-.683992 1.23238-1.11608 1.18756-.969678 1.8989-1.86627 2.40294-2.81296z" fill="#ea596e" stroke-width=".325037"/><path d="m20.3106 16.4751c.647448-.629061 1.41211-.03172 1.49416 1.93453.04574 1.09563-.623545 2.48246-1.54289 3.78195-.92486 1.30731-2.25124 2.42914-2.67621 2.62151-.515293.233054-1.76169-.707205-2.02072-1.96602-.167091-.811091.09377-1.68194.860046-2.25285 2.03451-1.51554 1.51577-1.81593 3.88561-4.11912z" fill="#dd2e44" stroke-width=".325037"/><path d="m20.3106 16.4751c.647448-.629061 1.41211-.03172 1.49416 1.93453.04574 1.09563-.623545 2.48246-1.54289 3.78195-.92486 1.30731-2.25124 2.42914-2.67621 2.62151.641702-.778225-.51874-1.17423-.983009-2.37581-.13951-.361073-.135373-.56103.436918-1.09241.764665-.709963-.09193-1.10229.400375-1.5946.912678-.912219 1.01197-1.46888 2.87065-3.27516zm.760527-1.79479c-.02942-.02942-.04666-.07056-.04436-.115607.00023-.0057.0016-.205703-.218574-.425886-.220183-.220183-.419681-.218804-.428184-.218574-.0832.0018-.153301-.0632-.156289-.146176-.003-.08297.05953-.152841.142498-.157208.03402-.0018.341077-.0087.656872.307061.315794.315795.308899.622856.30752.656871-.0044.08389-.07608.148244-.159966.143878-.03884-.0021-.07401-.01885-.09952-.04436zm-.689508.689508c-.02942-.02942-.04666-.07056-.04436-.115607.00023-.0057.0016-.205704-.218574-.425886-.220183-.220183-.419681-.218804-.428184-.218574-.0832.0018-.153301-.0632-.156289-.146176-.003-.08297.05953-.152841.142498-.157208.03402-.0018.341077-.0087.656872.307061.315794.315795.308899.622855.30752.656871-.0044.08389-.07608.148244-.159966.143877-.03884-.0021-.07401-.01885-.09952-.04436zm-.689508.689508c-.02942-.02942-.04666-.07056-.04436-.115607.00023-.0057.0016-.205704-.218574-.425886-.220183-.220183-.41968-.218804-.428184-.218574-.08297.0016-.153301-.0632-.156289-.146176-.003-.08297.05953-.152841.142498-.157208.03402-.0018.341077-.0087.656872.307061.315794.315795.308899.622855.30752.656871-.0044.08389-.07607.148244-.159966.143877-.03884-.0021-.07401-.01885-.09952-.04436zm-.689508.689508c-.02942-.02942-.04666-.07056-.04436-.115607.00023-.0057.0016-.205704-.218574-.425887-.220183-.220182-.41968-.218803-.428184-.218574-.0832.0018-.153301-.0632-.156289-.146175-.003-.08297.05953-.152841.142499-.157208.03402-.0018.341076-.0087.656871.307061.315794.315794.308899.622855.30752.656871-.0044.08389-.07607.148244-.159966.143877-.03884-.0021-.07401-.01885-.09952-.04436z" fill="#ea596e" stroke-width=".325037"/><path d="m20.7428 12.0759-2.09944-2.09944c-.08278-.08278-.08293-.216994 0-.299921.08293-.08293.217143-.08278.299921 0l2.09944 2.09944c.08293.08293.08293.216994 0 .299921-.08293.08293-.216994.08293-.299921 0z" fill="#664500" stroke-width=".212076"/><path d="m21.875 14.56c-.972-.972-2.77-2.785-4.692-6.106-.753.492-1.554 1.091-2.409 1.808 2.803 3.613 8.121 5.317 7.101 4.298zm-7.485 8.072c-1.041-1.041-3.03-3.05-5.105-6.846-.687.832-1.349 1.693-1.98 2.57 2.807 3.597 8.101 5.292 7.085 4.276zm9.301-.351c-3.581-2.008-5.49-3.91-6.502-4.921-1.02-1.022.692 4.315 4.317 7.114.311-.29 1.786-1.767 2.185-2.193zm-12.183 9.324c.895-.492 1.804-1.025 2.715-1.597-3.273-1.905-5.069-3.683-6.034-4.648-.922-.923.386 3.347 3.319 6.245z" fill="#d16c39" filter="url(#pathb)"/></svg>
