<?xml version="1.0" encoding="UTF-8"?>
<svg width="36" height="36" version="1.1" viewBox="0 0 36 36" xml:space="preserve" xmlns="http://www.w3.org/2000/svg"><path d="m21.1937 4.54608c1.14936-2.05333-3.18209-4.6199-3.18209-4.10666 0-.513242-4.60151 2.05333-3.45052 4.10666-1.15017-.513242-6.90186-2.05333-4.6007.513242 2.30035 2.56693 3.45052 2.56693 4.6007 3.08018 1.15017.513242 3.45134-.513604 3.45134-.513604s2.09781 1.02685 3.2488.513242c1.15017-.513242 2.09862-.513242 4.39897-3.07945 2.30035-2.56693-3.31631-1.02685-4.46648-.513605z" fill="#77b255" stroke-width=".999998"/><g><path d="m22.6608 6.36001c-1.49558-1.36325-3.109-2.17811-4.66078-2.17811-5.09858 0-10.877 8.71155-10.877 17.2219 0 .883754.071607 1.72128.183096 2.5298.959893 6.97305 5.82009 11.0664 10.6939 11.0664 5.43849 0 10.877-5.08589 10.877-13.5962 0-5.9198-2.7972-11.9293-6.21619-15.0438z" fill="#f19d00"/><path d="m22.6608 6.36001c2.63586 3.18967 4.62997 8.17405 4.62997 13.1004 0 8.16589-5.14118 13.046-10.2824 13.046-4.11603 0-8.22571-3.13529-9.70317-8.57378.9608 6.97396 5.821 11.0673 10.6948 11.0673 5.43849 0 10.877-5.08589 10.877-13.5962 0-5.9198-2.7972-11.9293-6.21619-15.0438z" fill="#e77f00"/><path transform="matrix(1.281 0 0 1.281 -5.08352 -5.81099)" d="m12.5355 11.6495c-.514377.750541-.984855 1.58364-1.39317 2.4741 2.812.721328 5.07579.139768 6.24796-.315595 1.37408-.533803 1.8769-1.09903 1.39662-1.08406-.488064.01494-1.23956.03064-2.2169-.07471-.83981-.09052-2.2846-.313259-4.0345-.999735zm-3.00048 9.98969c.016711.546436.066956 1.07085.137266 1.58074.071552.51978.170861 1.01906.295287 1.49702 3.36106.309158 6.26263-.431134 7.73527-.923739 1.72952-.578532 2.62711-1.20882 1.8647-1.16334-.77199.04604-1.91313.09855-3.45953.02592-1.2438-.05842-3.68152-.230947-6.573-1.0166zm13.7804 7.97376c.755679-.72761 1.41822-1.62242 1.94118-2.67024-2.19618.680105-4.0609.848355-5.10814.930584-1.10918.08709-2.58159.14201-3.07683.166191-.769385.03727.10673.382346 1.40577.734902.886202.240513 2.80762.758889 4.83802.83856zm2.85091-11.6306c-.188806-.90979-.449668-1.80012-.768769-2.65204-2.06114 1.21976-3.75252 1.66099-4.81914 1.87009-1.22707.240555-2.27699.282704-2.90454.304939-.624135.02123.07449.594166 1.7412 1.02459 1.41581.365631 3.84808.699915 6.75125-.547583z" fill="#d67503" stroke-width=".780643"/></g></svg>
