<svg version="1.1" viewBox="0 0 36 36" xmlns="http://www.w3.org/2000/svg"><path d="M36 32c0 2.209-1.791 4-4 4H4c-2.209 0-4-1.791-4-4V4c0-2.209 1.791-4 4-4h28c2.209 0 4 1.791 4 4v28z" fill="#3B88C3"/><path d="m24.1855 3.65039c-.39021.0370276-.839571.495876-1.33594 1.6543-.625758 1.45971-.953728 2.47038-1.11914 3.22656-1.18433.011699-2.53726.483254-4.15039 1.54297.008749-.003219.016625-.006526.025391-.009766 1.59927 2.76336 3.09551 4.27129 3.9043 5.08008.848729.847897-3.57586-.569838-5.9082-3.57617.000598-.001375.001355-.002533.001954-.003906-.766776.642809-1.58458 1.39318-2.46289 2.27148-.728225.72832-1.42891 1.51534-2.10352 2.33203 1.72581 3.15607 3.38025 4.82751 4.24609 5.69336.844882.844882-3.5558-.563494-5.89258-3.55273-4.24076 5.89593-6.82255 12.6071-5.66406 13.7656.859556.859556 4.78118-.344072 9.1543-2.75-2.43774-2.41132-3.52458-5.96096-2.75781-5.19336.802965.802966 2.29611 2.28206 5.01953 3.86719 2.11063-1.32475 4.22253-2.88905 6.06055-4.60352-3.01632-2.32901-4.44053-6.77032-3.5918-5.91992.841849.841018 2.43003 2.42146 5.4082 4.0918 2.73566-2.92651 4.00464-5.15637 4.2168-6.98438.771275-.143951 1.86934-.486133 3.64258-1.24609 4.11883-1.76569-.51874-2.87305-1.69531-2.87305 2.94143-1.76569 3.66836-6.92422 3.08008-6.33594.588285-.588286-4.7078.0010993-6.47266 2.94336 0-.845661-.608267-3.51455-1.60547-3.41992z" fill="#fff" stroke-width=".832089"/></svg>
