<svg version="1.1" viewBox="0 0 36 36" xmlns="http://www.w3.org/2000/svg"><path d="m4.21484 0c4.08059 9.93532 6.18102 10.0189 8.27539 12.1133 2.15064 2.15064 6.45312-2.15039 6.45312-2.15039s3.92206 4.30255 6.07422 2.15039c2.09448-2.09448 3.84004-2.17928 7.90234-12.1133h-28.7051z" fill="#3f7123" stroke-width="2.15097"/><path d="m17.8652 5.46289c-9.5989.0013082-15.3359 5.05789-15.3359 24.9961.0001322 1.82378.0885952 3.67726.248047 5.54102h30.1758c.159266-1.86322.248047-3.71771.248047-5.54102 0-19.9382-5.73704-24.9948-15.3359-24.9961z" fill="#f4900c" stroke-width="1.94566"/><path d="m3.73633 17.4961c-.377364 1.62988-.669616 3.46352-.869141 5.52148 9.27648 1.0604 19.4285-3.67123 16.4805-3.66992-2.8107 0-8.03081-.020078-15.6113-1.85156zm29.4004 9.58203c-8.08078 2.05928-13.5907 2.069-16.5156 2.07031-2.9524-.0026 7.2393 4.74346 16.5273 3.66211.030359-.786794.027311-4.65238-.011719-5.73242z" fill="#d67503" stroke-width="1.94566"/><path d="m20.654 21.159-1.598-2.596c-.291-.542-.673-.813-1.057-.817-.383.004-.766.275-1.057.817l-1.598 2.596c-.587 1.093.873 1.716 2.654 1.716s3.243-.624 2.656-1.716zm9.508 3.192c-.045-.075-.126-.121-.214-.121h-.841c-.068 0-.134.028-.181.077l-2.231 2.334-2.698-2.169c-.051-.041-.117-.058-.185-.053-.066.007-.127.041-.168.094l-2.408 3.062-3.054-3.266c-.013-.014-.033-.017-.048-.028-.015-.01-.025-.027-.043-.034-.006-.002-.013 0-.019-.002-.024-.007-.047-.005-.072-.005s-.048-.002-.072.006c-.006.002-.013-.001-.02.002-.018.007-.027.024-.043.034s-.035.013-.048.027l-3.053 3.266-2.409-3.062c-.041-.053-.102-.087-.168-.094-.066-.006-.133.012-.185.053l-2.698 2.169-2.23-2.334c-.047-.049-.112-.077-.181-.077h-.841c-.087 0-.169.046-.214.121s-.048.168-.007.245l2.754 5.219c.034.064.093.11.164.127s.145.002.203-.04l2.034-1.458 3.004 3.633c.043.053.106.085.174.09l.019.001c.062 0 .121-.022.167-.063l3.65-3.269 3.65 3.268c.046.041.105.063.167.063l.019-.001c.068-.005.131-.037.174-.09l3.005-3.633 2.034 1.458c.06.043.133.06.203.04.07-.017.13-.062.163-.126l2.755-5.219c.04-.077.038-.17-.008-.245zm-2.186-8.93c.129 2.127-.784 3.806-3.205 3.953-2.42.146-3.529-1.411-3.658-3.537s1.232-5.12 3.127-5.234c1.896-.116 3.608 2.691 3.736 4.818zm-19.952 0c-.129 2.127.784 3.806 3.205 3.953 2.42.146 3.529-1.411 3.658-3.537s-1.232-5.12-3.127-5.234-3.608 2.691-3.736 4.818z" fill="#642116"/></svg>
