<?xml version="1.0" encoding="UTF-8"?>
<svg width="36" height="36" version="1.1" viewBox="0 0 36 36" xml:space="preserve" xmlns="http://www.w3.org/2000/svg"><path d="m11.1353 36h6.07209c.752502-.573105 1.26336-1.08398 1.26336-1.08398s.465951.510939 1.16025 1.08398h5.77898c1.66586-1.417 3.42513-2.93826 6.82248-11.4316 4.13889-10.3501-5.96767-4.13976-8.03711-2.07031 2.06798-8.27924-5.72461-18.628-5.72461-16.5586 0-.19401-.07294-.279918-.203125-.267578-1.25844.119283-7.88262 9.32311-6.00586 16.8262-2.06944-2.06944-12.4177-8.28032-8.27734 2.06836 3.39587 8.49208 5.39833 10.0168 7.15088 11.4336z" fill="#67a342" stroke-width=".999999"/><path d="m5.95877 36h24.6711c-2.65462-5.5111-6.87832-7.29408-12.335-7.29492-5.45668.000822-9.68099 1.78381-12.3362 7.29492z" fill="#d87d00" stroke-width=".999999"/><path d="m12.0268 21.246c.0541.421297.131623.839243.234877 1.25204-.177642-.177641-.416286-.385799-.701532-.611379-1.43048 1.94076-3.11106 3.99416-5.20667 5.78911-.288007.246739-.529701.482137-.727071.705399.472869 1.00855.914979 1.86838 1.33105 2.60778.472512.04329 1.02111.04408 1.63821-.000679 3.232-.233 6.25495-.964844 9.87695-.964844s6.645.731844 9.875.964844c.34161.02477.662216.03558.960534.03295.464997-.863082.969615-1.89132 1.52413-3.13042-.07684-.07068-.157653-.142368-.24248-.215036-2.1834-1.8705-3.91603-4.0213-5.38459-6.03283-.421619.319215-.769861.615022-1.00994.855098.150906-.604157.249304-1.21933.302055-1.8399-2.38068-3.35549-4.07373-6.09564-6.02471-6.09564-2.06372 0-3.8396 3.06636-6.44581 6.68351z" fill="#5c913b"/><path d="m12.0586 21.4749c.05131.343836.118587.685209.203113 1.02313-.155089-.155089-.356675-.333438-.595175-.526333-.976488 1.22202-2.05581 2.45386-3.26811 3.5654-3.844 3.524 5.03822 4.315 10.0742 0 5.034 4.316 13.9172 3.524 10.0742 0-1.29161-1.18426-2.43214-2.50509-3.45815-3.8051-.369388.285081-.675825.548447-.893413.766034.128432-.514182.218832-1.03635.275427-1.56302-2.49005-3.26288-4.28987-6.18307-5.99808-6.18307-1.80053 0-3.70506 3.24952-6.41405 6.72296z" fill="#3e721d"/><path d="m12.0067 18.212c-.148884 1.44129-.09348 2.89297.254974 4.28603-.477561-.477561-1.396-1.17567-2.47552-1.83992-.442745.441806-.904696.873435-1.38776 1.28719-3.844 3.292 5.03822 4.031 10.0742 0 5.034 4.032 13.9172 3.292 10.0742 0-.555274-.475604-1.08263-.974826-1.58496-1.48598-1.19723.720599-2.24107 1.51318-2.7666 2.03871.398815-1.59667.430896-3.27031.22286-4.91701-2.46286-3.02286-4.24935-5.71385-5.94552-5.71385-1.812 0-3.72932 3.07595-6.46591 6.34483z" fill="#5c913b"/><path d="m12.0824 17.598c-.168966 1.18325-.207964 2.3802-.06744 3.55232 1.84766.05233 4.5179-.593849 6.4577-2.14638 1.77563 1.42141 4.16454 2.08302 5.9733 2.14422.170007-1.35742.110559-2.74808-.105418-4.11214-2.58555-2.8705-4.27716-5.90122-5.86788-5.90122-1.69341 0-3.50507 3.44091-6.39026 6.4632zm14.9011 2.84837c-.293538.176192-.578014.35682-.848076.53691.412767-.119612.710608-.300605.848076-.53691z" fill="#3e721d"/><path d="m13.0176 13.8739c-.515457 1.46108-.897908 3.01791-1.03407 4.5824 1.84871.06049 4.53833-.584422 6.48917-2.14579 1.79514 1.43748 4.21711 2.09817 6.03271 2.14676-.13132-1.82294-.581928-3.63548-1.18199-5.29824-2.03132-2.46154-3.47856-4.71571-4.85071-4.71571-1.50273 0-3.09858 2.70908-5.4551 5.43058z" fill="#5c913b"/><path d="m13.5255 12.5605c-.401628.95497-.757133 1.96754-1.0301 3.00938 1.42219.295342 4.11519-.160972 5.97528-1.64998 1.70421 1.3638 4.10686 1.86128 5.59155 1.70838-.307681-1.30393-.739917-2.5629-1.22927-3.72156-1.87926-2.18045-3.15728-4.33643-4.36228-4.33643-1.32485 0-2.73879 2.60949-4.94518 4.99021z" fill="#3e721d"/><path d="m13.1085 13.6209c1.49383.08319 3.74343-.430521 5.36221-1.72636 1.49862 1.19928 3.53734 1.72864 5.01699 1.73494-1.73989-5.15167-5.01699-9.03203-5.01699-7.69002 0-.19401-.07294-.279918-.203125-.267578-.769847.072971-3.54774 3.5457-5.15908 7.94902z" fill="#5c913b"/><path d="m14.6475 10.2305c1.12647-.0029 2.68225-.405477 3.8252-1.32031 1.06134.849864 2.47915 1.25765 3.57811 1.31361-1.67597-3.29586-3.58006-5.30727-3.58006-4.28431 0-.19401-.07294-.279918-.203125-.267578-.556741.052772-2.16368 1.8836-3.62012 4.55859z" fill="#3e721d"/><path d="m15.2941 9.11109c1.02774-.123571 2.2418-.529264 3.17856-1.27906.870925.697029 1.98189 1.0965 2.95973 1.2483-1.49297-2.59719-2.96168-4.0393-2.96168-3.14088 0-.19401-.07294-.279918-.203125-.267578-.475101.045033-1.71498 1.38489-2.97348 3.43921z" fill="#5c913b"/><circle cx="16.5" cy="12.042" r="1.5" fill="#ffcc4d"/><circle cx="20" cy="25" r="2" fill="#ffcc4d"/><circle cx="22.5" cy="15.5" r="2.5" fill="#dd2e44"/><circle cx="10" cy="26" r="2" fill="#dd2e44"/><circle cx="14" cy="19" r="2" fill="#a6d388"/><circle cx="26" cy="23" r="2" fill="#a6d388"/><path d="m19.379 1.679c.143.275.512.549.817.609l1.379.269c.305.06.377.29.159.512l-.983 1.004c-.217.222-.365.657-.326.965l.17 1.394c.038.309-.159.448-.438.31l-1.257-.625c-.279-.138-.738-.144-1.02-.013l-1.274.594c-.282.13-.476-.014-.43-.322l.205-1.39c.045-.307-.091-.745-.302-.973l-.959-1.027c-.212-.227-.135-.457.172-.508l1.385-.234c.307-.051.681-.316.832-.588l.681-1.229c.151-.272.394-.269.537.006z" fill="#ffac33"/></svg>
