<svg viewBox="0 0 8.202 8.202" xmlns="http://www.w3.org/2000/svg"><path d="m5.430 1.438c.620-.372.774-1.460.649-1.336.124-.124-.993 0-1.365.620 0-.248-.248-1.241-.620-.372-.372.869-.248.993-.248 1.241 0 .248.496.248.496.248s-.021.474.226.474c.248 0 .350.102 1.219-.270.869-.372-.109-.606-.357-.606z" fill="#77b255"/><path d="m3.907 4.012c-1.337 1.337-3.538 2.296-3.848 1.986-.310-.310.649-2.511 1.986-3.848 1.337-1.337 2.024-1.327 2.607-.745.582.582.592 1.270-.745 2.607z" fill="#f4900c"/><path d="m3.811 2.426c-.170-.170-.486-.489-.823-1.072-.132.086-.272.191-.423.317.492.634 1.425.933 1.246.754zm-1.314 1.417c-.182-.182-.532-.535-.896-1.202-.120.146-.236.297-.347.451.492.631 1.422.929 1.244.750zm1.633-.061c-.628-.352-.964-.686-1.141-.864-.179-.179.121.757.758 1.249.054-.050.313-.310.383-.385zm-2.139 1.637c.157-.086.316-.179.476-.280-.574-.334-.890-.646-1.059-.816-.161-.162.067.587.582 1.096z" fill="#d67503"/><path d="m7.391 3.432c.620-.372.774-1.460.649-1.336.124-.124-.993 0-1.365.620 0-.248-.248-1.241-.620-.372-.372.869-.248.993-.248 1.241 0 .248.496.248.496.248s-.021.474.226.474c.248 0 .350.102 1.219-.270.869-.372-.109-.606-.357-.606z" fill="#77b255"/><path d="m5.868 6.006c-1.337 1.337-3.538 2.296-3.848 1.986s.649-2.511 1.986-3.848c1.337-1.337 2.024-1.327 2.607-.745.582.582.592 1.270-.745 2.607z" fill="#f4900c"/><path d="m5.771 4.420c-.170-.170-.486-.489-.823-1.072-.132.086-.272.191-.423.317.492.634 1.425.933 1.246.754zm-1.314 1.417c-.182-.182-.532-.535-.896-1.202-.120.146-.236.297-.347.451.492.631 1.422.929 1.244.750zm1.633-.061c-.628-.352-.964-.686-1.141-.864-.179-.179.121.757.758 1.249.054-.050.313-.310.383-.385zm-2.139 1.637c.157-.086.316-.179.476-.280-.574-.334-.890-.646-1.059-.816-.161-.162.067.587.582 1.096z" fill="#d67503"/><path d="m5.723.337c-.082-.008-.177.104-.282.349-.372.869-.248.993-.248 1.241 0 .098.078.157.173.193.005.049.010.096.010.148 0 .177.253.227.397.241.030.084.065.153.104.156.015.139.064.325.220.325.248 0 .350.102 1.219-.270.894-.499-.226-.747-.474-.747.620-.372.609-1.043.513-1.209-.096-.166-.803-.001-1.235.516-.038-.100-.168-.334-.128-.592-.057-.194-.152-.341-.271-.353z" fill="#1ea609"/><path d="m5.270 1.369c-.461-.027-1.043.282-1.878 1.117-.668.668-1.197 1.496-1.511 2.222-.157.363-.259.699-.298.975-.038.275-.012.490.088.611.100.120.127.204.395.180.267-.023.777-.155 1.140-.303.725-.295 1.564-.813 2.232-1.481 1.212-1.212 1.315-1.890.890-2.440-.058-.184-.171-.350-.329-.509-.218-.218-.451-.356-.728-.372z" fill="#d67503"/><path d="m6.861 1.967c.620-.372.774-1.460.649-1.336.124-.124-.993 0-1.365.620 0-.248-.248-1.241-.620-.372-.372.869-.248.993-.248 1.241 0 .248.496.248.496.248s-.021.474.226.474c.248 0 .350.102 1.219-.270.869-.372-.109-.606-.357-.606z" fill="#77b255"/><path d="m5.338 4.541c-1.337 1.337-3.538 2.296-3.848 1.986s.649-2.511 1.986-3.848c1.337-1.337 2.024-1.327 2.607-.745.582.582.592 1.270-.745 2.607z" fill="#f4900c"/><path d="m5.242 2.955c-.170-.170-.486-.489-.823-1.072-.132.086-.272.191-.423.317.492.634 1.425.933 1.246.754zm-1.314 1.417c-.182-.182-.532-.535-.896-1.202-.120.146-.236.297-.347.451.492.631 1.422.929 1.244.750zm1.633-.061c-.628-.352-.964-.686-1.141-.864-.179-.179.121.757.758 1.249.054-.050.313-.310.383-.385zm-2.139 1.637c.157-.086.316-.179.476-.280-.574-.334-.890-.646-1.059-.816-.161-.162.067.587.582 1.096z" fill="#d67503"/></svg>
