<svg width="36" height="36" version="1.1" viewBox="0 0 36 36" xmlns="http://www.w3.org/2000/svg"><path d="m5.29297 1.89844c-.721746-.167787-1.22661-.159689-1.35938.0761719-1.57739 2.80131 1.45117 10.5488 1.45117 10.5488-.788694 1.51408-1.08407 3.82176-1.36719 6.29687-.311257 2.71339.307314 4.87608.578125 5.35352.30774.542501 1.86743 2.28954 3.94336 3.78516 3.15389 2.27112 7.88355 3.0293 9.46094 3.0293s6.30704-.757297 9.46094-3.0293c2.07592-1.49562 3.63562-3.24266 3.94336-3.78516.270811-.477437.890456-2.64013.580078-5.35352-.284879-2.47423-.580448-4.7828-1.36914-6.29687 0 0 3.02856-7.74752 1.45117-10.5488-.531071-.943443-7.03352 1.757-9.42773 4.78516 0 0-2.27347-.755859-4.63867-.755859s-4.63867.755859-4.63867.755859c-1.79566-2.27112-5.90312-4.35797-8.06836-4.86133z" fill="#ffcc4d" stroke-width=".879257"/><path d="m4.24805 2.82812c-.879257 2.63777 1.75 8.81641 1.75 8.81641.633065-1.75851 3.98047-4.06445 3.98047-4.06445-1.02873-2.84088-5.55462-5.27863-5.73047-4.75195z" fill="#f18f26" stroke-width=".879257"/><path d="m8.16797 6.46484c-.436084-.180742-.736328-.176052-.736328.134766 0 .879257 1.05629 5.67418 1.93555 4.79492.879258-.879257 1.10316-.632462 1.98242-1.51172.659443-.659443-1.87339-2.87574-3.18164-3.41797z" fill="#ffcc4d" stroke-width=".879257"/><path d="m31.752 2.82812c-.175852-.526675-4.70174 1.91107-5.73047 4.75195 0 0 3.3474 2.30594 3.98047 4.06445 0 0 2.62926-6.17864 1.75-8.81641z" fill="#f18f26" stroke-width=".879257"/><path d="m27.832 6.46484c-1.30825.542227-3.84108 2.75853-3.18164 3.41797.879257.879256 1.10316.632462 1.98242 1.51172.879257.879257 1.93555-3.91566 1.93555-4.79492 0-.310817-.300244-.315508-.736328-.134766z" fill="#ffcc4d" stroke-width=".879257"/><path d="m12.7246 16.043c-.9707 0-1.75781.787113-1.75781 1.75781 0 .971579.787112 1.75781 1.75781 1.75781s1.75977-.786234 1.75977-1.75781c0-.96982-.789066-1.75781-1.75977-1.75781zm10.5508 0c-.971579 0-1.75977.787113-1.75977 1.75781 0 .971579.788187 1.75781 1.75977 1.75781.9707 0 1.75781-.786234 1.75781-1.75781 0-.96982-.786233-1.75781-1.75781-1.75781z" fill="#292f33" stroke-width=".879257"/><path d="m6.30273 21.3477c-1.481.09419-2.42199.369718-2.49805.392578-.232124.06946-.364383.313872-.294922.546875.070341.233003.315825.364189.548828.292969.03517-.0097 3.50516-1.01938 7.7168.296875.04308.01314.08778.01953.130859.01953.187281 0 .359939-.121311.417969-.308593.07298-.232123-.05694-.477802-.289063-.550782-2.23155-.69681-4.25142-.783642-5.73242-.689452zm23.3945 0c-1.481-.09419-3.50087-.0074-5.73242.689453-.232124.07298-.362041.318659-.289063.550782.05803.187282.230688.308593.417969.308593.04308 0 .08778-.0064.130859-.01953 4.21164-1.31625 7.68163-.306546 7.7168-.296875.233003.07122.478488-.05997.548828-.292969.06946-.233003-.0628-.477413-.294922-.546875-.07606-.02286-1.01705-.298387-2.49805-.392578zm-16.498 2.57422c-5.82772-.452817-9.22084 2.1774-9.36328 2.28906-.190798.150352-.222618.426388-.072266.617187.087047.109909.215573.167969.345703.167969.09496 0 .189713-.0322.271484-.09375.031653-.0255 3.26959-2.52224 8.75-2.10547.246192.03605.454197-.162501.472657-.404297s-.162501-.452243-.404297-.470703zm9.60156 0c-.241796.01846-.422761.228907-.404297.470703.01934.241796.226465.440347.472657.404297 5.48041-.416768 8.71835 2.07997 8.75 2.10547.08177.06155.176525.09375.271484.09375.130131 0 .258657-.05806.345703-.167969.150353-.190799.118535-.466835-.07227-.617187-.142439-.111666-3.53557-2.74188-9.36328-2.28906z" fill="#fee7b8" stroke-width=".879257"/><path d="m18.0098 23.6152c-.242675 0-.439454.196779-.439454.439454v2.08789c-.712198.101115-1.18441.38505-1.59766.652344-.499418.322688-.929719.603516-1.83008.603516-.423802 0-.885744-.09143-1.37109-.273438-.226848-.08353-.480045.03008-.564453.257812-.08529.227728.03096.48112.257813.566407.583827.217177 1.14735.328125 1.67578.328125 1.15974 0 1.77156-.395955 2.31055-.744141.460731-.298068.861805-.555077 1.625-.558594.872223.007 1.19388.245289 1.5957.546875.47304.35434 1.00788.75586 2.31445.75586.528434 0 1.09391-.110948 1.67773-.328125.227728-.08529.343101-.33868.257813-.566407-.08529-.226848-.336725-.343979-.564453-.257812-.48535.181127-.946413.273437-1.37109.273438-1.0129 0-1.3721-.269701-1.78711-.580079-.396545-.297189-.840848-.629657-1.75-.707031v-2.05664c0-.242675-.196778-.439454-.439453-.439454z" fill="#67757f" stroke-width=".879257"/><path d="m16.7695 22.0273c-.562724 0-1.02344.45876-1.02344 1.02148 0 .561846.460713 1.02344 1.02344 1.02344h.207031v.302734c0 .561845.460714 1.02344 1.02344 1.02344.562724 0 1.02344-.460714 1.02344-1.02344v-.302734h.207031c.561845 0 1.02344-.460713 1.02344-1.02344 0-.562724-.461592-1.02148-1.02344-1.02148z" fill="#e75a70" stroke-width=".879257"/><path d="m18.0195 7.13477c-.242675 0-.439453.196778-.439453.439453v7.28516c0 .242675.196778.439453.439453.439453.243554 0 .439453-.195899.439453-.439453v-7.28516c0-.242675-.196778-.439453-.439453-.439453zm-3.94336 1.48633c-.213657.115183-.293992.381164-.179688.595703.01055.018464 1.02539 1.94371 1.02539 4.25 0 .242674.196778.439453.439453.439453s.440332-.196779.439453-.439453c0-2.53402-1.08231-4.57985-1.12891-4.66602-.115183-.213659-.382923-.29487-.595703-.179687zm7.84766 0c-.21278-.114304-.4814-.034851-.595703.179687-.0466.086167-1.13086 2.132-1.13086 4.66602 0 .242674.198731.439453.441406.439453s.439453-.196779.439453-.439453c0-2.30541 1.01484-4.23154 1.02539-4.25.114304-.214539.03397-.4814-.179688-.595703z" fill="#f18f26" stroke-width=".879257"/><path d="m14.1726 36h1.11293c.86841-.470819 1.87346-1.63683 2.18124-2.16992.01269.744851.205773 1.47973.502609 2.16992h5.03988c.07461-1.18635-.06994-2.44151-.647953-3.48242 1.0767.621634 6.00669 2.0334 3.16992-1.75781-1.11123-1.48563-1.91643-2.35579-2.55078-2.90039-.342266.07995-.674821.121094-.994141.121094-1.30658 0-1.84141-.399566-2.31445-.753907-.116089-.08713-.225871-.167821-.34375-.240234-.509449.481631-.878906 1.11914-.878906 1.11914s-2.00488-1.28254-2.62695-.205078c-.621635 1.0767-1.32214 1.26198-1.88281 5.96289-.141148 1.18444-.02682 1.83838.233175 2.13672z" fill="#77b255" stroke-width=".879257"/><path d="m18.0762 26.6816c-.763195.0035-1.16427.258572-1.625.55664-.538984.348186-1.15081.742189-2.31055.742188-.402568 0-.826353-.06475-1.26367-.191407 1.88654 2.9709 4.07256 3.44816 6.67969 2.75 1.71359-.45943 3.01646-1.26683 3.75-2.76562-.457573.137852-.900192.207031-1.32031.207031-1.30658 0-1.84141-.399567-2.31445-.753907-.401819-.301587-.723479-.537886-1.5957-.544921z" fill="#f4900c" stroke-width=".879257"/></svg>
