<svg version="1.1" viewBox="0 0 36 36" xmlns="http://www.w3.org/2000/svg"><path d="M36 18c0 9.941-8.059 18-18 18S0 27.941 0 18 8.059 0 18 0s18 8.059 18 18" fill="#f9c85d"/><circle cx="6.93" cy="21" r="4" fill="#ed845b" filter="url(#pathc)"/><circle cx="28.93" cy="21" r="4" fill="#ed845b" filter="url(#patha)"/><path d="M27.335 23.629c-.178-.161-.444-.171-.635-.029-.039.029-3.922 2.9-8.7 2.9-4.766 0-8.662-2.871-8.7-2.9-.191-.142-.457-.13-.635.029-.177.16-.217.424-.094.628C8.7 24.472 11.788 31 18 31s9.301-6.528 9.429-6.743c.123-.205.084-.468-.094-.628z" fill="#be3f03" filter="url(#pathb)"/><ellipse cx="11.5" cy="11.5" rx="2.5" ry="3.5" fill="#664500"/><ellipse cx="25.5" cy="11.5" rx="2.5" ry="3.5" fill="#664500"/><path d="m18.6147 25.2856c-4.23593 4.23593-11.2098 7.27646-12.1933 6.29299-.983471-.98347 2.05761-7.95732 6.29299-12.1933 4.23593-4.23593 6.4137-4.20645 8.26048-2.36022 1.84623 1.84679 1.87572 4.02455-2.36022 8.26048z" fill="#f4900c" stroke-width=".556262"/><path d="m18.3104 20.2603c-.540687-.540686-1.54084-1.54919-2.60998-3.39653-.418865.27368-.86443.606881-1.34003 1.00572 1.5592 2.00977 4.5174 2.95764 3.95001 2.39081zm-4.16362 4.49014c-.579068-.579068-1.68547-1.6966-2.83972-3.80817-.382152.46281-.750397.941751-1.1014 1.42959 1.56143 2.00087 4.50628 2.94374 3.94111 2.37857zm5.17379-.195247c-1.99197-1.11697-3.05388-2.17498-3.61681-2.73736-.567387-.568499.384933 2.40027 2.40138 3.95724.172998-.161316.993484-.982914 1.21543-1.21988zm-6.77694 5.18658c.497854-.273681 1.0035-.570168 1.51025-.88835-1.82064-1.05968-2.81969-2.04871-3.35648-2.5855-.512873-.513429.214717 1.86181 1.84623 3.47385z" fill="#d67503" stroke-width=".556262"/><path d="m29.5156 0c-.120513.198766-.243241.439899-.371094.738281-1.54695 3.60858-1.03125 4.12348-1.03125 5.1543s2.06055 1.03125 2.06055 1.03125-.090164 1.9707.941406 1.9707c1.01277 0 1.44837.405217 4.88477-1.04688v-2.37891c-.51652-.137055-1.02477-.210938-1.30664-.210938.510038-.306168.942519-.730137 1.30664-1.20703v-4.05078h-1.16406c-1.16989.424658-2.43876 1.15738-3.11524 2.28516 0-.464433-.210669-1.55504-.582031-2.28516h-1.62305z" fill="#77b255" stroke-width=".729005"/><path transform="matrix(-1,0,0,1,36,0)" d="m36 0v4.05078c-.364122.476894-.796603.900864-1.30664 1.20703.281873 0 .790121.0738822 1.30664.210938v2.37891c-3.4364 1.45209-3.87199 1.04688-4.88477 1.04688-1.03157 0-.941406-1.9707-.941406-1.9707s-2.06055-.0004349-2.06055-1.03125c0-1.03082-.515696-1.54571 1.03125-5.1543.127853-.298382.250581-.539516.371094-.738281h1.62305c.371362.730116.582031 1.82072.582031 2.28516.676472-1.12777 1.94534-1.8605 3.11524-2.28516h1.16406z" fill="#77b255" stroke-width=".729005"/></svg>
