<svg version="1.1" viewBox="0 0 36 36" xmlns="http://www.w3.org/2000/svg"><path d="m31.954 21.619c0 6.276-5 6.276-5 6.276h-18s-5 0-5-6.276c0-6.724 5-18.619 14-18.619s14 12.895 14 18.619z" fill="#D99E82"/><path d="M18 20c-7 0-10 3.527-10 6.395 0 3.037 2.462 5.5 5.5 5.5 1.605 0 3.042-.664 4.049-2.767.185-.386.716-.386.901 0 1.007 2.103 2.445 2.767 4.049 2.767 3.038 0 5.5-2.463 5.5-5.5C28 23.527 25 20 18 20z" fill="#F4C7B5"/><path d="M15 22.895c-1 1 2 4 3 4s4-3 3-4-5-1-6 0zM13 19c-1.1 0-2-.9-2-2v-2c0-1.1.9-2 2-2s2 .9 2 2v2c0 1.1-.9 2-2 2zm10 0c-1.1 0-2-.9-2-2v-2c0-1.1.9-2 2-2s2 .9 2 2v2c0 1.1-.9 2-2 2z" fill="#292F33"/><path d="M15 3.608C13.941 2.199 11.681.881 2.828 4.2-1.316 5.754.708 17.804 3.935 18.585c1.106 0 4.426 0 4.426-8.852 0-.22-.002-.423-.005-.625C10.35 6.298 12.5 4.857 15 3.608zm18.172.592C24.319.881 22.059 2.199 21 3.608c2.5 1.25 4.65 2.691 6.644 5.501-.003.201-.005.404-.005.625 0 8.852 3.319 8.852 4.426 8.852 3.227-.782 5.251-12.832 1.107-14.386z" fill="#662113"/><circle cx="23.5" cy="25.5" r=".5" fill="#D99E82"/><circle cx="11.5" cy="25.5" r=".5" fill="#D99E82"/><circle cx="25.5" cy="27.5" r=".5" fill="#D99E82"/><circle cx="10.5" cy="27.5" r=".5" fill="#D99E82"/><circle cx="23" cy="28" r="1" fill="#D99E82"/><circle cx="13" cy="28" r="1" fill="#D99E82"/><path d="m9.883 7.232c-.259-.673-.634-1.397-1.176-1.939-.391-.391-1.023-.391-1.414 0s-.391 1.023 0 1.414c.57.57 1.066 1.934 1.068 2.346.145-.404.839-1.15 1.522-1.821zm16.217 0c.259-.672.634-1.397 1.176-1.939.391-.391 1.023-.391 1.414 0s.391 1.023 0 1.414c-.57.57-1.066 1.934-1.068 2.346-.145-.404-.839-1.15-1.522-1.821z" fill="#380F09"/><path d="m31.7676 28.1699c-.300003.008993-.709244.107479-1.25586.326172-1.54848.619216-2.41115 1.10188-2.95312 1.50781-.337593.473932-.744367.895534-1.20508 1.25-.01331.013829-.027193.027193-.041016.041016-.699569.69957.701172 2.09766.701172 2.09766s-1.40124 1.2765-.701172 1.97656c.212852.212852.360965.414082.5625.630859h4.85742c-.192472-.290282-.383961-.534351-.521484-.671875 1.7087.426798 3.6733-.387685 4.78906-1.08789v-1.74805c-1.11564-.747574-3.07999-1.62476-4.78906-1.19727.524676-.524678 1.83705-2.62455.984374-3.05078-.106583-.053279-.247732-.079615-.427734-.074219z" fill="#77b255" stroke-width=".699676"/><path d="m27.8027 29.6309c-1.0246 1.69817-2.88742 2.83398-5.01562 2.83398-1.70704 0-3.2369.136532-4.30859-2.10156-.196885-.410795-.7621-.410795-.958985 0-1.07169 2.2381-2.60049 2.10156-4.30859 2.10156-2.03074 0-3.81936-1.03343-4.86914-2.60352-3.01977 1.07294-5.11719 2.33278-5.11719 3.18164 0 .790452 1.8271 1.93644 4.51562 2.95703h20.4902c.640571-.802274.880685-1.79667.880859-2.95703-.000209-1.39032-.342392-2.54392-1.30859-3.41211z" fill="#f4900c" stroke-width=".699676"/><path d="m16.2441 31.9453c-.314663.205785-.650049.330393-1 .40625.41418 1.28748.923828 2.0257.923828 1.48828 0-.45078.002683-1.08258.076172-1.89453zm-4.80664.246094c-.36824.578825-.947935 2.10706-1.09766 3.80859h1.77148c-.331816-1.69279-.359252-2.93619-.361328-3.71875-.105276-.027046-.209603-.057175-.3125-.089844zm12.4531.169922c-.264684.050483-.536461.082168-.8125.095703.381462 1.03686.787345 1.57421.787109 1.09375 0-.310626.001077-.707146.025391-1.18945zm-3.80664.078125c-.244605.024656-1.01057 1.62252-1.27539 3.56055h1.61914c-.265141-1.55595-.267233-2.68496-.267578-3.38281.000124-.126284-.028052-.182585-.076172-.177735z" fill="#d67503" stroke-width=".699676"/></svg>
