<?xml version="1.0" encoding="UTF-8"?>
<svg width="36" height="36" version="1.1" viewBox="0 0 36 36" xml:space="preserve" xmlns="http://www.w3.org/2000/svg" xmlns:xlink="http://www.w3.org/1999/xlink"><defs><radialGradient id="radialGradient12" cx="18" cy="18" r="18" gradientUnits="userSpaceOnUse"><stop stop-color="#f3891c" stop-opacity="0" offset=".679305"/><stop stop-color="#af3d00" offset="1"/></radialGradient></defs><circle cx="18" cy="18" r="18" fill="#f3891c"/><circle cx="18" cy="18" r="18" fill="url(#radialGradient12)"/><path d="m19.0016 35.9726c8.93171-.489883 16.1289-7.49138 16.9252-16.3381-3.18676-2.24334-5.88145-3.38774-8.24515-3.6618-.289443-1.55256-.975304-3.76269-2.50586-7.33398-.999557-2.33167-1.89419-3.26924-2.66406-3.35938-1.96746-.23034-3.11914 5.07324-3.11914 6.77539-3.55398-5.92051-13.9361-7.38332-12.752-6.19922-1.1841-1.1841-.0003034 9.47308 5.92188 13.0254-1.70215 0-7.07328 1.22525-6.88281 3.23242.07453.785415.998406 1.68841 3.33008 2.6875 2.93618 1.2587 4.97045 1.9188 6.49219 2.25195.02404 2.51932 1.09754 5.42246 3.49968 8.91987z" stroke-width=".999998"/></svg>
