<svg version="1.1" viewBox="0 0 36 36" xmlns="http://www.w3.org/2000/svg"><rect x="7.4379" y="20.2498" width="24.8793" height="3.68873" ry="1.84436" fill="#753704" stroke-width="0"/><path d="m11.9393 18.021c.390161-1.56202-1.08019-3.51448-1.08019-3.12404 0-.390437-1.56202 1.56202-1.17131 3.12404-.390436-.390437-2.3429-1.56202-1.56175.390436.780873 1.95274 1.17131 1.95274 1.56175 2.34317.390436.390436 1.17159-.390713 1.17159-.390713s.712119.781149 1.10283.390436c.390436-.390436.712394-.390436 1.49327-2.34262.780873-1.95274-1.12575-.78115-1.51619-.390713z" fill="#77b255" stroke-width=".390497"/><path d="m10.6939 19.1313c-.993451.00015-1.70402.409933-2.03547 1.78812h4.07035c-.331443-1.37819-1.04143-1.78797-2.03488-1.78812z" fill="#f4900c" stroke-width=".299385"/><path d="m18.1754 18.021c.390161-1.56202-1.08019-3.51448-1.08019-3.12404 0-.390437-1.56202 1.56202-1.17131 3.12404-.390437-.390437-2.3429-1.56202-1.56175.390436.780874 1.95274 1.17131 1.95274 1.56175 2.34317.390437.390436 1.17158-.390713 1.17158-.390713s.712119.781149 1.10283.390436c.390436-.390436.712394-.390436 1.49327-2.34262.780873-1.95274-1.12575-.78115-1.51619-.390713z" fill="#77b255" stroke-width=".390497"/><path d="m16.9301 19.1313c-.993451.00015-1.70402.409933-2.03547 1.78812h4.07035c-.331443-1.37819-1.04143-1.78797-2.03488-1.78812z" fill="#f4900c" stroke-width=".299385"/><path d="m24.3129 18.021c.390161-1.56202-1.08019-3.51448-1.08019-3.12404 0-.390437-1.56202 1.56202-1.17131 3.12404-.390436-.390437-2.3429-1.56202-1.56175.390436.780873 1.95274 1.17131 1.95274 1.56175 2.34317.390437.390436 1.17159-.390713 1.17159-.390713s.712118.781149 1.10283.390436c.390436-.390436.712394-.390436 1.49327-2.34262.780873-1.95274-1.12575-.78115-1.51619-.390713z" fill="#77b255" stroke-width=".390497"/><path d="m23.0675 19.1313c-.99345.00015-1.70402.409933-2.03547 1.78812h4.07035c-.331443-1.37819-1.04143-1.78797-2.03488-1.78812z" fill="#f4900c" stroke-width=".299385"/><path d="m30.4503 18.021c.39016-1.56202-1.08019-3.51448-1.08019-3.12404 0-.390437-1.56202 1.56202-1.17131 3.12404-.390436-.390437-2.3429-1.56202-1.56175.390436.780873 1.95274 1.17131 1.95274 1.56175 2.34317.390437.390436 1.17159-.390713 1.17159-.390713s.712118.781149 1.10283.390436c.390437-.390436.712394-.390436 1.49327-2.34262.780873-1.95274-1.12575-.78115-1.51619-.390713z" fill="#77b255" stroke-width=".390497"/><path d="m29.205 19.1313c-.993451.00015-1.70402.409933-2.03547 1.78812h4.07035c-.331443-1.37819-1.04143-1.78797-2.03488-1.78812z" fill="#f4900c" stroke-width=".299385"/><path d="m3.60352 24.7422c-1.51635 0-2.73633 1.21998-2.73633 2.73633 0 1.51635 1.21998 2.73828 2.73633 2.73828h31.4473c.334326 0 .653549-.063106.949219-.171875v-5.13086c-.29567-.108769-.614893-.171874-.949219-.171874h-31.4473z" fill="#753704" stroke-width="0"/><path d="m7.54675 21.4345c.579011-2.31809-1.60304-5.2156-1.60304-4.63618 0-.579421-2.31809 2.31809-1.73826 4.63618-.57942-.57942-3.47693-2.31809-2.31768.579421 1.15884 2.89792 1.73826 2.89792 2.31768 3.47734.57942.579421 1.73867-.57983 1.73867-.57983s1.05681 1.15925 1.63664.57942c.57942-.57942 1.05722-.57942 2.21606-3.47652 1.15884-2.89792-1.67065-1.15925-2.25007-.57983z" fill="#77b255" stroke-width=".57951"/><path d="m5.69859 23.0821c-1.47431.000222-2.52883.608353-3.0207 2.65363h6.04053c-.491872-2.04528-1.54552-2.65341-3.01983-2.65363z" fill="#f4900c" stroke-width=".444297"/><path d="m16.8015 21.4345c.579011-2.31809-1.60304-5.2156-1.60304-4.63618 0-.579421-2.31809 2.31809-1.73826 4.63618-.57942-.57942-3.47693-2.31809-2.31768.579421 1.15884 2.89792 1.73826 2.89792 2.31768 3.47734.579421.579421 1.73867-.57983 1.73867-.57983s1.05681 1.15925 1.63664.57942c.57942-.57942 1.05722-.57942 2.21606-3.47652 1.15884-2.89792-1.67065-1.15925-2.25007-.57983z" fill="#77b255" stroke-width=".57951"/><path d="m14.9533 23.0821c-1.47431.000222-2.52883.608353-3.0207 2.65363h6.04053c-.491873-2.04528-1.54552-2.65341-3.01983-2.65363z" fill="#f4900c" stroke-width=".444297"/><path d="m25.9096 21.4345c.579011-2.31809-1.60304-5.2156-1.60304-4.63618 0-.579421-2.31809 2.31809-1.73826 4.63618-.57942-.57942-3.47693-2.31809-2.31768.579421 1.15884 2.89792 1.73826 2.89792 2.31768 3.47734.579421.579421 1.73867-.57983 1.73867-.57983s1.05681 1.15925 1.63664.57942c.57942-.57942 1.05722-.57942 2.21606-3.47652 1.15884-2.89792-1.67065-1.15925-2.25007-.57983z" fill="#77b255" stroke-width=".57951"/><path d="m24.0615 23.0821c-1.47431.000222-2.52883.608353-3.0207 2.65363h6.04053c-.491872-2.04528-1.54552-2.65341-3.01983-2.65363z" fill="#f4900c" stroke-width=".444297"/><path d="m33.3574 16.7246c-.352348.033398-2.20711 2.60822-1.68164 4.70898-.579419-.57942-3.47566-2.31743-2.31641.580078 1.15884 2.89792 1.73699 2.8991 2.31641 3.47852.579421.57942 1.74024-.580079 1.74024-.580079s1.05689 1.15796 1.63672.578125c.305626-.305625.583329-.453862.947266-.947265v-3.79688c-.418586.228014-.805612.51069-.982422.6875.579011-2.31809-1.60352-5.21419-1.60352-4.63477 0-.054321-.02019-.077674-.05664-.074219z" fill="#77b255" stroke-width=".57951"/><path d="m33.1699 23.082c-1.47431.000222-2.52961.609018-3.02148 2.6543h5.85156v-.642578c-.547546-1.53264-1.52337-2.01152-2.83008-2.01172z" fill="#f4900c" stroke-width=".444297"/><path d="m36 36v-2c0-3.314-2.686-6-6-6h-16c-3.313 0-6 2.686-6 6v2z" fill="#77b255"/><path d="m22 34c.767 0 5-3 5-6h-10c0 3 4.233 6 5 6z" fill="#3e721d"/><path d="m17.64 28.038c0 2.846 8.72 2.962 8.72 0v-3.749h-8.72z" fill="#ffdc5d"/><path d="m17.632 25.973c1.216 1.374 2.724 1.746 4.364 1.746 1.639 0 3.147-.372 4.364-1.746v-3.491h-8.728z" fill="#f9ca55"/><path d="m25.152 3.3c-1.925-.623-5.876-.46-7.008 1.012-1.873.036-1.596 3.71-5.113 2.967-.738 1.004-1.259 2.198-1.424 3.476-.448 3.475.235 4.874.591 7.486.403 2.96 2.067 3.907 3.397 4.303 1.914 2.529 3.949 2.421 7.366 2.421 6.672 0 9.271-4.458 9.552-12.04.08-2.157-.473-4.067-1.584-5.649-3.837 1.49-3.213-3.146-5.777-3.976z" fill="#ffac33"/><path d="m29.547 13.243c-.646-.894-1.472-1.614-3.284-1.868.68.311 1.874 2.202 1.959 2.797s.17 1.076-.368.481c-2.155-2.382-5.045-2.259-7.37-3.714-1.624-1.016-2.119-2.141-2.119-2.141s-.198 1.5-2.661 3.029c-.714.443-1.566 1.43-2.038 2.888-.34 1.048-.234 1.982-.234 3.578 0 4.66 3.841 8.578 8.578 8.578s8.578-3.953 8.578-8.578c-.002-2.898-.305-4.03-1.041-5.05z" fill="#ffdc5d"/><path d="m22.961 20.677h-1.906c-.263 0-.477-.213-.477-.477s.213-.477.477-.477h1.906c.263 0 .477.213.477.477s-.213.477-.477.477z" fill="#c1694f"/><path d="m18.195 17.341c-.526 0-.953-.427-.953-.953v-.953c0-.526.427-.953.953-.953s.953.427.953.953v.953c0 .526-.426.953-.953.953zm7.626 0c-.526 0-.953-.427-.953-.953v-.953c0-.526.427-.953.953-.953s.953.427.953.953v.953c0 .526-.427.953-.953.953z" fill="#662113"/><path d="m22.134 24.657c-2.754 0-3.6-.705-3.741-.848-.256-.256-.256-.671 0-.927.248-.248.646-.255.902-.023.052.037.721.487 2.839.487 2.2 0 2.836-.485 2.842-.49.256-.255.657-.243.913.015.256.256.242.683-.014.939-.142.142-.987.847-3.741.847" fill="#c1694f"/><path d="m13 28h3v8h-3zm15 0h3v8h-3z" fill="#3b88c3"/><path d="m13.125 35h17.875v1h-17.875z" fill="#3b88c3"/><path d="m30 8.8c0 1.32-3.092 2.2-8 2.2-4.909 0-8-.88-8-2.2 0-3.547 4-8.8 5.333-8.8 1.334 0 2.223 1.76 2.667 1.76s1.333-1.76 2.667-1.76c1.333 0 5.333 5.253 5.333 8.8z" fill="#c1694f"/><path d="m35.941 8c0 1.657-3.5 6-14 6s-14-4.343-14-6 6.82-1 14-1 14-.657 14 1z" fill="#c1694f"/><path d="m30 8.8c0 1.32-3.092 2.2-8 2.2-4.909 0-8-.88-8-2.2 0-.566.102-1.175.279-1.8 2.388 2 13.054 2 15.443.004.175.623.278 1.231.278 1.796z" fill="#292f33"/><path d="m7 31.75c0-.69-.56-1.25-1.25-1.25s-1.25.56-1.25 1.25v4.25h2.5z" fill="#c1694f"/><path d="m10.003 22.75c0 2.35-1.904 4.253-4.253 4.253s-4.253-1.903-4.253-4.253c0-.086-1.497-.084-1.497 0 0 3.176 2.575 5.75 5.75 5.75s5.75-2.574 5.75-5.75c0-.084-1.497-.086-1.497 0z" fill="#66757f"/><path d="m11.5 22.75c0 .414-.336.75-.75.75s-.75-.336-.75-.75v-8.5c0-.414.336-.75.75-.75s.75.336.75.75z" fill="#66757f"/><path d="m1.5 22.75c0 .414-.336.75-.75.75s-.75-.336-.75-.75v-8.5c0-.414.336-.75.75-.75s.75.336.75.75z" fill="#66757f"/><path d="m15.9941 13.2146c2.28862.571649 5.14928-1.58265 4.57723-1.58265.572053 0-2.28862-2.28862-4.57723-1.71616.572052-.572053 2.28862-3.43272-.572053-2.28821-2.86107 1.14411-2.86107 1.71616-3.43313 2.28821-.572053.572053.572457 1.71656.572457 1.71656s-1.14451 1.04337-.572053 1.61583c.572053.572053.572053 1.04377 3.43232 2.18788 2.86107 1.1441 1.14451-1.64941.572458-2.22146z" fill="#77b255" stroke-width=".572139"/><path d="m6.55273 7.05469c-2.16927.0001425-4.47204.358885-6.55273.880859v6.82031c2.08069.52198 4.38332.88086 6.55273.88086 6.1615 0 7.72421-1.60512 7.72461-4.29102-.000404-2.68589-1.56311-4.29102-7.72461-4.29102z" fill="#f4900c" stroke-width=".572139"/><path d="m8.85352 7.14844c-.327696 2.59568 1.13322 5.43623 1.13281 4.61133 0-.786471.0062836-2.24606.572266-4.36719-.503681-.105591-1.06911-.188311-1.70508-.244141zm-4.45508.015625c-.614531.0586619-1.23172.138759-1.8418.238281-.319605 2.59082 1.13672 5.41778 1.13672 4.5957 0-.8423.0088237-2.45879.705078-4.83398zm-4.36914 3.2832c-.00877207-.001374-.0185978.001404-.0292969.005859v4.30469c.2127.053414.425256.106573.642578.15625-.553442-2.09483-.5625-3.53951-.5625-4.32031 5.057e-5-.093302-.0180812-.141363-.0507812-.146484zm6.86719.404296c-.275594.027944-1.36271 2.49744-1.07031 4.77148.243142.0085 1.43772.006994 1.77148-.003906-.636378-2.2611-.638267-3.80266-.638672-4.62109.0001011-.103265-.0231294-.150476-.0625-.146485z" fill="#d67503" stroke-width=".572139"/><path d="m6.5 14.875h-1.5v16.125c0 .414.336.75.75.75s.75-.336.75-.75v-16.125z" fill="#66757f"/></svg>
