<svg version="1.1" viewBox="0 0 36 36" xmlns="http://www.w3.org/2000/svg"><path d="m9.021 14.384c0-3.046 1.497-6.093 3.02-6.093 4.569 0 13.322 4.823 14.845 12.439 1.524 7.616-17.865-6.346-17.865-6.346zm4.854 18.278c1.523 1.523 4.57 3.047 7.617 3.047 3.046 0-3.111-4.189-1.523-6.092 2.18-2.617-6.094 3.045-6.094 3.045z" fill="#bd771b"/><path d="m30.3519 27.8048c2.77911 1.37545 6.25287-3.80805 5.55822-3.80805.694653 0-2.77911-5.50668-5.55822-4.12928.694655-1.37643 2.77911-8.25953-.694653-5.5057-3.47425 2.75285-3.47425 4.12928-4.16891 5.5057-.694654 1.37643.695146 4.13025.695146 4.13025s-1.3898 2.51047-.694655 3.88787c.694655 1.37643.694655 2.51144 4.16792 5.2643 3.47425 2.75285 1.3898-3.96866.695145-5.34509z" fill="#77b255" stroke-width=".977968"/><path d="m2.071 28.727c.761-2.285.19-3.935-1.143-5.584-1.333-1.651 3.872-1.904 5.585.381s5.713 6.281 2.158 6.22c-3.553-.065-6.6-1.017-6.6-1.017z"/><path d="m.168 23.488c.959.874 7.223 4.309 7.165 5.137s-2.279-.088-3.105-.279c-1.485-.342-1.905-.598-2.317-.526-.84.321-.554 1.201-.242 1.704 1.498 2.61 7.286 4.662 12.16 4.662 8.412 0 16.802-7.615 16.802-10.662 0-3.046-9.345-10.663-17.757-10.663-8.391-.001-12.694 6.061-12.706 10.627z" fill="#f4900c"/><path d="m12.7951 12.8615c.259087 8.28587 2.01159 15.3949 2.01159 12.8416 0-2.49097.0079-6.79211.554611-12.6342-.831921-.134598-1.66454-.207617-2.4882-.207617-.02604-3e-6-.05204 5.2e-5-.078.000169zm-7.152 14.2091c.991486.684923 1.70879 1.27164 1.68898 1.55439-.038234.545829-1.01578.333651-1.91424.07093-.142711 1.11871-.268468 2.30142-.367748 3.52801 1.0014.483226 2.14192.896669 3.34261 1.21764-.620903-6.20588-.630936-10.8183-.630936-13.5763.0001173-.417242-.0474172-.621275-.128906-.636718-.339821-.064402-1.2867 3.14894-1.98976 7.84209zm12.2828 6.55484c.652858-.173109 1.29684-.382004 1.9277-.620491-.402557-5.02711-.403969-8.70678-.404373-10.8565.000123-.336682-.0303-.48156-.08203-.458985-.295649.129023-1.30115 5.7064-1.4413 11.936zm5.12701-17.7233c-.46726-.265-.947627-.519788-1.43854-.761333.200681 6.15371 1.18675 11.2978 1.18642 9.36501 0-1.75554.0036-4.66313.25212-8.60368z" fill="#d67503" stroke-width="1.25609"/><path d="m7 17c1.104 0 2 .894 2 2 0 1.105-.896 2-2 2-1.105 0-2-.896-2-2 0-1.106.895-2 2-2z"/><path d="m15.08 29.98c-.156 0-.314-.036-.462-.113-.49-.256-.679-.86-.423-1.35 1.585-3.034 2.218-5.768.154-9.243-.282-.475-.126-1.088.349-1.371s1.088-.124 1.371.349c2.693 4.535 1.46 8.202-.102 11.191-.178.342-.527.537-.887.537z" fill="#bc741a"/></svg>
