<?xml version="1.0" encoding="UTF-8"?>
<svg width="36" height="36" version="1.1" viewBox="0 0 36 36" xml:space="preserve" xmlns="http://www.w3.org/2000/svg"><path d="m35.445 7c-.693-1.191-1.968-2-3.445-2h-14v2zm-35.445 18h36v2h-36zm18-8h18v2h-18zm0-4h18v2h-18zm-18 8h36v2h-36zm4 10h28c1.477 0 2.752-.809 3.445-2h-34.89c.693 1.191 1.968 2 3.445 2zm14-22h18v2h-18z" fill="#b22334"/><path d="m18 5h-14c-2.209 0-4 1.791-4 4v10h18z" fill="#3c3b6e"/><g><path d="m18 7-1e-6 2 18 1e-7c0-.233-.02736-.458688-.06836-.679687-.017-.092-.03655-.183438-.06055-.273438-.027-.103-.05875-.203734-.09375-.302734-.089-.258-.197032-.507234-.332032-.740234.000948-.0009993.001-.00291 0-.00391zm-18 20c0 .233.0283594.458689.0683594.679688.017.093.0355938.18439.0585938.27539.026.101.0577969.198875.0917969.296875.0889998.259.197985.508188.333984.742188l.0019531.005859h34.8906l.002-.0039c.134998-.233.243031-.482235.332031-.740235.034-.099.0658-.199734.0918-.302734.023-.09.04355-.180438.06055-.273437.040948-.220005.068307-.446694.068307-.679694h-22.8711zm0-4v2h35.957c.01418-.0013.02882-.0026.04297-.0039v-1.9961h-23.2832zm18-8v2h18v-2zm1e-6-4-1e-6 2h18v-2zm-18 8v2h36v-2h-23.1465z" fill="#f4900c"/><path d="m18.5093 9h1.63778c-.396774-.545964-1.11354-.959692-1.36582-.966797-.05751-.00162-.08992.018587-.08984.0625-4e-6.199839-.00343.50155-.182116.904297zm9.16152 0h1.75651c-.376887-.595472-1.16765-1.06101-1.43514-1.06836-.05735-.00157-.0918.018737-.0918.0625 0 .216112-.0038.551869-.229577 1.00586zm7.24842-2h-2.34116c.600927.759025.609434 1.29103.609434 1.5918-.000581.311902 1.68779-.608068 1.73173-1.5918zm-10.0916 0h-2.1798c.47229.668342.474718 1.14216.47519 1.41992-.000989.2938 1.4957-.504174 1.70461-1.41992zm-6.68727 22h1.95534c-.311793-.681294-1.24045-1.24561-1.53518-1.25391-.05751-.0016-.08992.01859-.08984.0625 0 .244553-.0051.642706-.33031 1.19141zm9.14652 0h2.06229c-.260086-.72543-1.26851-1.34502-1.57772-1.35352-.05735-.0016-.0918.01678-.0918.06055 0 .259185-.0054.691475-.392773 1.29297zm7.35484-2h-2.07724c.395852.608213.402275 1.04532.402275 1.30664-.000524.281457 1.37428-.440209 1.67496-1.30664zm-10.1419 0h-1.89147c.291689.5189.293507.896411.29391 1.13281-.000896.262543 1.19418-.346737 1.59756-1.13281zm-24.3917.876574c.005944.02622.0121837.05238.018787.0785.026.101.0577969.198875.0917969.296875.0889999.259.197985.508188.333984.742188l.00195.0059h.714876c-.223631-.488689-.764599-.917161-1.16139-1.12346zm8.35099 1.12343h2.06361c-.260619-.72543-1.2702-1.34502-1.57941-1.35352-.057349-.0016-.089844.01678-.089844.06055 0 .259185-.00644.691475-.394359 1.29297zm7.35643-2h-2.07724c.395852.608213.402275 1.04532.402275 1.30664-.000524.281457 1.37428-.440209 1.67496-1.30664zm-10.1438 0h-1.89147c.29169.5189.293508.896411.29391 1.13281-.0008806.262543 1.19419-.346737 1.59756-1.13281zm12.3392-2h2.15692c-.197973-.767173-1.28402-1.44402-1.60732-1.45312-.05751-.0016-.08992.01663-.08984.06055 0 .273501-.0064.739117-.459755 1.39258zm9.13635 0h2.25309c-.122848-.807969-1.29169-1.54542-1.6289-1.55469-.05735-.0016-.0918.01678-.0918.06055 0 .287227-.0067.787045-.532389 1.49414zm7.40486-2h-1.86779c.27738.504544.282433.873678.282433 1.10547-.000483.259338 1.16669-.332977 1.58536-1.10547zm-10.1742 0h-1.66742c.190055.417381.191466.728783.191815.933594-.000818.2397.99528-.248224 1.4756-.933594zm-24.3779.62486v1.37514h1.34169c-.159164-.616783-.89235-1.17518-1.34169-1.37514zm8.31937 1.37514h2.2547c-.123289-.807969-1.29351-1.54542-1.63072-1.55469-.057349-.0016-.089844.01678-.089844.06055 0 .287227-.00791.787045-.534141 1.49414zm7.40661-2h-1.86779c.27738.504544.282433.873678.282433 1.10547-.000483.259338 1.16669-.332977 1.58536-1.10547zm-10.1762 0h-1.66742c.190055.417381.191466.728783.191814.933594-.000804.2397.995289-.248224 1.4756-.933594zm12.7817-6h2.00594c-.288587-.702267-1.25455-1.29228-1.55625-1.30078-.05751-.0016-.08992.01663-.08985.06055 1e-6.25175-.0054.666271-.359845 1.24023zm9.14401 0h2.11011c-.232017-.746026-1.27762-1.39367-1.5935-1.40234-.05735-.0016-.0918.01678-.0918.06055 0 .266145-.0057.714819-.424816 1.3418zm7.36876-2h-2.02898c.366056.583166.372148 1.00329.372147 1.25781-.000513.276153 1.32294-.413362 1.65683-1.25781zm-10.1497 0h-1.83894c.265263.49467.266981.856934.26737 1.08594-.000865.257119 1.14532-.322983 1.57157-1.08594zm-6.27784-2h1.85018c-.350749-.635974-1.20524-1.1464-1.4857-1.1543-.05751-.0016-.08992.01859-.08984.0625-1e-6.229731-.0045.594086-.274632 1.0918zm9.1516 0h1.96109c-.310827-.682364-1.24227-1.24776-1.53727-1.25586-.05735-.0016-.0918.01874-.0918.0625 0 .244869-.0048.643338-.332021 1.19336zm7.32316-2h-2.1735c.462341.659761.469471 1.12894.469471 1.4043-.000544.29197 1.4789-.495524 1.70403-1.4043zm-10.1246 0h-1.99542c.349053.570198.351077.981381.351504 1.23242-.000921.273534 1.29635-.399283 1.64391-1.23242zm-6.70461 10h2.08289c-.246699-.735254-1.27214-1.36815-1.58469-1.37695-.05751-.0016-.08992.01663-.08984.06055 0 .262752-.0059.702816-.408352 1.31641zm9.14016 0h2.18319c-.18103-.777563-1.28764-1.46954-1.61422-1.47852-.05735-.0016-.0918.01678-.0918.06055 0 .276802-.0062.751044-.477173 1.41797zm7.38817-2h-1.94969c.320238.543713.325806.938338.325806 1.18164-.000499.267801 1.2441-.372539 1.62388-1.18164zm-10.1621 0h-1.75434c.226119.455851.227682.792682.228052 1.00977-.000848.24849 1.06968-.284989 1.52629-1.00977zm-24.4286.701032v1.29897h1.31907c-.196676-.586166-.888304-1.10728-1.31907-1.29897zm8.37465 1.29897h2.18471c-.181513-.777563-1.28941-1.46954-1.616-1.47852-.057349-.0016-.089844.01678-.089844.06055 0 .276802-.00735.751044-.478868 1.41797zm7.38986-2h-1.94969c.320239.543713.325806.938338.325806 1.18164-.000499.267801 1.2441-.372539 1.62388-1.18164zm-10.164 0h-1.75434c.22612.455851.227683.792682.228052 1.00977-.0008335.24849 1.06969-.284989 1.52629-1.00977z" fill="#d67503"/><path d="m14.002 7.68359c-.321337.011955-.74643.1911-1.33984.599609-.580095.399396-1.12049.965571-1.5 1.47266.342843-.919809.143643-1.31542-.339843-1.54883-.505823-.244-.956724-.134597-1.49414.818359-.121779-.210003-.237456-.334827-.328125-.333984-.10112.000939-.231145.157801-.363281.416016-.5674-1.00285-1.02795-1.11606-1.54102-.859375-.451769.226191-.65172.590017-.376953 1.39453-.380552-.466184-.888522-.965436-1.42773-1.32227-1.20158-.79516-1.71385-.683893-2.06055-.160156-.346544.523842-.248458 1.03882.953125 1.83398.294496.194858.624176.364256.957031.505859-.01538.166031.02193.330982.136719.5-.05402-.0018-.108708-.0039-.16211-.0039-1.44086-.000457-1.80635.373859-1.80664 1.00195-.000105.628094.365779 1.00345 1.80664 1.00391.06688 1.7e-5.133356-.0011.201172-.0039-.103963.156845-.143838.310533-.134765.464844-.33348.144293-.664435.317792-.958985.515625-1.19612.803361-1.28957 1.31838-.939453 1.83984.350277.521353.862479.629534 2.05859-.173828.564811-.379405 1.09384-.915113 1.47656-1.4043-.301585.847984-.102596 1.22548.361328 1.45508.502784.248639.956133.143604 1.50195-.800781.117722.198595.230433.315242.318359.314453.09763-.000887.22214-.148144.349609-.390625.580719.992754 1.04369 1.09956 1.55274.835938.421274-.218326.616766-.556377.402344-1.25977.382755.439871.877471.900107 1.39844 1.23047 1.21683.77163 1.72605.649524 2.0625.119141.336286-.530486.228546-1.04282-.988281-1.81445-.290283-.184052-.613002-.343587-.939453-.476563.02088-.172552-.01452-.339725-.128907-.509766.06524.0014.130997.0032.195313.002 1.44061-.02694 1.79876-.409123 1.78711-1.03711-.01184-.627983-.383609-.997643-1.82422-.970703-.06238.0012-.126291.0042-.189454.0078.113229-.162812.158791-.319445.152344-.476562h.002c.336948-.149471.672043-.328949.96875-.533203 1.18678-.817065 1.274-1.33225.917922-1.84966-.178114-.258652-.39546-.414299-.716797-.402344z" fill="#f4900c"/><path d="m13.4785 7.81641c-.111021.04645-.231424.106111-.361328.179688.281067.543432.939539.897121.830078.738281-.104287-.15149-.296508-.434348-.46875-.917969zm-8.39258.373047c-.167699.523075-.367114.824717-.472656.984375-.106771.161001.54813-.205907.81836-.755859-.04632-.033035-.279205-.187573-.345704-.228516zm4.52734.398438c-.07343.095348-.148215.205717-.224609.333984.513368.332823 1.25971.314221 1.08594.230469-.165637-.0799318-.472122-.229675-.861328-.564453zm2.64844.00195c-.110593.092787-.219901.188995-.324219.289062.281983.541424.939085.892723.830078.734375-.11169-.162244-.32502-.473604-.505859-1.02344zm-8.11524.021484c-.0066.0001768-.01542.0064-.02539.021484-.101497.153373-.291669.438688-.675782.779297.0846.085593.185916.174616.302735.267578.36149-.420414.461888-1.07007.398437-1.06836zm9.0918.355469c-.06343-.0003479.04928.648985.419922 1.0625.04796-.0306011.278956-.189964.341797-.236325-.422403-.35115-.627725-.647095-.736328-.804688-.010255-.0149282-.018829-.0214483-.025391-.0214843zm-5.58203.126957c-.0061.0002806-.01461.00241-.02539.00781-.164467.082314-.469849.234247-.972656.337891.03063.116381.07207.242021.126953.380859.541036-.190443.962628-.730768.871093-.72656zm1.03125.103516c-.406237.369732-.727329.531444-.898438.617188-.172842.0862943.577428.0938434 1.08594-.248047-.023671-.0517351-.150283-.300487-.1875-.369141zm-2.33594.027344c-.162414.479946-.348453.761793-.449218.914062-.09641.14551.428793-.139694.730468-.601562-.08839-.10421-.181946-.208327-.28125-.3125zm-.947265.152344c-.0066.0001841-.01544.00645-.02539.021484-.108701.164261-.319413.480172-.761719.853516.127414.06787.258807.130129.390625.189453.359493-.420502.459822-1.06623.396485-1.06445zm6.10156.257812c-.115788.032806-.243072.077292-.380859.134766.213896.573207.825959 1.00285.736328.832031-.08537-.162898-.242443-.466015-.355469-.966796zm-1.52539.070312c-.09156-.00284.33978.535149.884765.716797.0265-.05035.148067-.303596.179688-.375-.540886-.095777-.866653-.25089-1.03906-.333985-.01087-.00526-.01929-.00762-.02539-.00781zm1.875.095703c-.04885.023446.03836.527877.314453.923828.129704-.043.262732-.09139.396484-.144531-.384379-.330119-.578104-.607414-.68164-.757813-.01236-.017979-.02232-.024834-.0293-.021484zm-2.91797.0625c-.03255.087962-.06304.176024-.0918.265625-.162425-.04542-.361154-.0812-.5625-.07813-.03691.131568-.07079.269564-.101562.410157.01262-.0035.02469-.0065.03711-.0098-.194816.09164-.50364.217384-.964844.300781.07659.122371.159476.24221.244141.359375.01403-.005.02716-.01019.04102-.01563-.0014.0024-.0024.0048-.0039.0078-.08823.176104-.257972.513837-.652344.9375.103546.04008.208666.07655.314454.111328-.04779.171636-.08507.389909-.07617.611328.132446.03362.270793.06454.412109.0918-.01474-.04897-.02885-.09662-.04102-.142578.09207.193328.224618.507838.310547.986328.122464-.07644.24211-.157664.359375-.242188-.0057-.01601-.01132-.03109-.01758-.04687.177497.08784.514651.258792.9375.648438.03492-.09159.06687-.185903.09766-.279297.157541.04203.346039.0732.53711.07031.03693-.13156.07077-.269568.101562-.410156-.0092.0025-.01826.0034-.02734.0059.195114-.09188.489956-.209772.916015-.292968-.07652-.11856-.157985-.234152-.242187-.347656.09124-.192007.255197-.500323.583984-.878907-.07574-.02635-.153532-.05066-.230469-.07422.04968-.165411.08908-.370615.08789-.580078-.131207-.03817-.267911-.0753-.408203-.107422-.09229-.194732-.208818-.487872-.292969-.908203-.115031.07502-.227651.155976-.337891.238282-.181384-.087781-.512795-.254171-.929698-.630849zm-1.83789.0742192c-.103799.539403-.265916.862046-.351562 1.0332-.08671.172637.518333-.269281.720703-.847656-.04995-.02725-.298214-.152869-.369141-.185547zm1.80078.394531c.375936.201443.828116.24056.966796.214844.173469.41872.546494.752243.677735.814453.03872.180407.05912.334217.07031.464844-.211913.36378-.256858.822195-.238281 1.00391-.407903.181609-.725346.543952-.777344.664063-.202444.04419-.373538.06582-.511718.07617-.400785-.206154-.875738-.23525-.958985-.197265-.183344-.427767-.568263-.763937-.669922-.794922-.05053-.220653-.07173-.399828-.08203-.539063.208505-.407501.232952-.890274.191406-.955078.431198-.180314.769701-.566079.804688-.671875.209269-.04725.38476-.0689.527344-.08008zm-2.68359.136719c-.0065.000962-.01339.0092-.02148.02539-.08238.164432-.237603.469325-.578125.853515.09425.07484.204913.150225.332032.228516.308497-.460708.330366-1.11672.267578-1.10742zm3.05273.255859c-.12536.110468-.241522.200555-.347656.275391-.01414.000231-.04156-.000298-.05078 0 .0028.0099.0051.01948.0078.0293l-.002.002c-.02961.02025-.05624.03881-.08398.05664-.09907-.09164-.204849-.183128-.314453-.273438-.03129.149598-.06696.278576-.103516.394531-.02258-.0039-.04684-.0092-.07031-.01367.01248-.05848.02679-.118535.04297-.18164-.143155.01862-.285946.04218-.427734.07031-.01687.19002.0063.38552.04687.556641-.06245.01341-.124114.02954-.1875.04492.09904.112667.179988.217141.25.314453.000597.02918.0013.07193.002.08789.01709-.005.03404-.009.05078-.01367l.002.002c.01837.02693.03442.05273.05078.07813-.004-.002-.0077-.0039-.01172-.0059-.09236.100707-.186385.206825-.277344.318359.156429.03189.29229.06779.412109.105469-.004.02242-.0091.04504-.01367.06836-.07773-.01739-.159774-.03805-.246094-.0625.01502.143577.03598.287238.06055.429687.198321.02263.400307.000489.578125-.03906.01756.07871.03587.158048.05664.238281.09951-.09019.193559-.167879.28125-.234375.07627-.0028.155105-.0055.189453-.0078-.0113-.03546-.02132-.07151-.03125-.105469.04023-.02727.0789-.05161.115235-.07422-.029.05016-.05578.102411-.08008.15625.103383.08935.212009.177988.326172.265625.03531-.203676.07998-.374209.125-.517578.02361.004.04766.0071.07227.01172-.01957.08666-.04361.177754-.07227.27539.143712-.01367.287013-.03146.429687-.05469.02503-.202407.0043-.410904-.03516-.591797.08385-.01893.168315-.03796.253906-.06055-.121099-.132352-.216922-.254461-.296875-.365234-.000612-.03091-.0013-.07513-.002-.0918-.0178.0052-.03532.0088-.05273.01367-.02307-.03382-.04476-.0666-.06445-.09766.02139.01133.04246.02471.06445.03516.09137-.101609.183576-.209846.273437-.322266-.176357-.03416-.328649-.07387-.458984-.115234.0035-.02298.0076-.04642.01172-.07031.0823.01807.167687.04035.259766.06641-.01505-.143575-.034-.287243-.05859-.429688-.215516-.02456-.436936.0027-.625.04883-.01513-.07137-.03111-.144173-.04883-.216797zm1.85938.02344c-.05885-.0074-.03166.566941.232422 1.01367-.04389-.04345-.264301.441615-.251953.941406.131909.03567.269279.06822.410156.09766-.138559-.487368-.146976-.825253-.15039-1.00781-2e-4-.01091-.0018-.01789-.0039-.02344.01703.02843.03372.05682.05273.08399.05128-.02463.299241-.154866.367187-.19336-.377262-.399253-.545837-.717244-.634765-.886718-.0084-.01605-.01497-.02457-.02148-.02539zm2.27539.201172c-.06527.608323.288858 1.26709.285156 1.07422-.0034-.183884-.0078-.525026.115235-1.02344-.118227-.02249-.251451-.04051-.400391-.05078zm-1.04102.02344c-.143426.0164-.287479.03851-.429687.06445-.0634.607153.28875 1.26057.285156 1.06836-.0037-.196937-.0079-.574429.144531-1.13281zm-7.27734.02539c-.08668 9e-5-.175818.000691-.214843.002.148648.528804.148403.888688.148437 1.08008-.00025.193187.343578-.474253.265625-1.08203-.02843-.001-.112535-9.1e-5-.199219 0zm1.41211.166015c.112055.424685.128591.735563.130859.929688-.0033-.0051-.0064-.01057-.0098-.01563-.05176.02361-.300443.148412-.369141.185547.369243.406681.529697.729179.615234.90039.08071.162137.09434-.487196-.185547-.988281.08051-.113623.228851-.501897.226563-.904297-.131208-.03817-.267911-.0753-.408203-.107422zm2.79688.128907c.03259.03694.07257.0772.117187.11914.03471.19802.0958.374184.152344.496094-.170276.03191-.313167.04724-.431641.05469.0676-.152247.145378-.40114.16211-.669922zm-.337891.07617c.03405.181602.04959.331957.05664.457031-.143131-.06481-.387707-.140302-.652344-.160156.04773-.04401.100064-.09637.152344-.15625.180505-.0352.337709-.09124.44336-.140625zm-.708984.173828c.0019-.000109.0039.000115.0059 0-.0027.0063-.0052.01149-.0078.01758.000684-.0057.0012-.01182.002-.01758zm-2.44922.269529c-.0092-.000868-.01562.0092-.01563.0332-6.2e-5.196971-.0011.575475-.164062 1.13086.143712-.01367.287013-.03146.429687-.05469.06557-.530109-.185852-1.1033-.25-1.10938zm7.16406.01172c-.0643.0077-.306824.588727-.228516 1.11914.05689.000923.336074-.0038.414063-.0078-.158677-.525883-.166249-.88677-.169922-1.07812-.000425-.02414-.0064-.03431-.01563-.0332zm-8.63672.04297c-.0092-.000893-.01368.01104-.01367.03516-5.8e-5.183915-.0023.525503-.134766 1.02148.117778.02473.24972.04353.398438.05664.06722-.531102-.18567-1.10704-.25-1.11328zm4.69141.0625c.000368.01352.0017.02643.002.03906-.01307.000411-.02687.0017-.03906.002v-.002c-.00061-.01352-.0015-.02472-.002-.03711.01311-.000421.02683-.0017.03906-.002zm-.115234.0059c-.0052.01034-.01018.02305-.01563.03516-.03662.000818-.03824.01445-.01563.03516-.05763.141357-.119058.36682-.134766.613282-.04828-.0555-.110116-.117388-.183594-.181641-.03494-.181894-.09013-.340015-.138672-.443359.197317-.03821.358745-.05173.488282-.05859zm.08398.138672c.0099.0045.0224.0091.0332.01367.0017.02873.01571.03036.0332.01367h.002c.162131.06332.404697.126339.660157.134766-.04335.03124-.099.07946-.160157.142578-.20434.03302-.385152.09376-.503906.148438-.03713-.182194-.05583-.332762-.06445-.453125zm.769531.25c-.0013.01078-.0024.02215-.0039.0332-.0039.000219-.0078-.000245-.01172 0 .0054-.01257.01049-.02157.01563-.0332zm2.24024.0332c-.322681.519803-.28931 1.26523-.208985 1.08984.07667-.167175.221756-.477345.548829-.873047-.09677-.07154-.210101-.142935-.339844-.216797zm-3.41016.335937c.0081.0034.01564.0064.02344.0098-.0078-.000991-.01545-.000892-.02344-.002-.000107-.0019.000115-.0059 0-.0078zm2.625.259766c-.08648.0097-.529772.416555-.683594.910156.05086.02551.304942.141662.376953.171875.08514-.542661.234759-.870913.314453-1.04492.01261-.02742.0082-.0389-.0078-.03711zm-5.34766.253906c-.130188.04151-.264085.08903-.398437.140625.380571.334503.57007.614049.671875.765625.09724.144953.03689-.450148-.273438-.90625zm.28711.07617c-.0086.0033-.0088.01554.002.03711.08212.164566.232898.471678.335937.97461.116418-.0305.243909-.07223.382813-.126953-.177143-.505181-.66036-.907919-.720703-.884766zm1.00976.197266c-.02699.05008-.151274.300003-.183594.371093.539922.101074.863569.260923 1.03516.345704.173072.08583-.272172-.517352-.851563-.716797zm5.78516.01758c-.387577.471633-.454514 1.21118-.351562 1.04883.105485-.166345.309183-.483356.744141-.865234-.12871-.06538-.259631-.126845-.392579-.183594zm-.894531.28125c-.08672.0075-.475127.27433-.71289.654297.0904.102471.187751.204418.289062.30664.153046-.483015.331904-.767674.429688-.921875.01754-.02763.01415-.04079-.0059-.03906zm-7.68359.107422c-.04831.03005-.280381.184831-.34375.230469.418351.355968.619774.655626.726563.814453.107556.160477.02092-.583973-.382813-1.04492zm5.68555.162109c-.222065.0097-.632458.09245-.947265.310547.02439.0514.151282.29906.189453.367187.40104-.375363.720729-.540784.890625-.628906.06436-.03326.000427-.05463-.132813-.04883zm1.13672.02734c-.574216.211173-1.00718.821241-.835937.732422.163302-.0846.467437-.240915.96875-.351563-.03226-.115942-.07599-.2428-.132813-.380859zm3.03125.160156c-.389784.471579-.456741 1.21569-.353515 1.05273.09849-.155318.282743-.442997.660156-.791015-.08625-.08393-.188035-.171048-.306641-.261719zm-8.9668.03711c-.01596.000881-.01675.01217 0 .03711.109823.163514.317662.479379.492188 1.03125.111648-.09151.220714-.188245.326172-.287109-.232672-.459524-.732163-.786012-.81836-.78125zm2.41797.427734c-.132884-.0032-.197666.01874-.132813.05078.164847.08155.469564.235641.855469.574219.07436-.09462.150868-.206472.228516-.333984-.318801-.21115-.729699-.285667-.951172-.291016zm5.68945.01953c-.08699-.0021-.581847.342176-.800781.810547.04695.03213.28428.181061.351562.220703.157491-.526239.348756-.832459.451172-.994141.01619-.02548.01416-.03673-.002-.03711zm-9.29882.419887c-.01603.000855-.01682.0121 0 .03711.102543.152676.292296.438265.458984.923828.111546-.04517.230589-.103698.361328-.175781-.231879-.461209-.733754-.789775-.820312-.785157z" fill="#d67503"/><path d="m6.50977 6.87891c-.01501.0002039-.02116.00653-.01367.021484-.05987-.119628-.23815.718039.121093 1.13672-.129015-.042949-.567306-.084675-.603515.072266-.01417.061412.03207.152549.183594.287109.190348.169098.328695.272229.435546.335938.07144-.221995.23573-.370641.462891-.484375.25334-.126746.493225-.164255.740234-.048828.01719-.124998.02194-.310405-.0039-.619141-.060199-.718052-.465643-.0662187-.525398.113281-.104991-.471122-.691801-.81588-.796875-.814453zm4.99805.00781c-.110481-.00255-.712516.33984-.810546.8125-.04481-.128382-.279407-.500795-.425782-.433594-.05728.026296-.101258.120103-.115234.322266-.0176.254002-.01483.425313 0 .548828.219404-.079045.437204-.040062.666016.070312.255105.123153.432686.290564.492187.556641.109466-.062748.257681-.173751.486328-.382812.531739-.486287-.231537-.408043-.410156-.345703.352994-.423903.190952-1.24548.132813-1.125.0073-.01506.000158-.023073-.01563-.023437zm-8.23438.107422c-.157683.013317-.163839.446834-.136718.580078-.372541-.406832-1.20726-.355075-1.0957-.28125-.111559-.073825.149731.740113.669921.923828-.133244.027121-.533218.209194-.486328.363281.01835.060295.104292.117146.302735.158203.249322.051628.420534.070339.544922.072266-.0488-.228046.01804-.438515.158203-.650391.156365-.23621.347477-.388959.61914-.412109-.047445-.116912-.138065-.278498-.314453-.533201-.115397-.166598-.200016-.225914-.261719-.220703zm11.4199 0c-.06142.00259-.140821.064511-.246093.222656-.141124.211922-.22318.363875-.271485.478516.229748.040028.398886.181394.542969.390625.160592.233357.230517.465954.150391.726562.126173-.0002786.311095-.023462.613281-.091797.702808-.159002.00049-.469572-.185547-.503906.516633-.193361.782064-.986011.671875-.910156.110189-.075854-.74445-.138347-1.10938.275391.02468-.133718.0081-.573753-.152344-.587891-.0039-.0003456-.0096-.0001729-.01367 0zm-5.69726 1.77539c-.08128.00843-.504631.607904-.378907 1.0918-.09702-.095271-.472731-.326239-.574218-.201172-.03971.048939-.03597.15239.04102.339844.09668.235541.174199.386054.242188.490234.161723-.168021.374875-.22812.628906-.230468.283265-.0025.516335.06902.6875.28125.07037-.104731.155136-.269903.267578-.558594.261451-.671464-.388933-.263891-.521484-.128906.128806-.536384-.382076-1.20017-.38086-1.06641-.000114-.012541-.0033-.01845-.01172-.017578zm3.78906.195313c-.05936.00953-.139085.066273-.246094.191406-.16551.193477-.266426.333383-.328124.441406.223291.06728.376178.22813.49414.453124.13146.250926.173285.491111.0625.740235.125298.01485.310943.01404.619141-.01758.716801-.07361.05754-.465097-.123047-.521485.536087-.130035.893878-.88827.77539-.826171.118488-.062099-.720922-.224431-1.13281.142578.04053-.129796.07361-.568294-.08398-.601562-.01156-.00244-.02341-.00415-.03711-.00195zm-7.60547.00195c-.180353-.00406-.13265.459106-.08789.59375-.418614-.359244-1.24265-.208354-1.12305-.148432-.119603-.0599224.238885.717846.777344.837891-.129034.04289-.506426.270613-.441407.417969.02544.05766.11838.104116.320313.121093.253712.02138.425107.02078.548828.0078-.07578-.220553-.03368-.438868.08008-.666016.126926-.253257.297521-.426866.564451-.482408-.061115-.110386-.169357-.260461-.375-.492188-.119584-.134726-.203554-.188101-.263672-.189453zm6.00781 1.9961c-.05871-.000862-.143851.01927-.259766.07031-.233041.102561-.381933.187233-.484375.257813.172026.157458.239328.367201.248047.621093.0096.283113-.05776.516926-.265625.69336.106464.06772.273033.148741.564453.253906.677811.244529.255456-.394314.117188-.523437.539445.115311 1.19034-.410822 1.05664-.40625.133695-.0046-.553681-.517314-1.08398-.365235.09281-.09938.315073-.479805.1875-.578125-.01872-.01443-.04485-.02292-.08008-.02344zm3.97656.0039c-.05531.0057-.12735.02702-.220703.06641-.2346.09894-.386712.179061-.490234.248047.169567.160103.233493.372955.238281.626953.0053.283228-.06482.516258-.27539.689453.105402.06936.270789.152055.560546.261719.673945.254992.261252-.390235.125-.521484.537597.12365 1.19625-.393127 1.0625-.390625.133751-.0025-.545531-.524712-1.07812-.38086.09434-.09793.321348-.475889.195312-.576172-.02466-.01962-.06188-.02914-.117188-.02344zm-12.3945.01172c-.255657.02198.03001.473305.138672.582031-.535148-.13385-1.20409.371052-1.07031.371094-.133774-4.2e-5.53508.534089 1.07031.40039-.09618.09612-.331137.469606-.207031.572266.04856.04017.151674.03811.339844-.03711.23644-.09446.389325-.171277.49414-.238282-.166492-.163299-.226605-.376816-.226562-.630859.000132-.283276.07523-.514434.289062-.683594-.104064-.07135-.26902-.158282-.55664-.273437-.125433-.05021-.212487-.06757-.271485-.062499zm4 0c-.255657.02198.03001.473305.138672.582031-.535148-.13385-1.20409.371052-1.07031.371094-.133774-4.2e-5.53508.534089 1.07031.40039-.09618.09612-.331137.469606-.207031.572266.04856.04017.151674.03811.339844-.03711.23644-.09446.389325-.171277.49414-.238282-.166492-.163299-.226605-.376816-.226562-.630859.000132-.283276.07523-.514434.289062-.683594-.104064-.07135-.26902-.158282-.55664-.273437-.125433-.05021-.212487-.06757-.271485-.062499zm6.32422 2.11328c-.123137.000492-.219875.0087-.296875.01953.08334.217809.04922.435081-.05664.666016-.118122.257473-.282017.437239-.546875.501953.06489.108213.177115.254018.390625.478515.496633.52209.405679-.238654.339844-.416015.430752.344604 1.24855.165138 1.12695.109375.121597.05576-.264363-.709139-.80664-.810547.127477-.04732.495844-.288567.425781-.433594-.02741-.05675-.12182-.09742-.324219-.107422-.09536-.0047-.178071-.0081-.251953-.0078zm-8.16406.0098c-.08436.0022-.18304.008-.298828.01758-.718123.05933-.06615.465419.113282.52539-.538569.119342-.912669.868323-.792969.808594-.1197.05973.717607.2396 1.13672-.119141-.0431.128964-.08659.567118.07031.603516.06139.01424.154321-.03224.289063-.183594.169327-.190172.270147-.328773.333984-.435547-.221909-.07171-.368961-.235593-.482422-.46289-.126441-.253492-.164552-.493365-.04883-.740235-.07811-.01084-.179714-.01727-.320313-.01367zm3.42969.257813c-.07035.104745-.155191.269881-.267578.558594-.261324.671514.388958.263916.521484.128906-.128704.536407.380149 1.20017.378906 1.06641.0012.133768.531411-.540294.392579-1.07422.09704.09525.470801.326258.572265.201172.0397-.04895.03796-.152404-.03906-.339843-.09673-.235522-.176132-.388021-.244141-.492188-.161692.168053-.372922.230024-.626953.232422-.283264.0026-.516295-.06906-.6875-.28125zm-5.26758 1.73047c-.123897.0039-.299373.02723-.564453.08398-.704585.150937-.006.469396.179687.50586-.518816.187426-.794644.978882-.683594.904296-.11105.07459.743639.145857 1.11328-.263672-.02621.133427-.01379.571915.146484.587891.06271.0063.149454-.05136.263672-.21875.143543-.210291.225775-.360529.275391-.474609-.229274-.04265-.397388-.185616-.539063-.396485-.157907-.235182-.225686-.468843-.142578-.728515-.01577-.00015-.03113-.00056-.04883 0zm11.8203 0c.05323.227053-.01047.439734-.146484.654297-.15174.239207-.338213.395396-.609375.423828.04971.115969.142909.276122.324219.527343.421748.584252.431958-.182572.390625-.367187.380385.399507 1.21454.331407 1.10156.259766.112974.07164-.165786-.738551-.689453-.91211.132691-.02971.530349-.217949.480469-.371093-.01952-.05993-.107437-.115155-.306641-.152344-.250279-.04677-.420521-.063-.544922-.0625zm-8.2168.04297c-.110075.06167-.259549.170143-.490234.376954-.536479.481052.227029.412149.40625.351562-.357131.420424-.201896 1.24295-.142578 1.12305-.05932.119904.716661-.242192.833984-.78125.04355.128815.272896.503263.419922.4375.05753-.02573.103183-.118296.119141-.320313.02009-.253816.01753-.425174.0039-.548828-.220168.07689-.438296.03644-.666016-.07617-.253881-.125645-.427484-.295853-.484375-.5625zm4.66211.0293c-.06834.22297-.229525.375295-.455078.492188-.251546.130267-.49164.170566-.740235.05859-.01544.125225-.01648.310796.01367.61914.0702.717143.464239.05922.521485-.121093.127487.536698.883801.90003.822265.78125.06154.11878.228331-.721139-.136719-1.13477.129602.04115.567546.07735.601563-.08008.01331-.0616-.03412-.152723-.1875-.285156-.192689-.166427-.331724-.267868-.439453-.330079z" fill="#77b255"/></g></svg>
