<?xml version="1.0" encoding="UTF-8"?>
<svg width="36" height="36" version="1.1" viewBox="0 0 36 36" xml:space="preserve" xmlns="http://www.w3.org/2000/svg"><path d="m32 5h-28c-2.209 0-4 1.791-4 4v18c0 2.209 1.791 4 4 4h28c2.209 0 4-1.791 4-4v-18c0-2.209-1.791-4-4-4z" fill="#039"/><path d="m18.6396 9.48843c.212609-.851187-.588624-1.91513-.588624-1.70237 0-.212759-.851186.851187-.638276 1.70237-.21276-.212759-1.27671-.851187-.851037.212759.425518 1.0641.638277 1.0641.851037 1.27685.212758.21276.638427-.212909.638427-.212909s.388052.425669.600961.212759c.21276-.212759.388203-.212759.813721-1.27655.425518-1.0641-.61345-.425669-.826209-.21291zm-4.34147.82054c-.241468-.843453-1.46733-1.36424-1.36095-1.17999-.106379-.184255-.311556 1.16274.298423 1.79344-.290635-.07788-1.53125-.0988-.63064.609773.900557.708775 1.08481.602395 1.37545.680271.290634.07788.44644-.503599.44644-.503599s.548897.174614.626827-.116226c.07788-.290634.229814-.378356.06643-1.51239-.163538-1.13429-.744097-.06192-.821973.228719zm-3.34955 2.88134c-.630845-.609718-1.95287-.447803-1.76861-.341424-.184255-.106379.311556 1.16274 1.15516 1.40395-.290634.07788-1.3755.680066-.241263.843399 1.13429.163539 1.24067-.02072 1.53131-.09859.290634-.07788.134829-.659349.134829-.659349s.562666-.123229.484735-.414068c-.07788-.290634.0098-.442573-.698668-1.34298-.708775-.900557-.675364.318428-.597489.609063zm-1.46013 4.1701c-.851187-.212609-1.91513.588624-1.70237.588624-.212759 0 .851187.851186 1.70237.638276-.212759.21276-.851187 1.27671.212759.851037 1.0641-.425518 1.0641-.638277 1.27686-.851037.212759-.212758-.212909-.638427-.212909-.638427s.425668-.388052.212758-.600962c-.212758-.212759-.212758-.388202-1.27655-.81372-1.0641-.425518-.425669.613449-.21291.826209zm.82054 4.34147c-.843453.241469-1.36424 1.46733-1.17999 1.36095-.184255.106379 1.16274.311556 1.79344-.298423-.07787.290634-.0988 1.53125.609773.63064.708775-.900557.602396-1.08481.680271-1.37545.07788-.290634-.503598-.44644-.503598-.44644s.174614-.548897-.116227-.626827c-.290634-.07788-.378355-.229814-1.51239-.06643-1.13429.163538-.06191.744097.228719.821973zm2.88134 3.34955c-.609718.630845-.447803 1.95287-.341424 1.76861-.106379.184255 1.16274-.311556 1.40395-1.15516.07788.290635.680066 1.3755.843399.241264.163538-1.13429-.02072-1.24067-.09859-1.53131-.07788-.290634-.659349-.134828-.659349-.134828s-.123229-.562666-.414069-.484735c-.290634.07788-.442573-.0098-1.34298.698667-.900558.708776.318428.675365.609063.59749zm4.17009 1.46013c-.212608.851187.588624 1.91513.588624 1.70237 0 .212758.851187-.851187.638277-1.70237.212759.212759 1.2767.851187.851037-.212759-.425518-1.0641-.638278-1.0641-.851037-1.27686-.212759-.21276-.638427.212909-.638427.212909s-.388053-.425669-.600962-.212758c-.212759.212758-.388203.212758-.813721 1.27655-.425518 1.0641.61345.425669.826209.21291zm4.34147-.82054c.241468.843453 1.46733 1.36424 1.36095 1.17999.106379.184255.311556-1.16274-.298424-1.79344.290635.07788 1.53125.0988.630641-.609772-.900558-.708775-1.08481-.602396-1.37545-.680272-.290634-.07788-.44644.503599-.44644.503599s-.548898-.174614-.626827.116227c-.07788.290634-.229815.378355-.06643 1.51239.163539 1.13429.744097.06192.821974-.228719zm3.34955-2.88134c.630845.609718 1.95286.447803 1.76861.341424.184254.106379-.311556-1.16274-1.15516-1.40395.290635-.07788 1.3755-.680066.241264-.843399-1.13429-.163538-1.24067.02072-1.53131.09859-.290634.07788-.134829.659349-.134829.659349s-.562666.123229-.484734.414068c.07788.290634-.0098.442574.698667 1.34298.708776.900558.675365-.318428.59749-.609063zm1.46013-4.1701c.851188.212609 1.91513-.588623 1.70237-.588623.212759 0-.851186-.851187-1.70237-.638277.21276-.212759.851188-1.2767-.212758-.851037-1.0641.425518-1.0641.638278-1.27686.851037-.21276.212759.212909.638427.212909.638427s-.425669.388052-.212759.600962c.212759.212759.212759.388203 1.27655.813721 1.0641.425517.425669-.61345.212909-.82621zm-.82054-4.34147c.843454-.241468 1.36424-1.46733 1.17999-1.36095.184255-.106379-1.16274-.311556-1.79344.298424.07788-.290635.0988-1.53125-.609773-.630641-.708775.900557-.602395 1.08481-.680271 1.37545-.07788.290634.503598.44644.503598.44644s-.174613.548897.116227.626827c.290634.07788.378356.229815 1.51239.06643 1.13429-.163538.06192-.744097-.22872-.821973zm-2.88134-3.34955c.609717-.630845.447803-1.95287.341424-1.76861.106379-.184255-1.16274.311556-1.40395 1.15516-.07788-.290635-.680066-1.3755-.843399-.241264-.163539 1.13429.02072 1.24067.09859 1.53131.07788.290634.65935.134829.65935.134829s.123228.562666.414068.484734c.290634-.07788.442573.0098 1.34298-.698667.900557-.708776-.318428-.675365-.609062-.59749z" fill="#77b255"/><path d="m19.5404 12.9996c0 2.2916-1.06394 5.00044-1.59599 5.00044-.532048 0-1.59584-2.70899-1.59599-5.00044 0-2.2916.59705-2.8727 1.59599-2.87285.998945.000151 1.59599.581251 1.59599 2.87285zm-2.7066-.100281c1.1458 1.98458 1.57882 4.86248 1.11805 5.1285-.460767.266024-2.73654-1.54813-3.88239-3.53251-1.1458-1.98458-.919289-2.78636-.05425-3.28596.865187-.499342 1.6728-.294619 2.8186 1.68996zm-2.39412 1.26645c1.98458 1.1458 3.79854 3.42162 3.53251 3.88239-.266024.460767-3.14398.02754-5.1285-1.11805-1.98458-1.1458-2.1893-1.95341-1.68996-2.8186.499603-.865036 1.30138-1.09154 3.28596.05425zm-1.44014 2.29384c2.2916 0 5.00044 1.06394 5.00044 1.59599 0 .532048-2.70899 1.59584-5.00044 1.59599-2.2916 0-2.8727-.59705-2.87285-1.59599.00015-.998945.581251-1.59599 2.87285-1.59599zm-.100282 2.7066c1.98458-1.1458 4.86248-1.57882 5.1285-1.11805.266024.460767-1.54813 2.73654-3.53251 3.88239-1.98458 1.1458-2.78635.919289-3.28596.05425-.499342-.865187-.294619-1.6728 1.68996-2.8186zm1.26645 2.39412c1.1458-1.98458 3.42162-3.79854 3.88239-3.53251.460767.266023.02754 3.14398-1.11805 5.1285-1.1458 1.98458-1.95341 2.1893-2.8186 1.68996-.865036-.499603-1.09155-1.30138.05425-3.28596zm2.29384 1.44014c0-2.2916 1.06394-5.00044 1.59599-5.00044.532048 0 1.59584 2.70899 1.59599 5.00044 0 2.2916-.59705 2.8727-1.59599 2.87285-.998945-.000151-1.59599-.581251-1.59599-2.87285zm2.7066.100282c-1.1458-1.98458-1.57882-4.86248-1.11805-5.1285.460767-.266024 2.73654 1.54813 3.88239 3.53251 1.1458 1.98458.919289 2.78635.05425 3.28596-.865187.499342-1.6728.29462-2.8186-1.68996zm2.39412-1.26645c-1.98458-1.1458-3.79854-3.42162-3.53251-3.88239.266024-.460767 3.14398-.02754 5.12851 1.11805 1.98458 1.1458 2.1893 1.95341 1.68996 2.8186-.499603.865036-1.30138 1.09154-3.28596-.05425zm1.44014-2.29384c-2.2916 0-5.00044-1.06395-5.00044-1.59599s2.70899-1.59584 5.00044-1.59599c2.2916 0 2.8727.597049 2.87285 1.59599-.000151.998945-.581251 1.59599-2.87285 1.59599zm.100281-2.7066c-1.98458 1.1458-4.86248 1.57882-5.1285 1.11805-.266024-.460767 1.54813-2.73654 3.53251-3.88239 1.98458-1.1458 2.78636-.919289 3.28596-.05425.499342.865187.294619 1.6728-1.68996 2.8186zm-1.26645-2.39412c-1.1458 1.98458-3.42162 3.79854-3.88239 3.53251-.460767-.266025-.02754-3.14398 1.11805-5.12851 1.1458-1.98458 1.95341-2.1893 2.8186-1.68996.865036.499603 1.09154 1.30138-.05425 3.28596z" fill="#f4900c"/><path d="m18.0988 11.7226c-.292506 0-.835839-.0023-1.62473-.212759-.03927.18733-.06966.397982-.09043.634515.965391.121878 2.02196-.421907 1.71516-.421756zm.08832 2.3408c-.313271 0-.914835-.003-1.79822-.261961.02182.228557.05176.457717.08878.68462.963585.118869 2.01519-.422659 1.70945-.422659zm1.34667-1.4523c-.840955.236683-1.41438.237737-1.71877.237887-.307252-.000301.753383.545139 1.71998.420853.0031-.09043.0029-.534605-.0012-.65874zm-.430182 3.23607c.06064-.208696.117212-.425668.16822-.648809-.779113.205837-1.31688.208546-1.60728.208546-.277609-.000151.561691.44553 1.43906.440263zm-4.15677-3.33296c-.253317.146253-.725001.415939-1.51344.628111.05966.181867.138661.379495.238943.594722.896992-.377147 1.54012-1.37636 1.2745-1.22283zm1.24689 1.98303c-.271301.156635-.793795.454777-1.68829.672245.133174.187027.273681.370516.419192.548511.893923-.378849 1.53388-1.37363 1.26909-1.22076zm.440101-1.93106c-.609947.625452-1.10602.913077-1.36956 1.0654-.266239.153366.925018.09541 1.69997-.495519-.0425-.07988-.26481-.464421-.330397-.569893zm1.24549 3.01761c-.05183-.211055-.111325-.427246-.178722-.645996-.571813.567818-1.03618.839046-1.28767.984246-.240493.138674.709203.104995 1.46639-.33825zm-5.26635-.808044c-.146253.253317-.419899.722715-.996621 1.30068.142598.127672.309831.259321.504291.395572.588245-.775115.6456-1.96202.49233-1.69625zm2.07136 1.09391c-.156636.2713-.460058.790746-1.12598 1.42632.208846.09538.422273.184036.637286.265428.584736-.775055.641563-1.95654.48869-1.69175zm-.584393-1.8924c-.215504.846631-.501304 1.34376-.653371 1.60744-.153886.265939.848796-.379879 1.22446-1.27912-.07675-.04793-.461543-.269796-.571078-.328344zm2.58743 1.99059c-.150417-.156863-.310034-.314343-.477776-.470088-.211295.777651-.477833 1.24472-.623033 1.49622-.138935.240342.666685-.263674 1.10081-1.02613zm-4.96482 1.93339c0 .292506-.0023.835839-.21276 1.62473.18733.03927.397983.06966.634516.09043.121878-.965391-.421907-2.02196-.421756-1.71516zm2.3408-.08832c0 .31327-.003.914835-.261961 1.79822.228558-.02182.457718-.05176.684621-.08878.118868-.963584-.42266-2.01519-.42266-1.70944zm-1.4523-1.34667c.236683.840955.237736 1.41438.237886 1.71877-3e-4.307252.545139-.753384.420854-1.71998-.09043-.0031-.534606-.0029-.65874.0012zm3.23607.430182c-.208696-.06064-.425669-.117212-.64881-.168221.205838.779114.208547 1.31688.208547 1.60728-.000151.277609.445529-.561691.440263-1.43906zm-3.33296 4.15677c.146252.253317.415939.725001.628111 1.51344.181866-.05966.379495-.138661.594721-.238943-.377146-.896992-1.37636-1.54012-1.22283-1.2745zm1.98303-1.24689c.156635.271301.454777.793795.672246 1.68829.187027-.133174.370516-.273681.548511-.419192-.378849-.893924-1.37363-1.53388-1.22076-1.26909zm-1.93106-.440101c.625451.609947.913077 1.10602 1.0654 1.36956.153366.266239.09541-.925018-.495519-1.69997-.07988.0425-.464422.26481-.569893.330396zm3.01761-1.24549c-.211055.05183-.427246.111325-.645997.178721.567818.571814.839047 1.03618.984246 1.28767.138675.240493.104995-.709203-.338249-1.46639zm-.808044 5.26635c.253317.146253.722714.4199 1.30068.996622.127672-.142598.259322-.309831.395573-.504292-.775115-.588244-1.96203-.645599-1.69625-.49233zm1.09391-2.07136c.271301.156636.790747.460058 1.42632 1.12598.09538-.208846.184036-.422273.265429-.637286-.775055-.584736-1.95654-.641563-1.69175-.48869zm-1.8924.584393c.846631.215504 1.34376.501304 1.60744.65337.265939.153887-.379879-.848795-1.27912-1.22446-.04793.07675-.269796.461543-.328344.571078zm1.99059-2.58743c-.156863.150417-.314343.310034-.470088.477776.777651.211295 1.24472.477832 1.49622.623033.240342.138935-.263673-.666686-1.02613-1.10081zm1.93339 4.96482c.292506 0 .835839.0023 1.62473.212759.03927-.187329.06966-.397982.09043-.634515-.965391-.121878-2.02196.421907-1.71516.421756zm-.08832-2.3408c.31327 0 .914834.003 1.79822.26196-.02182-.228557-.05176-.457717-.08878-.68462-.963585-.118868-2.01519.42266-1.70944.42266zm-1.34667 1.4523c.840956-.236683 1.41438-.237737 1.71877-.237886.307253 3e-4-.753383-.545139-1.71998-.420854-.0031.09043-.0029.534606.0012.65874zm.430183-3.23607c-.06064.208696-.117213.425668-.168221.64881.779113-.205838 1.31688-.208547 1.60728-.208547.27761.000151-.56169-.44553-1.43906-.440263zm4.15677 3.33296c.253317-.146253.725-.415939 1.51344-.628111-.05966-.181866-.138661-.379495-.238944-.594722-.896992.377147-1.54012 1.37636-1.2745 1.22283zm-1.24689-1.98303c.2713-.156634.793795-.454777 1.68829-.672245-.133174-.187027-.273682-.370516-.419192-.548511-.893924.378849-1.53388 1.37363-1.26909 1.22076zm-.440102 1.93106c.609947-.625451 1.10602-.913077 1.36956-1.0654.266239-.153366-.925019-.09541-1.69997.495519.0425.07988.26481.464422.330397.569893zm-1.24549-3.01761c.05183.211055.111326.427246.178722.645997.571813-.567818 1.03618-.839047 1.28767-.984246.240492-.138675-.709204-.104995-1.46639.338249zm5.26635.808044c.146253-.253317.4199-.722714.996622-1.30068-.142598-.127672-.309831-.259322-.504292-.395573-.588244.775115-.645599 1.96203-.49233 1.69625zm-2.07136-1.09391c.156636-.2713.460058-.790746 1.12598-1.42632-.208845-.09538-.422272-.184037-.637286-.265429-.584736.775055-.641562 1.95654-.488689 1.69175zm.584392 1.8924c.215504-.846631.501305-1.34376.653371-1.60744.153887-.265939-.848796.379879-1.22446 1.27912.07675.04793.461542.269796.571078.328344zm-2.58743-1.99059c.150417.156863.310033.314343.477776.470088.211295-.777651.477832-1.24472.623033-1.49622.138935-.240342-.666686.263674-1.10081 1.02613zm4.96482-1.93339c0-.292506.0023-.835839.212759-1.62473-.18733-.03927-.397983-.06966-.634515-.09043-.121878.965391.421906 2.02196.421756 1.71516zm-2.3408.08832c0-.31327.003-.914835.261961-1.79822-.228557.02182-.457717.05176-.68462.08878-.118869.963585.422659 2.01519.422659 1.70944zm1.4523 1.34667c-.236684-.840955-.237737-1.41438-.237887-1.71877.000301-.307252-.545139.753384-.420853 1.71998.09043.0031.534605.0029.65874-.0012zm-3.23608-.430182c.208697.06064.425669.117213.64881.168221-.205838-.779114-.208546-1.31688-.208546-1.60728.000151-.27761-.44553.56169-.440264 1.43906zm3.33296-4.15677c-.146253-.253317-.41594-.725-.628111-1.51344-.181867.05966-.379495.138661-.594722.238944.377146.896992 1.37636 1.54012 1.22283 1.2745zm-1.98303 1.24689c-.156635-.271301-.454777-.793795-.672245-1.68829-.187027.133174-.370517.273682-.548511.419192.378849.893924 1.37363 1.53388 1.22076 1.26909zm1.93106.440102c-.625452-.609947-.913077-1.10602-1.0654-1.36956-.153365-.266239-.09541.925019.49552 1.69997.07988-.0425.464421-.26481.569893-.330397zm-3.01761 1.24549c.211055-.05183.427246-.111325.645996-.178721-.567818-.571814-.839046-1.03618-.984246-1.28767-.138674-.240492-.104995.709204.33825 1.46639zm.808044-5.26635c-.253317-.146253-.722715-.4199-1.30068-.996622-.127672.142598-.259321.309831-.395572.504292.775115.588244 1.96202.645599 1.69625.49233zm-1.09391 2.07136c-.2713-.156636-.790746-.460058-1.42632-1.12598-.09538.208845-.184036.422272-.265428.637285.775055.584736 1.95654.641563 1.69175.48869zm1.8924-.584392c-.846631-.215505-1.34376-.501305-1.60745-.653371-.265938-.153887.37988.848795 1.27912 1.22446.04793-.07675.269796-.461542.328344-.571078zm-1.99059 2.58743c.156862-.150417.314343-.310033.470088-.477776-.777651-.211295-1.24472-.477832-1.49622-.623033-.240342-.138935.263674.666686 1.02613 1.10081z" fill="#d67503"/></svg>
