<svg version="1.1" viewBox="0 0 36 36" xmlns="http://www.w3.org/2000/svg"><path d="m18 20.411c-9.371 0-16.967-.225-16.967 6.427 0 6.649 7.596 8.162 16.967 8.162s16.967-1.513 16.967-8.162c0-6.651-7.596-6.427-16.967-6.427z" fill="#D99E82"/><path d="M34.47 20.916S26.251 19.932 18 19.89c-8.251.042-16.47 1.026-16.47 1.026C.717 27.39 7.467 30.057 18 30.057s17.283-2.667 16.47-9.141z" fill="#662113"/><path d="m34.725 19.4216c-1.9-1.751-1.79-.819-3.246-1.23-.553-.156-4.51-5.271-13.529-5.271h-.02c-9.019 0-12.976 5.115-13.529 5.271-1.456.411-1.346-.521-3.246 1.23-.872.804-1.108 1.222-.188 1.43 1.386.313 1.26 1.152 2.253 1.444 1.202.353 1.696-.292 3.634-.028 1.653.225 1.761 2.369 3.429 2.369s1.668-.8 3.335-.8 2.653 2.146 4.321 2.146 2.653-2.146 4.321-2.146 1.668.8 3.335.8c1.668 0 1.776-2.144 3.429-2.369 1.938-.263 2.433.381 3.634.028.993-.292.867-1.13 2.253-1.444.922-.207.687-.626-.186-1.43z" fill="#77b255"/><g transform="translate(9.64766 .769088)" stroke-linecap="round" stroke-width="1.00157"><path d="m6.93808 17.2665c-.745053.915235-1.55521 2.07561-2.15936 2.93736-.862813 1.2307-1.8469 2.6724-1.81055 3.39062 1e-7 0 .119466.564094.326172.705078.522809.414832 2.06549-.388037 3.45312-1.24609 1.28-.791501 2.95941-1.93259 4.19727-3.08398 0 0 1.2988-1.16468 2.85313-2.64185z" fill="#f4900c"/><path d="m8.53364 17.2808c-2.24905 2.25124-3.81364 4.27493-3.52445 4.56572l.667969.673828c.293804.29543 2.38839-1.31515 4.69531-3.60938l1.60877-1.59944z" fill="#d67503"/></g><g transform="translate(10.0151 .373861)" stroke-linecap="round" stroke-width="1.00157"><path d="m11.714 17.3091c-.126271.14276-.251186.283606-.374714.422137-.845345.954929-1.85749 2.40458-2.57617 3.42969-.862813 1.2307-1.8469 2.6724-1.81055 3.39062 1e-7 0 .121419.564094.328125.705078.522809.414831 2.06354-.388038 3.45117-1.24609 1.28-.791501 2.95941-1.93259 4.19727-3.08398 0 0 1.3646-1.22388 2.96875-2.75195.288973-.275269.564706-.542488.828415-.803001z" fill="#f4900c"/><path d="m13.4377 17.3245-.809382.805212c-2.30692 2.29423-3.92857 4.3784-3.63477 4.67383l.669922.671875c.293804.29543 2.38644-1.3132 4.69336-3.60742l2.5258-2.51279z" fill="#d67503"/></g><g transform="translate(9.91836 .231105)" stroke-linecap="round" stroke-width="1.00157"><path d="m16.6586 17.3532c-.145342.164504-.288904.32654-.430641.485491-.845345.954929-1.85749 2.40458-2.57617 3.42969-.862813 1.2307-1.8469 2.67045-1.81055 3.38867 0 0 .121419.564094.328125.705078.522809.414831 2.06354-.386085 3.45117-1.24414 1.28-.791501 2.95941-1.93454 4.19727-3.08594 0 0 1.3646-1.22193 2.96875-2.75.312359-.297546.609249-.58575.892204-.866285z" fill="#f4900c"/><path d="m18.388 17.3686-.871049.866562c-2.30692 2.29423-3.92857 4.3784-3.63476 4.67383l.669922.673828c.293803.29543 2.38644-1.31515 4.69336-3.60938l2.58913-2.57413z" fill="#d67503"/></g><g transform="translate(-14.8518 -.484793)" stroke-linecap="round" stroke-width="1.00157"><path d="m22.1749 17.4023c-.178349.201981-.354062.400526-.527056.59453-.845345.954929-1.85749 2.40458-2.57617 3.42969-.862813 1.2307-1.84691 2.6724-1.81055 3.39062 0 0 .121419.564094.328125.705078.522809.414832 2.06354-.388038 3.45117-1.24609 1.28-.791502 2.95941-1.93259 4.19727-3.08398 0 0 1.3646-1.22388 2.96875-2.75195.353005-.336264.686253-.660517 1.00196-.975205z" fill="#f4900c"/><path d="m23.9194 17.4179-.982482.977421c-2.30692 2.29422-3.92857 4.3784-3.63476 4.67383l.669921.671875c.293804.29543 2.38644-1.31319 4.69336-3.60742l2.6989-2.685z" fill="#d67503"/></g><g transform="translate(-14.4715 -.111531)" stroke-linecap="round" stroke-width="1.00157"><path d="m26.683 17.4425c-.231.261672-.457645.518199-.679718.767243-.845344.954929-1.85553 2.40457-2.57422 3.42969-.862813 1.2307-1.84691 2.67045-1.81055 3.38867 0 0 .119466.566048.326172.707032.522809.414832 2.06549-.388038 3.45312-1.24609 1.28-.791502 2.95941-1.93259 4.19726-3.08398 0 1e-6 1.3646-1.22388 2.96875-2.75195.41787-.398054.808055-.779275 1.17423-1.14772z" fill="#f4900c"/><path d="m28.4478 17.4582-1.15543 1.148c-2.30692 2.29423-3.92662 4.38035-3.63281 4.67578l.667969.671875c.293803.29543 2.38839-1.3132 4.69531-3.60742l2.87231-2.85751z" fill="#d67503"/></g><path d="m18 3.71772c-9.371 0-16.967 4.391-16.967 11.042 0 6.125 7.596 6.375 16.967 6.375s16.967-.25 16.967-6.375c0-6.652-7.596-11.042-16.967-11.042z" fill="#d99e82"/><path d="m10.784 6.88872c-.498-.319-1.159-.173-1.477.325s-.173 1.16.325 1.477c.498.319 1.76.557 2.079.059.318-.498-.429-1.543-.927-1.861zm9.734-1.035c-.562.182-1.549 1.006-1.366 1.568s1.464.648 2.026.466.869-.786.686-1.348c-.182-.561-.786-.869-1.346-.686zm10.909 7.035c-.452-.38-1.585.224999-1.966.676999-.38.453-.321 1.127.131 1.507s1.127.321 1.507-.131c.381-.453.781-1.673.328-2.053zm-3.643-5c-.498-.318-1.159-.172-1.478.326-.318.498-.172 1.159.326 1.477.498.319 1.76.557 2.078.059.319-.499-.428-1.544-.926-1.862zm-15 7c-.498-.318-1.159-.172-1.478.326-.318.497-.172 1.159.326 1.476.498.319 1.76.558 2.078.059.319-.498-.428-1.543-.926-1.861zm3.046-4.808c-.336.486-.62 1.739-.133 2.075.486.336 1.557-.374 1.893-.86s.213-1.152-.273-1.488c-.485-.336-1.152-.213-1.487.273zm7.954 4.808c-.498-.318-1.159-.172-1.478.326-.318.497-.172 1.16.326 1.476.498.319 1.76.558 2.078.059.319-.498-.428-1.543-.926-1.861zm-18.836-3.887c-.394.441-.833 1.648-.392 2.042.439.394 1.591-.173999 1.985-.614999.395-.44.357-1.116-.083-1.511-.439-.394001-1.116-.356001-1.51.084z" fill="#ffe8b6"/></svg>
