<svg version="1.1" viewBox="0 0 36 36" xmlns="http://www.w3.org/2000/svg"><path d="M36 18c0 9.941-8.059 18-18 18-9.94 0-18-8.059-18-18C0 8.06 8.06 0 18 0c9.941 0 18 8.06 18 18" fill="#FFCC4D"/><path d="M28.457 17.797c-.06-.135-1.499-3.297-4.457-3.297-2.957 0-4.397 3.162-4.457 3.297-.092.207-.032.449.145.591.175.142.426.147.61.014.012-.009 1.262-.902 3.702-.902 2.426 0 3.674.881 3.702.901.088.066.194.099.298.099.11 0 .221-.037.312-.109.177-.142.238-.386.145-.594zm-12 0c-.06-.135-1.499-3.297-4.457-3.297-2.957 0-4.397 3.162-4.457 3.297-.092.207-.032.449.144.591.176.142.427.147.61.014.013-.009 1.262-.902 3.703-.902 2.426 0 3.674.881 3.702.901.088.066.194.099.298.099.11 0 .221-.037.312-.109.178-.142.237-.386.145-.594zM31 16c-.396 0-.772-.238-.929-.629-1.778-4.445-6.223-5.381-6.268-5.391-.541-.108-.893-.635-.784-1.177.108-.542.635-.891 1.177-.784.226.045 5.556 1.168 7.732 6.608.205.513-.045 1.095-.558 1.3-.12.05-.246.073-.37.073zM5 16c-.124 0-.249-.023-.371-.072-.513-.205-.762-.787-.557-1.3 2.176-5.44 7.506-6.563 7.732-6.608.543-.106 1.068.243 1.177.784.108.54-.242 1.066-.781 1.176-.185.038-4.506.98-6.271 5.391-.157.391-.533.629-.929.629zm13 6c-3.623 0-6.027-.422-9-1-.679-.131-2 0-2 2 0 4 4.595 9 11 9 6.404 0 11-5 11-9 0-2-1.321-2.132-2-2-2.973.578-5.377 1-9 1z" fill="#664500"/><path d="m9 23s3 1 9 1 9-1 9-1-2 4-9 4-9-4-9-4z" fill="#FFF"/><path d="m31.75 29.625c-.486623-.0034-.974609.830078-.974609.830078s-1.01503-.655064-1.33203-.109375c-.316779.545308-.670169.641648-.960937 3.02539-.290606 2.38435 1.47033.531636 1.78711-.013672.014972 1.04238.725413 2.04591 1.31836 2.64258h1.15625c.302312-.781303.590234-2.25238.011718-3.30078.545307.316778 3.04512 1.03824 1.61133-.888672-1.43357-1.9273-1.8668-1.81408-2.41211-2.13086-.06816-.0396-.13556-.054208-.205078-.054688z" fill="#609343" stroke-width=".445999"/><path d="m26.7301 27.563c-1.23072-4.64272-.530008-10.7022.547907-10.9879 1.07792-.285741 4.68802 4.63128 5.91898 9.27361 1.23072 4.64272.333204 6.14066-1.69055 6.67746-2.02392.536188-3.54561-.320454-4.77633-4.96317z" fill="#d67503" stroke-width=".445999"/><path transform="matrix(-1,0,0,1,36,0)" d="m26.7301 27.563c-1.23072-4.64272-.530008-10.7022.547907-10.9879 1.07792-.285741 4.68802 4.63128 5.91898 9.27361 1.23072 4.64272.333204 6.14066-1.69055 6.67746-2.02392.536188-3.54561-.320454-4.77633-4.96317z" fill="#d67503" stroke-width=".445999"/><path transform="matrix(-1,0,0,1,36,0)" d="m31.75 29.625c.069518.00048.136918.015088.205078.054688.545309.316777.978541.203561 2.41211 2.13086 1.43379 1.92691-1.06602 1.20545-1.61133.888672.578516 1.0484.290594 2.51948-.011718 3.30078h-1.15625c-.592947-.596668-1.30339-1.6002-1.31836-2.64258-.316779.545308-2.07772 2.39803-1.78711.013672.290768-2.38374.644158-2.48008.960937-3.02539.317004-.545689 1.33203.109375 1.33203.109375s.487986-.833478.974609-.830078z" fill="#609343" stroke-width=".445999"/><path d="m31.7383 29.9277c-.442385-.003085-.884765.75586-.884765.75586s-.922753-.595692-1.21094-.09961c-.287982.495734-.610666.582959-.875 2.75-.264187 2.1676 1.33702.484017 1.625-.011718.016286 1.13422.940186 2.21872 1.5 2.67773h.626953c.30076-.572534.738105-2.18042.132813-3.27734.495734.287981 2.76829.9451 1.46484-.80664-1.30325-1.75209-1.69567-1.64952-2.19141-1.9375-.061967-.035998-.124302-.050341-.1875-.050782z" fill="#77b255" stroke-width=".405454"/><path d="m27.0199 27.295c-1.11884-4.22065-.481826-9.72924.498097-9.989s4.26184 4.21026 5.38089 8.43056c1.11884 4.22065.302913 5.58242-1.53686 6.07042-1.83992.487444-3.22328-.291322-4.34212-4.51197z" fill="#f4900c" stroke-width=".405454"/><path d="m30.2985 28.9431c.538736-.142811 1.54054-.403929 3.0963-.401394-.01913-.364197-.066-.767016-.143239-1.2128-1.83756.246865-3.51805 1.76426-2.95306 1.61419zm-1.30554-4.26815c.576979-.15295 1.6864-.441112 3.43985-.395477-.151774-.410305-.318807-.817751-.497762-1.21759-1.83276.251526-3.50521 1.76234-2.94209 1.61306zm-1.77123 3.33233c1.43331-.846506 2.48893-1.12841 3.04948-1.27731.566041-.149457-1.65373-.636204-3.37332.06463.03833.168097.255749.98603.323838 1.21268zm-.787661-6.17021c-.0098.413981-.0081.841221.0069 1.2771 1.33447-.759501 2.3236-1.02705 2.85846-1.16883.511374-.135262-1.25204-.546337-2.8654-.108275z" fill="#d67503" stroke-width=".405454"/><path d="m4.26172 29.9277c-.063198.000441-.125533.014784-.1875.050782-.495734.28798-.888161.185409-2.19141 1.9375-1.30345 1.75174.969109 1.09462 1.46484.80664-.605292 1.09692-.167948 2.70481.132813 3.27734h.626953c.559814-.459013 1.48372-1.54351 1.5-2.67773.287982.495735 1.88919 2.17932 1.625.011718-.264334-2.16704-.587019-2.25427-.875-2.75-.288185-.496082-1.21094.09961-1.21094.09961s-.44238-.758945-.884766-.75586z" fill="#77b255" stroke-width=".405454"/><path d="m8.9801 27.295c1.11884-4.22065.481826-9.72924-.498097-9.989-.979923-.259765-4.26184 4.21026-5.38089 8.43056-1.11884 4.22065-.302913 5.58242 1.53686 6.07042 1.83992.487444 3.22328-.291322 4.34212-4.51197z" fill="#f4900c" stroke-width=".405454"/><path d="m5.70146 28.9431c-.538736-.142811-1.54055-.403929-3.0963-.401394.019131-.364197.066-.767016.14324-1.2128 1.83755.246865 3.51805 1.76426 2.95306 1.61419zm1.30554-4.26815c-.57698-.15295-1.6864-.441112-3.43985-.395477.151774-.410305.318807-.817751.497762-1.21759 1.83276.251526 3.50521 1.76234 2.94209 1.61306zm1.77123 3.33233c-1.43331-.846506-2.48893-1.12841-3.04948-1.27731-.566042-.149457 1.65373-.636204 3.37332.064629-.0383317.168097-.255748.98603-.323838 1.21268zm.787661-6.17021c.00979.413981.00806.841221-.00694 1.2771-1.33447-.759501-2.3236-1.02705-2.85846-1.16883-.511373-.135262 1.25204-.546337 2.8654-.108275z" fill="#d67503" stroke-width=".405454"/></svg>
