<svg version="1.1" viewBox="0 0 36 36" xmlns="http://www.w3.org/2000/svg"><path d="m4.71788 25.4514c-.212.511-.798.751-1.308.539-.51-.213-.751-.798-.539-1.308l4.617-12.538c.212-.51.798-.751 1.307-.539.51.213.751.798.539 1.308z" fill="#66757f"/><path d="m14.7179 24.6824c.212.51-.029 1.095-.539 1.308-.51.212-1.095-.028-1.308-.539l-4.615-12.538c-.212-.51.029-1.095.539-1.308.51-.212 1.095.029 1.308.539zm9.31952-4.40738c-.213.511-.799.751-1.309.539-.51-.213-.75-.798-.538-1.308l4.616-12.539c.212-.509.797-.75 1.307-.538.51.213.752.798.539 1.308z" fill="#66757f"/><path d="m34.0364 19.506c.212.51-.028 1.095-.538 1.308-.51.212-1.096-.028-1.309-.539l-4.615-12.538c-.213-.51.029-1.095.539-1.308.51-.212 1.095.029 1.307.539z" fill="#66757f"/><path d="m13.2367 18.7573c1.22642-.736201 1.5293-2.88652 1.28401-2.64123.245284-.245285-1.96262 0-2.69848 1.22677 0-.490569-.490569-2.45319-1.22642-.735853-.736201 1.71734-.490916 1.96262-.490916 2.45319s.981485.490569.981485.490569-.04337.938117.447549.938117c.490569 0 .692833.202265 2.40982-.533589 1.71734-.7362-.216488-1.19797-.707057-1.19797z" fill="#77b255" stroke-width=".346937"/><path d="m10.2274 23.8437c-2.64193 2.64192-6.99148 4.53828-7.60486 3.9249-.613385-.613384 1.28332-4.96293 3.9249-7.60486 2.64193-2.64192 4.00018-2.62354 5.15202-1.47205 1.15148 1.15183 1.16987 2.51009-1.47205 5.15202z" fill="#f4900c" stroke-width=".346937"/><path d="m10.0376 20.7095c-.337223-.337223-.961016-.966219-1.62783-2.1184-.261244.170693-.53914.378508-.835771.627262.972465 1.25348 2.81748 1.84466 2.4636 1.49114zm-2.59682 2.80048c-.361162-.361161-1.05122-1.05816-1.77111-2.37513-.238346.288652-.468018.587365-.686935.891628.973852 1.24793 2.81054 1.83599 2.45805 1.4835zm3.22686-.121775c-1.24238-.696649-1.90468-1.35652-2.25578-1.70728-.353876-.35457.24008 1.49703 1.49773 2.46811.107898-.100612.61963-.613038.758058-.760833zm-4.22673 3.23484c.310509-.170693.625874-.35561.941934-.554058-1.13552-.660915-1.75862-1.27777-2.09342-1.61256-.319876-.320223.133918 1.1612 1.15148 2.16662z" fill="#d67503" stroke-width=".346937"/><path d="m15.6519 24.5284h-13.714c-.631 0-1.143.511-1.143 1.143 0 2.524 3.582 4.571 8 4.571 4.418 0 8-2.047 8-4.571 0-.632-.512-1.143-1.143-1.143zm5.60398-5.17684c-.631999 0-1.14258.510579-1.14258 1.14258 0 2.524 3.581 4.57226 8 4.57226 3.96267 0 7.24974-1.64664 7.88672-3.80664v-1.25977c-.184261-.38359-.57473-.648438-1.0293-.648438zm2.74414 14.6484h-12c-.552 0-1-.447-1-1 0-2.209 3.134-4 7-4s7 1.791 7 4c0 .553-.447 1-1 1z" fill="#ffac33"/><path d="M19 3c0-.552-.447-1-1-1-.552 0-1 .448-1 1v27c0 .553.448 1 1 1 .553 0 1-.447 1-1V3z" fill="#FFAC33"/><circle cx="18" cy="4" r="2" fill="#FFAC33"/><circle cx="8.79488" cy="12.5284" r="2" fill="#ffac33"/><circle cx="28.1134" cy="7.35202" r="2" fill="#ffac33"/><path d="m28.1134 7.35202c.285737 1.06638 0 0-9.65926 2.58819-9.65926 2.58819-9.37352 3.65457-9.65926 2.58819s1.8625-4.64016 8.62398-6.45189 10.4088.209131 10.6945 1.27551z" fill="#ffac33"/></svg>
