<svg version="1.1" viewBox="0 0 36 36" xmlns="http://www.w3.org/2000/svg"><path d="m27.865 16.751c0-6.242-4.411-9.988-9.927-9.988s-9.835 3.746-9.835 9.988c0 3.48-.103 6.485 3.897 7.89v2.722c0 1.034.966 1.872 2 1.872 1.035 0 2-.838 2-1.872v-1.97 1.97c0 1.034.965 1.872 2 1.872 1.036 0 2-.838 2-1.872v-1.97 1.97c0 1.034.966 1.872 2 1.872s2-.838 2-1.872v-2.722c4-1.405 3.865-4.41 3.865-7.89z" fill="#CCD6DD"/><circle cx="13.629" cy="15.503" r="3.121" fill="#292f33"/><path d="m19.187 21.159c-.157-.382-.626-.662-1.189-.662-.561 0-1.031.28-1.188.662-.394.11-.685.469-.685.898 0 .517.419.936.937.936.409 0 .753-.263.88-.628.019 0 .037.004.056.004s.037-.004.057-.004c.128.365.472.628.88.628.517 0 .936-.419.936-.936 0-.429-.291-.786-.684-.898z" fill="#292f33"/><path d="m25.488 15.503c0 1.724 0 3.121-3.121 3.121-3.12 0-3.12-1.397-3.12-3.121s1.396-3.121 3.12-3.121c1.725 0 3.121 1.397 3.121 3.121z" fill="#292f33"/><path d="m31.7539 25.9414c-.570591-.009369-.983422.072266-1.51367.072266-1.415 0-1.29102 2.70508-1.29102 2.70508s-2.82812 6.4e-5-2.82812 1.41406c0 1.28924-.580878 2.00147.923828 5.86719h3.92188c.065772-.36941.103515-.698008.103515-.917969.197898.329923.432729.636153.695313.917969h4.23438v-4.36133c-.26545-.235959-.547381-.450218-.851562-.632813.208004 0 .510261-.032005.851562-.08789v-3.85352c-2.27406-.900874-3.42766-1.10961-4.24609-1.12305z" fill="#77b255"/><path d="m3.74609 25.9414c-.757616.01244-1.79266.18743-3.74609.927735v4.11523c.13343.012661.255304.021484.353516.021484-.120856.072548-.238839.148832-.353516.230469v4.76367h3.73438c.262584-.281816.497415-.588046.695312-.917969 0 .219961.0377431.548559.103516.917969h3.92188c1.50471-3.86572.923828-4.57795.923828-5.86719 0-1.414-2.82812-1.41406-2.82812-1.41406s.123983-2.70508-1.29102-2.70508c-.530249 0-.943081-.081635-1.51367-.072266z" fill="#77b255"/><path transform="matrix(1 0 0 -1 4.05178 39.9382)" d="m8.83405 32.9788c-3.0471 1.44425-5.6853 2.27607-7.19443 2.26212-.526885-.0049-.915719-.112984-1.13672-.333984-.952697-.952697.195255-5.03232 2.64792-9.78379.552047 3.74178 2.69388 6.45807 5.68323 7.85566zm6.7602-23.3907c5.22945-4.0904 8.3498-3.56344 11.0708-.843305 2.92151 2.92239 3.31309 6.30549-1.82864 12.2675-.09791-2.85342-.695993-5.21637-4.25535-6.44917v-2.9668c0-1.00575-.84938-1.84032-4.98677-2.00826z" fill="#f4900c"/><path transform="matrix(1 0 0 -1 4.05178 39.9382)" d="m15.6057 9.58862c.548257-.428372 1.07312-.805656 1.57685-1.13479.280429.484549.558246.936984.831265 1.35938-.641054-.107628-1.43307-.184663-2.40812-.224591zm4.97529 3.61202c.512893.575021.954615 1.01835 1.29492 1.35866.255.25475.113766.340484-.285156.267578-.24801-.04533-.595681-.151517-1.00977-.315518z" fill="#d67503"/><path d="m7.06976 18.4066c-5.61842 6.28692-5.29184 9.78062-2.28656 12.7868 2.72604 2.72522 5.85296 3.24905 11.1001-.866264-3.72902-.2111-4.51413-1.01923-4.51413-1.9853v-2.9668c-3.77312-1.30684-4.24277-3.88365-4.29938-6.96844zm21.5717-4.26895c2.2151-4.45743 3.21287-8.19926 2.30578-9.10635-.221-.221-.611787-.329115-1.13867-.333984-1.47766-.013656-4.03748.783544-7.00365 2.17257 2.93016 1.28689 5.10776 3.79607 5.83654 7.26777z" fill="#f4900c"/><path d="m11.3691 25.6393c-.634849-.286706-1.16726-.465383-1.50977-.527978-.398922-.07291-.540156.01283-.285156.267578.446671.446671 1.06765 1.07083 1.79492 1.9373zm1.9912 4.37152c.296723.454777.599427.945064.905285 1.47355.512781-.335044 1.04745-.719984 1.60641-1.15792-1.05846-.06036-1.87916-.16893-2.5117-.315634z" fill="#d67503"/><path d="m23.2701 12.5152c-.172855-.0521-.352053-.08963-.536169-.111149-.165784.194598-.325143.464409-.329647.744337-.09963-.179065-.670006-.791694-.580078-.0098.08981.782001.226543.818982.326172.998047.09963.179064.443359-.02734.443359-.02734s.176925.351503.349609.248047c.172563-.103383.283756-.07269.738282-.703125.454577-.630638-.319625-.390493-.492188-.287109.137927-.257943.129507-.593259.08066-.851938z" fill="#77b255" stroke-width=".143548"/><path d="m21.0657 18.5143c.200648.03967.423421.06899.670759.08712.480636-.521823 1.14648-1.65535 1.42759-2.74402.39278-1.5211.111627-2.01364-.527343-2.19141-.639022-.17757-1.12089.101943-1.51367 1.62305-.296087 1.14695-.24587 2.55934-.05734 3.22526z" fill="#f4900c" stroke-width=".143548"/><path d="m22.461 14.7532c-.187107-.05202-.534275-.150158-1.00283-.430195-.05723.11736-.112777.25178-.166601.405091.596643.252601 1.36571.07957 1.16943.0251zm-.344714 1.56947c-.20039-.05572-.584677-.164708-1.10537-.493711-.02522.155591-.04534.313027-.06056.470223.596004.250282 1.3615.07787 1.16593.02349zm1.11035-.724482c-.578502.0075-.945487-.09376-1.14022-.147795-.196488-.05485.388482.495844 1.02809.585263.01752-.05946.09346-.354349.112138-.437468zm-.829837 2.07151c.07456-.127743.147937-.261701.218812-.400744-.533657-.0019-.878115-.09579-1.06388-.147439-.177554-.04948.282933.395632.845063.548183z" fill="#d67503" stroke-width=".143548"/><path d="m13.3181 12.3981c-.185263.01832-.365766.05284-.540071.102126-.06139.261054-.08165.605001.06381.866963-.17808-.102815-.994576-.336029-.525391.291015.469111.62717.610983.590545.789063.693359.17808.102815.382812-.253906.382812-.253906s.332659.213362.435547.03516c.102814-.178079.217816-.210779.310547-.988281.09268-.777701-.48117-.172227-.583984.0059-.0048-.282521-.166567-.556378-.332335-.752292z" fill="#77b255" stroke-width=".145424"/><path d="m14.203 18.5704c.271332-.05039.53033-.135832.772105-.251469.152049-.717121.170074-1.97295-.107901-3.01037-.405338-1.51274-.903046-1.78988-1.5625-1.61328-.6594.176792-.950259.664996-.544922 2.17774.284263 1.06061.949781 2.16468 1.44322 2.69738z" fill="#f4900c" stroke-width=".145424"/><path d="m13.6895 14.7214c-.193091.05174-.552157.146353-1.11016.146935.0072.130607.02441.27504.05254.434854.658836-.0903 1.26012-.636155 1.05762-.581789zm.472344 1.5296c-.206797.05541-.604436.159829-1.23338.145142.05483.147017.115129.292995.179698.436232.657111-.09197 1.25552-.635454 1.05369-.581374zm.632088-1.1969c-.51327.304988-.891616.407111-1.09253.461051-.202878.05415.59375.226601 1.20984-.02641-.01391-.06025-.09267-.353412-.117313-.434638zm.288422 2.2123c.0031-.148491.0021-.301727-.0037-.45805-.477903.273688-.832416.370595-1.02412.421961-.183284.049.44959.194754 1.02783.03609z" fill="#d67503" stroke-width=".145424"/></svg>
