<svg version="1.1" viewBox="0 0 36 36" xmlns="http://www.w3.org/2000/svg"><path d="M36 18c0 9.941-8.059 18-18 18-9.94 0-18-8.059-18-18C0 8.06 8.06 0 18 0c9.941 0 18 8.06 18 18" fill="#FFCC4D"/><path d="m28.457 17.797c-.06-.135-1.499-3.297-4.457-3.297-2.957 0-4.397 3.162-4.457 3.297-.092.207-.032.449.145.591.175.142.426.147.61.014.012-.009 1.262-.902 3.702-.902 2.426 0 3.674.881 3.702.901.088.066.194.099.298.099.11 0 .221-.037.312-.109.177-.142.238-.386.145-.594zm-12 0c-.06-.135-1.499-3.297-4.457-3.297-2.957 0-4.397 3.162-4.457 3.297-.092.207-.032.449.144.591s.427.147.61.014c.013-.009 1.262-.902 3.703-.902 2.426 0 3.674.881 3.702.901.088.066.194.099.298.099.11 0 .221-.037.312-.109.178-.142.237-.386.145-.594zm1.543 4.203c-3.623 0-6.027-.422-9-1-.679-.131-2 0-2 2 0 4 4.595 9 11 9 6.404 0 11-5 11-9 0-2-1.321-2.132-2-2-2.973.578-5.377 1-9 1z" fill="#664500"/><path d="m9 23s3 1 9 1 9-1 9-1-2 4-9 4-9-4-9-4z" fill="#FFF"/><path d="m7.0293 30.1387c-.571061.009377-1.40432.172721-3.26172.96875-2.97244 1.27425.375512 2.07226 1.22461 2.07227-1.05092.630852-1.70852 1.86204-2.05469 2.89258h4.17773c.120038-.13941.229546-.285527.324219-.44336 0 .110773.0150089.265659.0429688.44336h2.41602c.851978-2.2286.513672-2.65374.513672-3.41602 0-.849097-1.69922-.849609-1.69922-.849609s.0762603-1.62305-.773438-1.62305c-.318411 0-.56752-.050548-.910156-.044922z" fill="#77b255" stroke-width=".600494"/><path transform="matrix(-.600494 0 0 -.600494 23.6649 38.5443)" d="m23.1915 22.8081c6.83705-7.10289 6.67721-10.859 3.47419-14.063-3.32-3.319-7.23606-3.3737-14.8511 4.2413-1.61434 1.61456-3.13214 3.45047-4.50491 5.35814.799202-.07252 1.64524-.111802 2.54038-.111802 7.31283 0 11.3488 2.62146 13.3414 4.57534z" fill="#f4900c"/><path d="m10.5293 29.8008c.58368.58368 1.66226 1.67178 2.81641 3.66602.452171-.295443.933844-.653431 1.44727-1.08398-1.68318-2.16958-4.87618-3.19393-4.26367-2.58203z" fill="#d67503" stroke-width=".600494"/><path d="m17.199 27.5873c.289014.433884.588443.923937.890862 1.47718.410609-.497272.804879-1.0115 1.18218-1.53557-.478897.04335-.985789.06682-1.52202.06682-.187231 0-.370884-.0029-.551018-.0084z" fill="#d67503" stroke-width=".600494"/><path d="m9.74198 24.8516c-.129588.131907-.238834.244478-.302528.312481 2.15037 1.20579 3.2966 2.34798 3.9043 2.95508.302693.303287.204378-.3259-.235243-1.24285-1.60868-.562382-2.68563-1.3579-3.36653-2.02471z" fill="#d67503" stroke-width=".600494"/></svg>
