<svg version="1.1" viewBox="0 0 36 36" xmlns="http://www.w3.org/2000/svg"><path d="m18 12.5938-6.45703 2.20898c-.280423.538109-.795943 1.71709-1.1582 2.55664-.238914.190054-.487065.384446-.738282.570313-.312999.230998-1.9775.789062-2.3125 1.03906-1.762 1.315-2.55102 3.84197-2.79102 4.16797-.360822.490529-2.89606 7.96077-3.99219 11.2188-.0960328.547391-.186196 1.09559-.273438 1.64453h11.7227 20 3.9043c-.506158-3.43955-1.17347-6.85374-1.96484-10.1621-.021507-.030155-.042848-.06329-.064453-.087891-.514998-.585998-1.84191-1.4203-3.12891-2.1543 0 0-2.3341-5.59667-3.62109-7.26367-1.287-1.667-3.66797-3-3.66797-3l-2.36133 1.32227-3.0957-2.06055z" fill="#f4900c" stroke-width="2.33076"/><path d="m9.33594 18.0938c-.589628.269198-1.72982.671918-2.00195.875-1.762 1.315-2.55102 3.84197-2.79102 4.16797-.121435.165088-.508003 1.17993-.994141 2.5293 8.03237-2.01896 15.0244-2.76953 18.0547-2.76953 2.55798.001346-4.3044-3.66833-12.2676-4.80273zm23.0977 14.7539c-5.96394-.039239-11.9524 1.75456-15.0176 3.15234h14.584 3.89453c-.149418-.998119-.303366-1.99892-.460937-2.96484-.989474-.122062-1.99321-.180876-3-.1875z" fill="#d67503" stroke-width="2.33076"/><path d="m18 12.5938-6.45703 2.20898c-.407.781-1.54297 3.44727-1.54297 3.44727l-1.25 3.75-3.5332 5.65234c1.64338-1.32623 3.55273-2.65625 3.55273-2.65625 1e-7 0 .0649688.793032.0429688 1.95703s-.521484 2.54297-.521484 2.54297-.0004849-.604985-.521484-1.20898c-.139-.160999-1.10253 1.15039-2.51953 2.15039-.593999.42-1.10425 2.083-.90625 2.875s.15625 2.6875.15625 2.6875h8.32031l4-7s-1.701-6.208-1-8c.701-1.792 3.22266-4.85352 3.22266-4.85352s-.021485.813471-.646485 2.10547c-.128998.268-.27297.511188-.417968.742188.715998.686998.630859 4.06836.630859 4.06836s-.3945-.369752-.6875-1.59375c-.208-.869998-1.07756-.93775-1.10156-.46875-.008998.189.180313.872486.445313 1.77148.127.431.543406.979516.691406 1.47852.151.505998.032735.963564.177735 1.47656.399998 1.413.726546 2.72844.685546 3.27344-.100998 1.343-1.993 4.53125-2 5.03125-.006998.5.466797 1.96875.466797 1.96875h11.7695s-1.10662-1.58396-.765625-3.62695c.083-.493.20064-1.57667.30664-2.01367.196-.805998-.506642-2.51384-.68164-3.08984-.112-.364998-.652969-.636486-.792969-1.02148-.051-.141-.099438-.286641-.148438-.431641-.456998-.734998-1.1386-.722394-2.18359-2.27539-.529-.786-.520891-1.29277-.587891-1.75977-.056-.389.194904-2.29221-.746094-3.9082-.940998-1.616-2.64453-3.06055-2.64453-3.06055l.283203-.158203-3.0957-2.06055z" fill="#4b3e05" opacity=".380408"/><path d="m26.098 22.256c-.772-.754-1.187-1.898-1.229-3.294.173-1.667-4.662-4.923-4.662-4.923l-1.915.316s4.112 1.681 4.708 4.453c.297 1.381-.107 3.271-.208 4.11-.136 1.119.661 1.768.875 2.832.111.55.007 1.694-.14 2.878-.075.602-.348 1.175-.422 1.726-.192 1.424-.12 2.472.229 1.812.422-.796.653-1.922 1.263-3.606.293-.81.311-1.743.239-2.811-.031-.461.111-1.009.061-1.521-.051-.528-.294-1.02-.333-1.604-.011-.166.03-.738.092-1.444.074.012.146.054.216.172.938 1.562.764 3.025 1.276 2.581.41-.356.493-1.146-.05-1.677z" fill="#FFAC33"/><path d="M18 12.594s-3.844-1.094-6.458 1.25C10.351 14.911 10.48 15.896 10 18.25s-1.861 3.086-2.062 4.021c-.396 1.833-1.852 3.23-2.417 4.104-.328.508-.758 1.336-1.038 1.802-.586.978-1.014 1.805-1.066 2.239-.125 1.042 1.833-1.208 1.833-1.208l3.281-4.035c-.107 2.301-.924 4.738-.031 4.514.75-.188 1.363-1.136 1.016-2.156-.454-1.336-.338-2.483-.094-3.456.05-.089 2.252-4.007 2.787-7.117.542-3.146 5.381-3.976 5.381-3.976l2.244.862.417-1.066L18 12.594z" fill="#FFAC33"/><path d="M27.953 17c-1.328-1.75-3.286-3.685-4.234-3.988-.823-.263-.428.815-.428.815s2.833 1.236 4.271 6.736c.686 2.625 2.765 3.711 3.344 5.344 1.938 5.469 4.166 6.463 2.943 4.747S29.281 18.75 27.953 17zm-9.972 1.535c-.108-.166-.205-.306-.294-.437 1.259-1.904 2.751-4.035 2.751-4.035s-2.912-.294-3 .031c-.875 3.219-1.669 4.238-2.312 6.281-1.876 5.958 1.21 9.869 1.694 8.625.388-1-.211-3.746-.672-5.373s-.266-2.002-.169-2.669c.034-.233.594-1.153 1.303-2.244.089.071.172.163.243.29.446.8.653 2.26.753 3.251.115 1.139 1.134 1.653 1.696 1.25s-.188-2.422-1.41-3.726c-.289-.31-.392-.95-.583-1.244z" fill="#77b255"/><path d="m23.969 13.125s.594 1.156-1.635 1.135c-.584-.005-.861.512-1.625.576-.636.053-1.509-.243-2.229-.243s-1.55.491-2.186.438c-.766-.064-1.659-.834-2.231-.959-1.062-.232-1.792-.289-1.792-.646s1.207-.789 2.271-1.021c.571-.125 1.058.285 1.822.221.636-.053 1.291-.101 2.011-.101s1.415-.431 2.051-.377c.766.064 1.403.432 1.979.535.683.123 1.088.244 1.314.329.185.069.25.113.25.113z" fill="#77b255"/><path d="m25.531 6.906s-3.455-1.365-6.764-1.365-7.392 1.886-7.392 1.886c3.25 2.764 3.119 5.697 3.119 5.697h7.688c0 .001 1.162-4.052 3.349-6.218z" fill="#FFAC33"/><path d="m22.182 13.125s-.056.21-.4.312c-.091.027-.307-.048-.453 0-.174.057-.486.201-.641.219-.166.02-.546-.094-.734-.078-.344.028-.519.159-.922.172-.273.008-.401-.098-.693-.098-.109 0-.341-.097-.525-.089-.303.012-.583.13-.75.125-.453-.014-.545-.216-.922-.25-.365-.032-.625.141-.891.094-.502-.089-.756-.406-.756-.406 0-.291 1.721-.527 3.844-.527s3.843.526 3.843.526z" fill="#FFAC33"/><path d="m17.145 13.682s-.07-.575-.301-1.367c-.615-2.107-.594-3.628-.594-3.628l-1.396.667s.729 1.396 1.305 4.093c0 0 .2.005.429.129s.557.106.557.106zm1.698.063c.004-.228.01-.715.074-1.214.063-.492.321-1.677.417-2.26.163-.995.117-1.696.333-2.083l-2.229.083s.471.931.583 2.042c.088.866.001 2.239.195 3.327 0 0 .063.017.149.024.043.003.14.003.192.012.157.026.286.069.286.069zm2.212-.2s.462-1.455.62-2.446c.257-1.613 1.714-3.985 2.106-4.38l-2.828-.094s.069 2.111-.058 3.491c-.096 1.043-.598 1.991-.519 3.503 0 0 .134.05.311.037.155-.012.368-.111.368-.111z" fill="#77b255"/><path d="M30.375 2.039c-.045 0-.088.01-.132.013-.193-.446-.635-.76-1.153-.76-.235 0-.443.082-.631.194-.448-.72-1.241-1.204-2.152-1.204-.814 0-1.531.39-1.996.985-.493-.336-1.088-.534-1.729-.534-1.154 0-2.148.644-2.674 1.585-.265-.612-.874-1.041-1.583-1.041-.55 0-1.035.263-1.351.664C16.584.815 15.525 0 14.266 0c-1.015 0-1.902.528-2.414 1.322-.141-.021-.283-.043-.43-.043-.802 0-1.526.33-2.048.859-.068-.005-.132-.02-.201-.02-.034 0-.066.009-.099.01-.308-.398-.783-.657-1.323-.657-.526 0-.99.247-1.297.626-.17-.05-.347-.084-.534-.084-1.06 0-1.92.86-1.92 1.921s.86 1.921 1.921 1.921c.055 0 .106-.012.16-.016.217.271.536.456.91.456.046 0 .085-.021.129-.026.473.62 1.212 1.026 2.051 1.026.19 0 .374-.023.552-.062.35.278.758.485 1.213.576.644 1.121 1.839 1.885 3.224 1.885 1.311 0 2.459-.679 3.125-1.701.552.677 1.382 1.118 2.323 1.118 1.392 0 2.552-.95 2.897-2.233.026.001.05.008.076.008.367 0 .714-.075 1.041-.193.516.403 1.157.653 1.863.653 1.062 0 1.995-.546 2.539-1.37.194.139.419.238.676.238.482 0 .893-.291 1.078-.704.188.067.387.11.597.11.988 0 1.789-.801 1.789-1.789s-.801-1.792-1.789-1.792z" fill="#9fec71"/><circle cx="14.25" cy="4.703" r="2.024" fill="#f0faf4"/><circle cx="11.75" cy="4.537" r="2.001" fill="#f0faf4"/><circle cx="9.784" cy="4.628" r="1.11" fill="#f0faf4"/><circle cx="23.659" cy="3.669" r="1.11" fill="#f0faf4"/><circle cx="26.208" cy="3.287" r="1.495" fill="#f0faf4"/><circle cx="15.976" cy="4.263" r="1.632" fill="#f0faf4"/><circle cx="25.555" cy="4.163" r="1.784" fill="#f0faf4"/><circle cx="17.421" cy="4.841" r="1.532" fill="#f0faf4"/><circle cx="14.203" cy="3.531" r="1.7" fill="#f0faf4"/><circle cx="14.162" cy="5.274" r="2.86" fill="#f0faf4"/><circle cx="9.784" cy="4.628" r=".3774" fill="#bfb" stroke-width=".34"/><circle cx="17.421" cy="4.841" r=".52088" fill="#bfb" stroke-width=".34"/><circle cx="14.203" cy="3.531" r=".578" fill="#bfb" stroke-width=".34"/><circle cx="23.659" cy="3.669" r=".3774" fill="#bfb" stroke-width=".34"/><circle cx="26.208" cy="3.287" r=".5083" fill="#bfb" stroke-width=".34"/></svg>
