<svg width="36" height="36" version="1.1" viewBox="0 0 36 36" xmlns="http://www.w3.org/2000/svg"><path d="m6.203 21.641c-.078.922.321 1.198.946 1.636.618.433 4.383-2.867 5.614-3.369s12.787-2.949 12.286-5.183-3.993-2.564-6.683-2.108-7.838 2.822-9.342 4.099c-1.504 1.276-2.821 4.925-2.821 4.925zm8.622 1.497s-3.557 1.155-3.557 4.155.866 4.692 1.276 5.513c.411.82 1.688 1.616 3.455.851 2.052-.889-.491-6.004 6-3.656 2.974 1.075 6.059 2.528 9.059 1.528 2.846-.949 3.942-4.529 3.942-6.529 0-4.094-3-3-4-2s-9 3-10 3-6.175-2.862-6.175-2.862z" fill="#ef9645"/><path d="m19.312 28.188s-.12-1.316-1.375-1.469c-1.031-.125-2.656.219-3.5 1.906-.844 1.688-2.344 1.406-2.281 2.812.062 1.406.5 2.5 1.406 2.781.907.282 2.188-.218 2.344-1.718s.344-2.875 1.312-3.469c.97-.593 2.094-.843 2.094-.843z" fill="#f9ca55"/><path d="m18 26s-1-1-3-1-6.664 2.133-5.25 6.375c1 3 3.844 1.594 4.25-1.375.407-2.973 4-4 4-4z" fill="#ef9645"/><path d="m17 26s-1-1-3-1-4.885 1.53-5 6c-.094 3.656 4.031 2 4-1s4-4 4-4z" fill="#f9ca55"/><path d="m5 27c0 3.297.457 5.286 2.428 4.947 3.269-.562 2.028-4.614 4.889-5.754 2.077-.827 5.101-.63 8.02 1.103 1.923 1.142.663-3.296-1.337-4.296s-8 0-9 0c-1 0-5 4-5 4z" fill="#ef9645"/><path d="m4.842 27.174c-1.591 2.665-.623 5.42 2.158 4.826 2.691-.574 1.343-4.07 4-6 1.489-1.082 4.698-1.445 6.698-.445s2.302-1.555.302-2.555-8.54-.025-9.538.037c-1.909.119-3.62 4.137-3.62 4.137z" fill="#f9ca55"/><path d="m6.672 25.026c0 1 2.421 1.915 3.421.915 1-1 3.341-2.228 6.419-.941 7.204 3.01 4.488-1 1.488-2s-8 0-9 0-2.328 2.026-2.328 2.026z" fill="#ef9645"/><path d="m6.195 22.043c-.358-1.113 2.188-7.279 3.341-8.234 1.452-1.202 7.069-3.063 9.069-3.063s16.395 7.254 16.395 12.254-2 5.625-4.875 6.406c-2.299.625-7.115.242-9.219-1.719-1.844-1.718-3.125-2.906-4.906-3.687-3.302-1.448-5.503.424-6.503 1.424-2 2-5.768-.159-2.625-3.58 2.249-2.449 4.23-3.212 6.128-3.844 6-2 10-2 8-4-.707-.707-1.092.346-2.076.525-1.98.36-3.556.602-6.165 1.472-.902.3-5.172 3.023-6.564 6.046z" fill="#ffdc5d"/><path d="m13.196 16.275c1.064-.388 5.702-1.232 8.115-2.068 1.949-.676 3.659.636-.04 2.028-3.57 1.343-7.279 1.233-9.984 2.307-1.023.406-1.91-.875 1.909-2.267z" fill="#ef9645"/><path d="m17.1426 1.29575e-8c-.11686.274363-.228069.609363-.333984 1.02148-1.21013 4.70536-.483799 5.23936-.289063 6.5.194736 1.26064 2.7168.871094 2.7168.871094s.26191 2.4273 1.52344 2.23242c1.26064-.194736 1.86035.244405 5.98047-2.32812 4.12088-2.57356-1.03233-2.99161-2.29297-2.79688 1.64162-1.36566 2.31253-3.80489 2.48828-5.5h-4.75391c-.819481.65341-1.5374 1.46333-1.92969 2.42578-.079089-.511986-.46611-1.61051-.974609-2.42578z" fill="#77b255" stroke-width=".902114"/><path d="m22.0336 14.381c1.92971-4.23363.946441-6.60118-1.5629-8.43958-.854251-.625448-1.71321-1.06482-2.61133-1.24805-2.69435-.549692-5.73772 1.19781-10.043 7.07617-5.73945 7.83768-8.88809 19.7669-7.06836 21.0996 1.43664 1.05218 8.23753-2.83898 13.8619-8.38066-2.1329-.250697-3.73426.670948-4.51623 1.45293-.532606.532607-1.468.521774-2.22656.244141-1.78345.126564-3.38302-1.74375-.996093-4.3418 2.249-2.449 4.23091-3.21175 6.12891-3.84375.36098-.120327.714918-.231182 1.06055-.337891-.0047.0053-.01483.01619-.01953.02148 1.2039-.494554 2.34076-.675151 3.43164-.908203.735903-.158725 1.45069-.341618 2.15234-.660157.008-.0024.01547-.0054.02344-.0078.197462-.09057.394373-.191611.589843-.306641.721035-.423939 1.22848-.864275 1.79532-1.41979z" fill="#f4900c" stroke-width=".902114"/><path d="m16.4588 16.9849c-1.55486-.818563-2.58838-1.57321-3.24981-2.05713-.62515-.458796-.07687.958311 1.23244 2.60157.693036-.25005 1.3641-.407354 2.01737-.544435zm-6.18311 2.14002c-1.12446-.909475-2.64609-2.31212-4.33037-4.5116-.497904.836375-.968375 1.69372-1.41016 2.5625 1.38074 1.29892 3.17599 2.1658 4.6089 2.64825.383706-.268495.760535-.49831 1.13163-.69915zm-2.52084 7.06601c.641872.765648 1.43947 1.55889 2.35257 2.21926.73017-.561897 1.4658-1.1634 2.19922-1.79883-.734919-.288301-1.39858-.581398-1.99693-.870656-.07774.06738-.149782.134558-.215958.200734-.532606.532607-1.468.521774-2.22656.244141-.03754.0027-.075.0044-.112338.0053zm4.22367-19.2026c-.603572.542341-1.23687 1.18637-1.90039 1.94336 2.99657 2.8351 7.97354 3.62152 6.92383 2.85352-1.00044-.732713-2.85253-2.10077-5.02344-4.79687z" fill="#d67503" stroke-width=".902114"/></svg>
